<?xml version="1.0" standalone="no"?>
<!DOCTYPE svg PUBLIC "-//W3C//DTD SVG 1.1//EN" "http://www.w3.org/Graphics/SVG/1.1/DTD/svg11.dtd" >
<svg xmlns="http://www.w3.org/2000/svg" xmlns:xlink="http://www.w3.org/1999/xlink" version="1.1">
<metadata></metadata>
<defs>
<font id="littlemissprissmedium" horiz-adv-x="456" >
<font-face units-per-em="2048" ascent="1638" descent="-410" />
<missing-glyph horiz-adv-x="411" />
<glyph horiz-adv-x="0" />
<glyph unicode="&#xd;" horiz-adv-x="681" />
<glyph unicode=" "  horiz-adv-x="411" />
<glyph unicode="&#x09;" horiz-adv-x="411" />
<glyph unicode="&#xa0;" horiz-adv-x="411" />
<glyph unicode="!" horiz-adv-x="137" d="M40 1135.5q-1 46.5 0 71t5 62.5t14 68q2 10 13.5 16.5t24 3.5t18.5 -13.5t2 -22.5q-8 -27 -11.5 -59.5t-4.5 -55t0 -68.5t1 -63q0 -123 9.5 -365.5t9.5 -365.5q0 -29 -31 -29t-31 29q0 123 -9 365.5t-9 365.5q0 14 -1 60.5zM59 71.5q0 30.5 31 30.5t31 -30.5t-31 -30.5 t-31 30.5z" />
<glyph unicode="&#x22;" horiz-adv-x="323" d="M30 1223.5q1 31.5 6 73.5t17 75q4 12 15.5 17.5t23.5 1t17.5 -15.5t1.5 -23q-8 -29 -13.5 -66t-6.5 -64.5t5 -78.5l6 -70q2 -20 10.5 -80.5t10.5 -68.5q2 -12 -6 -22.5t-20.5 -12.5t-23 6t-12.5 20q0 8 -9 66.5t-11 81.5l-6 76q-6 53 -5 84.5zM223 1137q0 10 10 118 q6 70 7 107q0 31 30.5 31t30.5 -31q0 -39 -6 -111q-8 -88 -10 -118q-6 -135 26 -203q14 -29 -13.5 -42.5t-39.5 13.5q-41 82 -35 236z" />
<glyph unicode="#" horiz-adv-x="765" d="M43 966.5q0 30.5 31 30.5h168q0 14 4 82t5 93.5t1 76.5t-5 89t-14 73q-4 12 2.5 23.5t18.5 14.5t23.5 -3t13.5 -19q10 -31 15 -69.5t7 -66t1 -79t-2 -70t-5 -78.5t-4 -67q49 0 144.5 -1t138.5 -1l-11 133q-16 186 -16 291q0 31 31 31t31 -31q0 -102 14 -286 q10 -106 12 -138h189q31 0 30.5 -30.5t-30.5 -30.5h-185q2 -49 4 -92q2 -47 4.5 -168t4.5 -187q72 10 137 25q12 2 22.5 -5t13.5 -19.5t-4.5 -22.5t-19.5 -14q-68 -14 -147 -25q12 -258 47 -434q2 -12 -5.5 -22.5t-19.5 -13.5t-22.5 4t-14.5 20q-35 178 -47 438 q-121 -10 -295 -12q10 -272 10 -412q0 -31 -30.5 -31t-30.5 31q0 139 -10 412h-78h-74q-31 0 -31 30.5t31 30.5h74h76q-12 287 -8 453v16h-164q-31 0 -31 30.5zM299 920q-4 -168 8 -453q174 2 295 12q-2 70 -4 194t-4 169q-4 67 -4 92q-45 0 -142.5 1t-148.5 1v-16z" />
<glyph unicode="$" horiz-adv-x="858" d="M33 496q2 12 12 20t22.5 6t20.5 -12t6 -23q-25 -154 23 -280q55 -143 186 -180q14 -2 32.5 -3t45.5 1t43 2q-4 565 -2 727l-25 8q-88 25 -127 41q-156 68 -164 211q-10 168 75 272.5t216 120.5q29 2 60 2q4 82 4 150q0 31 30.5 30.5t30.5 -30.5q0 -70 -6 -158 q98 -20 177 -93t116 -192q4 -10 -2 -21.5t-17.5 -15.5t-22.5 2t-15 19q-31 98 -95.5 158.5t-144.5 80.5q-2 -31 -4 -71q-18 -209 -21 -287l-4 -182q31 -10 54 -21q158 -74 253 -206t66 -296q-14 -72 -78.5 -136t-154.5 -111q-68 -33 -138 -52v-174q0 -31 -30.5 -30.5 t-30.5 30.5v162q-80 -12 -137 4q-162 43 -228 217q-53 141 -26 310zM168 1018q4 -59 36 -96t91 -62q35 -14 119 -41l8 -2l4 164q2 82 20 291q4 51 7 76q-25 0 -47 -2q-106 -14 -176 -99.5t-62 -228.5zM481 733q0 -160 2 -692q57 16 113 43q82 41 135 95t64 110 q25 135 -58.5 250.5t-224.5 181.5q-15 6 -31 12z" />
<glyph unicode="%" horiz-adv-x="1091" d="M49 784q0 49 37 101q-6 14 -10 28q-6 37 10 87.5t45 93.5q4 6 10 10q-12 43 21 104q14 29 61 70t94 70l9 4v4q8 47 69 69q12 4 25.5 6.5t23 2.5t23.5 -3.5t20.5 -5.5l19.5 -6t15 -4q23 -8 35 -6q12 0 23 14q18 25 42.5 6.5t6.5 -43.5q-27 -35 -66 -38q-23 -4 -59 8 q-45 14 -55 14q8 -4 14 -14q10 -12 12 -31q16 6 33 10q59 10 115 -16q8 43 53 90q23 20 44 -1.5t1 -43.5q-45 -43 -39 -70q4 -20 37 -32q6 -2 12 -2l4 12q25 59 62 86q25 16 49 16q29 0 51 -22q14 -16 12 -41q0 -12 -6 -27q-29 -78 -125 -88q-2 -12 -2 -25q25 -37 41 -79h4 q41 59 115 69q18 2 27 2q29 -2 41 -20q14 -23 10 -45q-4 -18 -21 -35q-25 -20 -69 -31q-33 -6 -66 -6q-10 -31 -4 -63q10 -47 55 -73t129 -3q12 2 23.5 -4t14.5 -18.5t-3 -24t-18 -15.5q-88 -18 -146.5 -0.5t-89.5 66.5q-12 -33 -33 -57q-63 -86 -192 -97q86 -113 127 -162 l6 -6q14 25 33.5 48.5t46.5 50.5l41 39q14 12 51 42.5t41 32.5q25 20 44.5 -3t-3.5 -42l-39 -32l-41 -35q-12 -10 -35.5 -32t-38.5 -36l-28 -37q-14 -18 -27 -39l14 -10l86 -76q113 -106 107 -192q-2 -27 -23 -41q-12 -10 -32 -12h-43h-133q4 -33 8 -95q0 -23 2 -57v-2 q10 -2 26 -2q33 0 90 4q16 0 97 6q53 4 69 4q31 0 31 -30.5t-31 -30.5q-14 0 -63 -4q-74 -6 -98 -6q-59 -4 -97 -5q-23 0 -37 3q-23 4 -32 12q-8 4 -13 12v4q-2 2 -2 4v4v4q0 4 -2 19q-2 35 -2 57q-4 68 -10 99h-70q-16 0 -106 -5q0 -16 14 -92q6 -33 8 -49q2 -12 2 -18 t-2 -13q-2 -12 -10 -18q-6 -6 -18 -8q-4 -2 -10 -2q-12 -2 -31 -4q-29 0 -80 -2h-131q-31 0 -31 30.5t31 30.5h131q47 2 78 2q6 0 10 2q-2 12 -6 39q-16 80 -17 100q-47 0 -86 -2q-88 0 -135 9q-33 4 -49 10q-35 16 -35 45q0 25 25 43q4 4 8 7t6 3l2 4q82 98 146 187 q-4 6 -6 12q-8 45 -74 90q-51 35 -127 63q-12 4 -17.5 15.5t-1.5 24t15.5 17.5t23.5 1q84 -31 140 -70q66 -43 90 -92q61 92 110 186q-51 8 -100 37t-78 72q-27 -23 -72 -29q-59 -8 -102 17q-18 -29 -18 -54q0 -31 -31 -30.5t-31 30.5zM135 938h2q66 49 125 31q-4 39 4 82 q-14 -4 -28 -4q-33 0 -56 10q-45 -62 -47 -119zM170 887q23 -8 51.5 -4t40.5 14v2q-31 33 -88 -10zM207 1159q49 25 96 2q12 23 27 45q20 29 45 54q-14 8 -25 20q-4 4 -8 10q-39 -25 -78 -58.5t-49 -51.5q-6 -11 -8 -21zM217 258l16 -4q43 -6 127 -6l148 6q90 2 106 2h267 q8 0 17 -1t17 -1h3q2 57 -89 141q-18 20 -81 74q-53 43 -72 66l-141 176q-111 -211 -308 -445q-2 -4 -10 -8zM326.5 1048.5q-13.5 -63.5 7 -123t80.5 -94.5q49 -29 108 -32q10 2 19 -2h16q125 0 180 73q49 63 33 158q-2 14 -4 23h-2q-41 34 -47 100q-72 84 -168 53 q-12 -4 -23.5 1t-15.5 17.5t1 23.5t17 16q23 8 45 10q-27 8 -53 2q-78 -14 -139 -103q-41 -59 -54.5 -122.5zM399 1317q6 -6 15 -10v12q-6 0 -15 -2zM424 987q0 31 30.5 31t30.5 -31q0 -35 21 -51q18 -14 49 -12q35 2 63.5 22.5t36.5 50.5q2 12 13.5 18.5t24 3.5t18.5 -14.5 t2 -23.5q-12 -51 -57.5 -83t-96.5 -36q-55 -4 -92 27q-43 35 -43 98zM440 1106q0 31 31 31t31 -31t-31 -31t-31 31zM578 1108q0 31 30.5 31t30.5 -31t-30.5 -31t-30.5 31zM799 1264q37 12 47 41q2 4 2 6q-2 2 -4 2q-4 0 -13 -4q-18 -14 -32 -45z" />
<glyph unicode="&#x26;" horiz-adv-x="632" d="M39 418q14 66 76 127q31 33 71 59q-10 4 -18 10q-27 18 -33 48q-4 27 10 59q55 117 197 139q119 20 231 -33q29 -14 16 -41.5t-40 -15.5q-98 45 -197 31q-109 -18 -149 -105q-8 -16 -6 -24q0 -2 6 -6q16 -12 65 -15h11q61 23 110 17q8 -2 17 -6q12 -8 12 -25 q0 -12 -8 -23q-4 -4 -13 -8q-2 0 -6 -2q-10 -4 -31 -6q-35 -6 -69 -8q-76 -29 -133 -88q-49 -49 -58 -96q-10 -45 27 -76q63 -53 233 -2q72 20 256 104q29 12 41.5 -16.5t-16.5 -40.5q-188 -84 -264 -107q-201 -59 -291 17q-63 53 -47 133zM303 1114q-2 14 6 23.5t21.5 11.5 t23 -6.5t11.5 -20.5q6 -51 38 -196q2 -12 -5 -22.5t-19 -13.5t-22.5 4t-14.5 19q-33 147 -39 201zM309 213q0 31 31 31t31 -31t12 -72q25 -78 27 -78q2 -12 -4.5 -23t-18.5 -14t-23.5 3t-14.5 18t-7 25.5t-9 28t-7 22.5q-16 51 -17 90z" />
<glyph unicode="'" horiz-adv-x="143" d="M45 1138q2 136 27 216q2 12 13 18t23.5 3t18.5 -14.5t2 -23.5q-20 -72 -22.5 -199.5t16.5 -205.5q2 -12 -5 -22.5t-19.5 -13.5t-22.5 4t-15 20q-18 82 -16 218z" />
<glyph unicode="(" horiz-adv-x="372" d="M51 379q-8 201 33 401q43 209 119 387q80 184 186 301q20 23 42.5 2.5t2.5 -43.5q-98 -111 -175 -285.5t-114 -373.5q-39 -193 -30 -387q8 -193 67 -330q98 -227 291 -418q20 -23 -1 -44t-44 -1q-201 203 -303 439q-63 147 -74 352z" />
<glyph unicode=")" horiz-adv-x="307" d="M-43 1407q-18 23 5.5 42.5t43.5 -5.5q160 -195 236.5 -433.5t68.5 -480t-79.5 -478t-200.5 -449.5q-16 -27 -43 -10.5t-11 42.5q127 207 197 435q70 229 76 461.5t-66 459.5q-74 227 -227 416z" />
<glyph unicode="*" horiz-adv-x="772" d="M31 973q-14 55 25.5 103t109.5 44q29 -2 57 -10q-39 68 -37 135.5t33 108.5q25 39 62 39q39 0 65 -45q10 -18 19 -43q10 25 22 45q29 41 66 49q39 8 71 -19q59 -53 51 -159q8 6 15 12q49 29 90 12q39 -16 51 -63q12 -49 -7 -105.5t-69 -99.5q18 -8 35 -19 q41 -27 59.5 -69.5t12.5 -85.5q-8 -43 -43 -70.5t-86 -21.5h-4q33 -47 45 -95q41 -172 -2 -407q43 27 84 16q33 -10 45 -41q10 -27 2 -67q-16 -59 -88 -105q-70 -43 -142 -28q-4 0 -8 2q-68 16 -123 73q-45 47 -65 103q-10 27 -10 47q0 33 22 49q41 27 92 -14q31 -25 68 -76 q12 -20 39 -59l2 2v2v6q70 299 22 481q-14 59 -69 125q6 -49 0 -90q-4 -35 -19 -55q-20 -31 -51 -31q-29 0 -57 29q-23 25 -45 71q-20 43 -35 82l-4 -12q-18 -72 -47 -105q-20 -25 -47 -28q-31 -6 -60 12q-104 68 -22 223q23 39 51 78q-49 -8 -86 -2q-72 14 -90 76zM90 989 q8 -25 41 -31q55 -10 148 29q4 0 6 2q2 10 4 19q-78 49 -127 51q-39 2 -58.5 -21.5t-13.5 -48.5zM211 651q10 -6 15 -5t12 9q18 20 34 80q12 45 25 115l6 49q-4 4 -6 10q-53 -53 -86 -116q-57 -106 0 -142zM248 1253q-4 -41 16.5 -89t67.5 -81v23q-6 154 -39 209 q-6 12 -12 16q-6 -4 -13 -12q-16 -25 -20 -66zM369 870q8 -92 55 -192q20 -41 37 -57q6 -8 10 -11l2 2q6 10 8 33q12 86 -35 180l-43 49q-4 0 -8 -2q-14 -2 -26 -2zM393 1106q2 -6 2 -14q27 -4 54 -27q45 59 58 119.5t4 96.5t-28 52q-8 8 -16 6q-14 -2 -29 -24 q-39 -62 -45 -209zM428 205q2 -10 6 -21q16 -43 53 -82q29 -31 60 -45q-41 63 -49 74q-31 45 -56 64q-8 8 -14 10zM469 907q16 -23 29 -45q82 -84 143 -90q51 -6 59 43q10 57 -43 92q-30 21 -77 23q-49 -20 -111 -23zM485 981q43 10 84 10q61 29 87 82t16 92q-6 18 -17 23 q-10 6 -32 -8q-63 -39 -138 -189v-10zM639 47q23 4 43 19q51 31 59 67q6 18 2 29l-4 4q-23 6 -49 -21q-20 -20 -43 -55q0 -12 -2 -20q-2 -15 -6 -23z" />
<glyph unicode="+" horiz-adv-x="884" d="M33 469q-2 12 4 23q6 8 14 12q4 2 6 2h27q4 0 10 -2q23 0 66 -2q150 -2 157 -2q23 0 50 2q12 336 12 493q0 31 30.5 31t30.5 -31q0 -158 -12 -491q303 10 424 10q31 0 31 -30.5t-31 -30.5q-119 0 -428 -11q-8 -244 -8 -393q0 -31 -31 -31t-31 31q0 150 8 391 q-23 -2 -45 -2q-8 0 -159 2q-61 2 -84 4h-11h-6h-2q-6 2 -13 8.5t-9 16.5z" />
<glyph unicode="," horiz-adv-x="174" d="M23.5 -240.5q-17.5 25.5 7.5 41.5q150 104 28 359q-12 27 16 40t42 -16q139 -299 -49 -432q-27 -18 -44.5 7.5z" />
<glyph unicode="-" d="M3 592q3 12 14.5 18t23.5 4q55 -16 120.5 -17t155 4t132.5 5q31 0 30.5 -30.5t-30.5 -30.5q-33 0 -126.5 -5t-166 -3t-131.5 16q-12 4 -18.5 15.5t-3.5 23.5z" />
<glyph unicode="." horiz-adv-x="149" d="M49 45q0 18 13.5 31.5t32 13.5t31.5 -13.5t13 -31.5t-13 -31.5t-31.5 -13.5t-32 13.5t-13.5 31.5z" />
<glyph unicode="/" horiz-adv-x="411" d="M27 55l217 672q14 45 100 344q66 229 113 346q4 10 16 15.5t23.5 1.5t16.5 -16.5t1 -24.5q-51 -129 -113 -338q-86 -301 -100 -348l-217 -672q-4 -12 -15.5 -17.5t-23.5 -1.5t-17 15.5t-1 23.5z" />
<glyph unicode="0" horiz-adv-x="837" d="M47 750q18 287 121 467q123 215 319 184q33 -6 60.5 -21.5t64.5 -45t39 -31.5q25 -18 6 -43q-4 -7 -10 -9q104 -102 156 -262q88 -272 6 -594q-51 -195 -143 -303q-127 -147 -314 -115q-166 31 -250 277q-72 215 -55 496zM109 745q-16 -266 53 -471q72 -213 203 -235 q152 -27 253 92q84 96 130 281q78 307 -5 559q-94 295 -370 356q-2 2 -4 2q-84 -33 -148 -143q-96 -168 -112 -441z" />
<glyph unicode="1" horiz-adv-x="466" d="M24.5 1011.5q0.5 30.5 31 30.5t61 12.5t50 24t51.5 45t42 45.5l45 60l29 37l35 43l2 2q0 2 1 6t1 6q4 14 10 20q10 10 22.5 12.5t24.5 -3.5q8 -6 12 -17l4 -8q0 -6 3 -14v-37q2 -39 0 -107q-2 -119 -5 -172q-10 -176 -2 -481q10 -408 11 -485q0 -31 -31 -31t-31 31 q0 78 -10 483q-8 305 2 487q2 51 4 168q2 37 2 66l-35 -43q-4 -6 -14 -18q-35 -45 -55.5 -69t-58.5 -57.5t-80 -50t-91 -16.5q-31 0 -30.5 30.5z" />
<glyph unicode="2" horiz-adv-x="862" d="M39 86q-2 20 4 49q10 45 39 115q57 135 92 180q53 70 188 176q197 156 222 176q119 104 168 201q51 98 16 203q-29 88 -133 106q-100 18 -229.5 -28.5t-208.5 -130.5q-82 -86 -68 -175q2 -12 -6 -22t-20.5 -12t-22.5 6t-12 20q-18 117 86 226q88 94 231 145 q143 53 262 31q139 -25 178 -146q43 -131 -16 -243q-57 -115 -184 -226q-33 -31 -224 -180q-131 -102 -178 -164q-31 -39 -84 -166q-27 -66 -35 -104q-6 -20 -4 -33q4 -2 6 -2q18 -2 50 -2q51 -2 143 -4q45 0 99.5 1t90.5 1h46q53 0 178 -5t192 -5q31 0 31 -31t-31 -31 q-68 0 -193.5 5.5t-176.5 5.5h-46q-37 0 -91 -1.5t-101 -1.5q-90 2 -145 5q-31 0 -52 2q-12 2 -18 4q-14 2 -21 8q-20 16 -22 47z" />
<glyph unicode="3" horiz-adv-x="983" d="M94 213q-35 119 2 203q12 29 41 16.5t17 -41.5q-29 -63 -2 -162q29 -98 134 -147t244 -43q135 6 244 60.5t139 136.5q27 86 3.5 168.5t-91.5 152.5q-109 115 -243 129q-66 -23 -133 -29q-2 0 -9 -2q-10 -2 -16 -2q-12 -2 -21 0q-20 6 -24 25q-4 16 8 31l10 8h2q2 2 7 2 q4 2 10 4l33 8q47 12 53 14q35 6 73 3q33 12 62 26q78 39 130 99.5t65.5 134t-29.5 147.5t-139.5 96.5t-196.5 -8.5q-106 -31 -175 -96.5t-69 -140.5q0 -31 -30.5 -31t-30.5 31q0 104 85 183t204 114q78 18 152.5 18t144 -34t108.5 -99q57 -96 39 -187.5t-76.5 -160 t-140.5 -113.5q109 -39 192 -127q76 -82 105 -178t-4 -207q-39 -106 -164 -168.5t-275 -69.5q-98 -4 -185 16.5t-157 76.5q-72 57 -96 143z" />
<glyph unicode="4" horiz-adv-x="798" d="M61 899l7 186q4 125 3 163t-5 118q-2 12 6 22.5t20 12.5t22.5 -6.5t12.5 -20.5q4 -84 5 -124t-3 -169t-6 -184q-2 -162 8 -254q12 -111 41 -137q45 -45 162 -51q33 -2 102 0q86 2 92 2q35 0 68 2q-16 119 -20.5 198.5t-13.5 239.5t-13 242q-2 29 -2 80t-2 89t-13 70 q-2 12 4.5 23.5t18.5 14.5t23.5 -3t15.5 -18q8 -37 11 -81t3 -96.5t2 -74.5q4 -82 13.5 -242t13.5 -239.5t20 -198.5q74 8 136 24q12 4 23 -2t14.5 -18t-3 -23.5t-18.5 -13.5q-66 -20 -145 -29l6 -47q25 -195 24 -311q0 -31 -30.5 -31t-30.5 31q0 109 -25 305l-6 49 q-35 -2 -74 -2q-6 0 -90 -2q-72 -2 -108 0q-137 8 -199 68q-45 43 -59 176q-12 96 -11 262z" />
<glyph unicode="5" horiz-adv-x="1024" d="M61 426q16 27 43 10.5t11 -43.5q-53 -86 24 -192q35 -45 85 -81t98 -46q156 -41 332.5 32.5t248.5 212.5q53 119 36 219.5t-93 180.5q-76 78 -185.5 108.5t-222.5 1.5q-49 -14 -101 -46.5t-83 -69.5q-2 -2 -2 -6q-2 -6 -6 -15q-14 -37 -45 -37q-20 0 -29 19q-2 4 -2 8v6 v8q0 8 2 25q4 27 8 70q14 98 19 122q2 12 8 45l14 82l17 88l22 129q6 29 10 46q6 23 11 30q6 10 16 17q4 2 10 2q8 2 21 2q20 2 59 2q49 0 172 -2q272 -4 301 2q12 2 23.5 -5.5t13.5 -19.5t-5.5 -23.5t-19.5 -13.5q-37 -6 -313 -2q-123 2 -172 2h-53l-2 -2l-2 -4 q-4 -16 -8 -43q-10 -43 -25 -127l-14 -90q-10 -51 -17 -82l-6 -45q-4 -20 -16 -113q80 74 178 99q129 35 255 -1t212 -124q90 -92 110.5 -212t-43.5 -259q-80 -160 -277.5 -241t-373.5 -38q-57 16 -115.5 57.5t-99.5 96.5q-102 139 -29 260z" />
<glyph unicode="6" horiz-adv-x="827" d="M31 657q6 231 80 433q74 205 196 286q80 49 169 41t171 -59t126 -131t18 -168q-2 -12 -13.5 -18.5t-24 -3.5t-18.5 14.5t-2 23.5q18 63 -15.5 126t-103 106t-143.5 49t-131 -29q-104 -72 -173 -261t-75 -411q-2 -72 2 -141q4 55 10 102q14 96 75 158t151 84 q82 23 171 9.5t163 -56.5q195 -119 182 -354q-6 -98 -48 -196.5t-110 -174.5q-70 -80 -158 -108.5t-196 4.5q-162 57 -242 258q-70 174 -61 417zM145 276l5 -14q70 -176 204 -223q162 -57 289 88q59 70 98 158t43 176q10 199 -153 297q-61 37 -138 48t-149 -7.5t-120 -66.5 t-58 -124q-12 -84 -12 -309q-1 -13 -9 -23z" />
<glyph unicode="7" horiz-adv-x="882" d="M34 1274q0 31 29 31q152 0 613 -15h20q14 0 37 -1t41 -1q41 0 62 -2q16 0 24 -2q6 0 8 -1l6 -3q10 -6 17 -16q12 -29 -17 -52l-8 -8l-4 -2q-139 -154 -186 -233q-174 -285 -248 -451q-133 -303 -98 -481q2 -12 -5.5 -22.5t-18.5 -13.5t-21.5 4t-14.5 20q-37 199 105 518 q80 178 250 458q53 84 178 226h-31q-18 0 -40.5 1t-39.5 1h-16q-463 14 -613 14q-29 0 -29 31z" />
<glyph unicode="8" horiz-adv-x="940" d="M61 389.5q2 65.5 21 128.5q53 172 190 250q23 14 50 23q-35 27 -58 61q-53 86 -35 205q18 115 95 205t186 104q184 23 287 -92q88 -100 77 -250q-12 -150 -112 -233q-13 -11 -25 -19q53 -33 115 -98q72 -78 96.5 -172t5 -181.5t-70.5 -162.5q-82 -119 -215 -176.5 t-279 -16.5q-86 23 -151.5 68t-103.5 101t-56.5 123t-16.5 132.5zM122.5 359.5q6.5 -74.5 33 -139t92 -118t158.5 -79.5q123 -33 238.5 16t186.5 151q45 68 61.5 143t-4 154.5t-81.5 145.5q-80 84 -145 106q-20 -6 -44 -8q0 -4 -2 -6q-12 -27 -41 -12q-33 16 -65 24 q-10 2 -18 4q-4 2 -9 2q-12 2 -24 2q-10 0 -23 3h-22h-6q-55 -4 -107 -33q-115 -66 -160 -213q-25 -68 -18.5 -142.5zM289.5 1047.5q-15.5 -97.5 25.5 -162.5q39 -59 119 -74q9 0 19 -2q121 6 163 0q49 8 89 29q10 6 20 4q78 68 88 186q8 125 -63 205q-80 90 -232 72 q-86 -10 -149.5 -85t-79 -172.5z" />
<glyph unicode="9" horiz-adv-x="835" d="M87 907.5q17 100.5 73 196.5q84 145 209 213q145 76 262 0q125 -80 182 -260t45 -387t-88 -379t-207 -236q-59 -29 -125.5 -35t-127 12.5t-112 54.5t-81 94.5t-29.5 129.5q0 31 31 31t31 -31q0 -68 36.5 -122t93 -79.5t124 -29.5t131.5 29q113 55 182 211.5t80 353.5 q2 30 2 61q-2 -4 -14.5 -21.5t-16.5 -22.5t-15.5 -21.5t-15.5 -22.5l-16 -20q-12 -14 -21.5 -21.5t-20.5 -19t-23.5 -19.5t-26.5 -14q-84 -47 -187.5 -53t-193.5 41q-102 63 -140 164.5t-21 202zM147.5 898q-14.5 -87 17.5 -170t116 -134q68 -39 156.5 -34t162.5 46 q37 20 61.5 47t62.5 82.5t50 71.5q9 10 21 12q-10 154 -61.5 272.5t-135.5 172.5q-88 57 -201 -2q-109 -57 -184 -189q-51 -88 -65.5 -175z" />
<glyph unicode=":" horiz-adv-x="204" d="M68 47.5q0 20.5 13 33.5t33.5 13t34 -13t13.5 -33.5t-13.5 -34t-34 -13.5t-33.5 13.5t-13 34zM70 620.5q0 20.5 13 34t33.5 13.5t34 -13.5t13.5 -34t-13.5 -34t-34 -13.5t-33.5 13.5t-13 34z" />
<glyph unicode=";" horiz-adv-x="186" d="M47 567.5q0 20.5 13.5 33.5t34 13t33.5 -13t13 -33.5t-13 -34t-33.5 -13.5t-34 13.5t-13.5 34zM54.5 138.5q20.5 22.5 43.5 2.5q61 -53 79 -135t-2.5 -159.5t-65.5 -135.5q-18 -25 -43 -6t-7 43q61 78 63.5 180.5t-65.5 167.5q-23 20 -2.5 42.5z" />
<glyph unicode="&#x3c;" horiz-adv-x="874" d="M45 508q6 23 33 33q8 2 11 2t5 2l189 90q442 211 553 338q20 23 42.5 2.5t2.5 -43.5q-121 -137 -574 -354l-184 -89q14 -10 39 -24q12 -8 92 -49q35 -16 79 -35t75 -29l90 -33q55 -18 82 -26q213 -76 321 -168q23 -18 3.5 -42t-44.5 -3q-98 82 -301 153l-82 29l-90 33 q-33 10 -79 28.5t-83 38.5q-80 41 -94 50q-37 20 -57 37q-12 10 -21 20q-14 20 -8 39z" />
<glyph unicode="=" horiz-adv-x="798" d="M25 690q0 12 10 20.5t22 8.5q106 -6 224 -7t266.5 2t224.5 3q31 0 31 -31t-31 -31q-74 0 -224.5 -3t-269 -2t-225.5 7q-12 0 -20 10.5t-8 22.5zM27 317.5q0 12.5 10 20.5t22 8q106 -6 224 -7t266.5 2t224.5 3q31 0 31 -30.5t-31 -30.5q-74 0 -224.5 -3.5t-269 -2 t-225.5 7.5q-12 0 -20 10t-8 22.5z" />
<glyph unicode="&#x3e;" horiz-adv-x="1032" d="M49 962.5q4 12.5 15.5 17.5t23.5 1q49 -18 117 -55q84 -47 106 -56q57 -27 176 -69q119 -41 183 -70q131 -59 223 -96l92 -39l21 -10l6 -6l8 -9q10 -16 -2 -32q-4 -8 -12 -13q-4 -2 -11 -6q-10 -4 -26 -12l-90 -37l-273 -106q-408 -164 -502 -242q-25 -20 -44 3.5t3 41.5 q102 88 519 254l274 106l68 27l-56 23q-106 43 -223 96q-63 29 -178 69q-121 43 -180 70q-29 14 -113 59q-68 37 -106 52q-12 4 -17.5 15t-1.5 23.5z" />
<glyph unicode="?" horiz-adv-x="645" d="M39 924q0 86 81 157.5t187 102.5q115 31 203 4q106 -35 133 -139q41 -162 -51 -275q-88 -106 -268 -131q-12 -2 -45 4v-4v-43q0 -27 4 -129q8 -207 4 -242q-2 -12 -12.5 -19t-22.5 -5t-20.5 11t-6.5 20q4 31 -4 233q-4 100 -4 131v47q0 10 2 17q2 12 8 18q16 25 60 20 q27 -4 28 -4q154 20 228 111q74 90 39 227q-18 74 -93 97q-70 23 -164 -3t-159.5 -84.5t-65.5 -121.5q0 -29 -30.5 -29t-30.5 29zM205 47.5q0 20.5 13 33.5t33.5 13t34 -13t13.5 -33.5t-13.5 -34t-34 -13.5t-33.5 13.5t-13 34z" />
<glyph unicode="@" horiz-adv-x="1191" d="M55 782q43 211 203 350.5t356 165.5q131 16 247 -21.5t206 -142t121 -264.5q12 -68 -3.5 -172t-54.5 -186q-49 -102 -118 -135q-88 -43 -189 29q-84 56 -92 165l-4 -6q-68 -133 -166 -194q-63 -39 -123 -31q-68 10 -121 82q-49 68 -53 160t27 180q31 86 84 156 q90 119 198 135q129 23 226 -109q35 -47 35 -135q-2 -96 4 -117q2 -12 -5.5 -22.5t-19.5 -14.5q-10 -2 -20 4q-2 -29 -2 -45q-2 -111 69 -159q70 -49 125 -23q51 23 90 105q35 76 48.5 170t2.5 151q-27 143 -105.5 235.5t-180 125t-217.5 18.5q-178 -25 -322.5 -150.5 t-183.5 -316.5q-37 -180 16 -342t172 -264q78 -70 173 -101.5t211 -20.5t231 73q53 29 79.5 45t58.5 46t46 62q14 29 42 15.5t15 -39.5q-20 -45 -61 -83t-68.5 -54.5t-83.5 -45.5q-125 -68 -253 -80t-235.5 24t-195.5 112q-131 115 -189.5 292t-19.5 373zM329.5 661.5 q-18.5 -118.5 37.5 -202.5q37 -51 79 -58q39 -6 82 23q84 51 146 170q41 84 51 199v22q0 10 1 14.5t3 8.5q2 6 8 10q15 12 33 6q-6 33 -20 53q-74 100 -166 86q-84 -14 -160 -113.5t-94.5 -218z" />
<glyph unicode="A" horiz-adv-x="706" d="M36 704v51v41q1 36 3 91t7 106t13 97q61 313 283 340q11 1 22 1q42 1 84 -17q54 -22 89 -64q63 -80 104 -265q35 -152 53 -376q25 -289 25 -693q0 -31 -31 -30.5t-31 30.5q0 299 -12 516q-90 0 -271 -7t-274 -7q2 -90 9.5 -257t9.5 -234q0 -12 -8.5 -21.5t-21.5 -9.5 t-22.5 8.5t-9.5 22.5q-2 70 -8 190.5t-9 223t-3 192.5q0 15 -1 71zM97 704q1 -58 1 -71v-53q92 0 273.5 7t269.5 7q-2 57 -8 108q-18 221 -51 369q-39 172 -95 238q-25 31 -63 47q-30 13 -59 13q-7 0 -15 -1q-178 -20 -229 -289q-8 -45 -13.5 -93t-7.5 -102t-3 -88v-40v-52z " />
<glyph unicode="B" horiz-adv-x="929" d="M43 1389q-2 12 5 23t20 13q20 4 30 -12q72 34 158 35q6 0 14 -1q94 -3 189 -40q104 -43 173.5 -116.5t69.5 -166.5q0 -143 -225 -276h12q194 0 316 -123q125 -127 127 -299q0 -84 -35 -163t-101.5 -142.5t-177.5 -104.5q-109 -39 -247 -43h-19q-110 0 -176 43 q-6 -25 -33 -22q-12 2 -20 12t-6 23l4 43q-12 20 4 37q10 119 10 262q0 157 -12 342q-25 2 -29 24q-2 12 5 23.5t20 13.5q-25 348 -76 615zM113 1350q45 -252 67 -562l29 9l24 8q113 39 209 94q199 117 199 225q0 68 -56.5 128.5t-148.5 97.5q-90 36 -178 36h-3 q-86 0 -140 -34q0 -2 -2 -2zM184 88q50 -53 170 -53h17q127 4 227 39t157.5 92t86 122.5t28.5 137.5q-2 152 -112 260q-102 100 -266 101q-14 0 -27 -1q-100 -3 -211 -38l-25 -9l-45 -16q12 -188 12 -346.5t-12 -288.5z" />
<glyph unicode="C" horiz-adv-x="849" d="M41 817q10 172 53 301q68 205 207 297q64 45 127 44q30 0 59 -9q76 -25 140 -115q90 -123 145 -325q2 -12 -4 -23.5t-18.5 -14.5t-23.5 3t-15 18q-49 193 -133 307q-53 72 -109 91q-20 7 -42 7q-45 0 -93 -32q-121 -82 -182 -268q-38 -121 -50 -285q-4 -62 -5 -118 q0 -93 12 -173q27 -199 112 -336q105 -166 264 -166h4q90 2 138.5 55.5t89.5 166.5q2 8 11 31.5t12 32.5t11.5 31.5t10.5 35.5l8 28q6 20 9 34t6 30t3 33q0 12 10.5 20t23 8t20.5 -10t8 -22l-4 -39q-2 -20 -8 -43l-11 -39q-4 -14 -13 -41t-12 -37t-14.5 -40t-13.5 -34 q-20 -59 -40.5 -98t-53.5 -80t-80 -61.5t-111 -22.5h-8q-190 0 -311 193q-94 150 -123 362q-11 80 -11 173q0 62 5 130z" />
<glyph unicode="D" horiz-adv-x="892" d="M51 1380q-4 12 1 23.5t18 15.5l6 2l8 4h4q58 18 117 18q164 0 340 -134q100 -78 182 -182.5t125 -204.5q39 -92 48 -213q3 -38 3 -73q0 -78 -14 -142q-43 -190 -182.5 -339t-325.5 -169q-33 -3 -87 -3h-29h-28q-53 0 -81 -3q-12 -2 -21.5 6t-11.5 22q-2 16 10 27 q18 169 18 364q1 141 -9 297q-22 370 -76 668q-10 6 -15 16zM125 1372q53 -294 76 -662q11 -169 11 -324q0 -181 -15 -343h69q72 0 107 4q166 18 290.5 152.5t163.5 306.5q15 65 15 143q0 27 -2 56q-10 111 -45 192q-39 94 -116 192.5t-171 170.5q-160 121 -305 121 q-39 0 -78 -9z" />
<glyph unicode="E" horiz-adv-x="751" d="M39 1082q2 54 14 106q45 168 146 233q57 39 121 38q40 0 83 -15q100 -39 169 -153.5t69 -260.5q0 -31 -30.5 -31t-30.5 31q0 129 -58.5 227.5t-140.5 131.5q-31 11 -60 11q-46 0 -88 -28q-80 -55 -118 -201q-16 -61 -15 -121q0 -64 30 -119q30 -54 85 -79q14 -8 51 -6h8 q37 29 76 49q43 18 72 20q23 2 37 -6q20 -12 24 -37q2 -23 -18 -41q-10 -8 -29 -16q-31 -12 -80 -22l-59 -7q-23 -16 -35 -34q-76 -88 -117 -201q-27 -79 -27 -153q0 -32 5 -64q20 -137 117 -213q89 -71 192 -71q11 0 21 1q117 3 191 101q60 79 59 216q0 32 -3 66 q-2 12 6.5 21.5t21.5 11.5t22.5 -6t11.5 -23q3 -34 3 -66q0 -160 -75 -258q-90 -116 -233 -124q-11 -1 -22 -1q-125 0 -232 85q-117 92 -142 252q-5 35 -5 69q0 85 31 173q44 124 126 220q-12 2 -23 7q-57 27 -93 73q-36 44 -48 102q-10 49 -10 97v15z" />
<glyph unicode="F" horiz-adv-x="688" d="M47 1413q2 12 12.5 20.5t22.5 6.5q88 -10 188 -12h53q81 0 178 4q130 4 195 4q31 0 31 -31t-31 -31q-61 0 -188 -4t-192.5 -4t-192.5 8q47 -254 70 -571q82 0 247.5 -1t251.5 -1q31 0 31 -31t-31 -31q-86 0 -251 1t-244 1q15 -208 15 -379q0 -194 -19 -342 q-2 -12 -12.5 -20t-23 -6t-20.5 12t-6 23q18 169 18 365q-1 149 -11 314q-24 382 -79 676q-14 10 -12 29z" />
<glyph unicode="G" horiz-adv-x="862" d="M29 547q-2 37 -2 76q0 113 17 237q24 166 77 293q86 205 229 287q59 34 116 34q38 0 75 -16q72 -31 129 -125q74 -123 118 -338q2 -12 -5 -22t-19 -13.5t-22.5 4t-14.5 19.5q-43 205 -111 317q-47 78 -102 103q-22 10 -47 10q-41 0 -88 -27q-123 -72 -201 -258 q-49 -119 -74 -276q-17 -114 -17 -219q0 -42 3 -82q10 -205 86 -348q94 -176 256 -187q9 -1 19 -1q76 0 122 46q49 49 103 162q76 162 88 234q-63 -31 -110 -38q-14 -2 -27 -2q-30 0 -54 11q-41 18 -61 66q-4 12 1 24t16.5 16.5t23.5 -1t16 -15.5q10 -27 28.5 -35t47.5 -4 q41 6 119 47l4 4q8 6 10 9q10 8 21 10q23 4 37 -12q6 -8 10 -21q2 -6 2 -14q2 -14 2 -37v-57q0 -41 2 -79t10 -86t11.5 -72t15.5 -86t16 -79q2 -12 -5 -23.5t-19.5 -13.5t-23.5 5.5t-13 19.5q-47 256 -53 338q-14 -41 -58 -133q-27 -57 -49 -94t-58 -77t-85 -58 q-40 -16 -91 -16q-11 0 -22 1q-197 12 -305 219q-82 158 -94 373z" />
<glyph unicode="H" horiz-adv-x="792" d="M59 1391q0 31 31 30.5t31 -30.5q0 -90 7 -257t9 -210q2 -63 2 -140h4q96 0 291 11q195 12 293 12q0 61 -2 117q-2 41 -9 208.5t-7 258.5q0 31 30.5 30.5t30.5 -30.5q0 -90 7 -257t9 -210q3 -90 3 -322v-124v-54q0 -288 10 -391q0 -12 -8.5 -22.5t-20.5 -10.5t-22.5 8 t-10.5 21q-6 105 -8 219q-1 76 -1 173v103v97q0 85 -1 124q-96 0 -289 -10q-231 -12 -295 -12h-4q1 -38 1 -100v-69q-1 -112 -1 -180.5t3 -164.5t8 -176q0 -12 -8.5 -22.5t-20.5 -10.5t-22.5 8t-10.5 21q-9 153 -9 398v49v108q0 206 -3 340q-2 41 -9.5 208.5t-7.5 258.5z " />
<glyph unicode="I" horiz-adv-x="182" d="M70 1391q0 31 30.5 31t30.5 -31q0 -90 7 -257t9 -210q4 -100 3 -375v-71v-31q0 -307 10 -414q0 -12 -8.5 -22.5t-20.5 -10.5t-22.5 8t-10.5 21q-9 153 -9 398v49v108q0 206 -3 340q-2 41 -9 208.5t-7 258.5z" />
<glyph unicode="J" horiz-adv-x="704" d="M16 449q-2 12 6.5 21t21.5 11t22.5 -6t11.5 -22q2 -25 4 -72q0 -59 2 -74q4 -86 25 -129q37 -78 96 -114q50 -30 105 -30q9 0 18 1q65 6 120.5 52t83.5 126q27 77 27 188q0 51 -6 109q-6 49 -23 156q-16 111 -20 155q-2 14 -11.5 118.5t-12.5 143.5t-6 116q-2 46 -2 86 q0 26 1 50h-10q-44 -2 -82 -2q-150 0 -225 25q-10 4 -16.5 15t-2.5 22.5t15.5 17.5t23.5 2q62 -20 191 -20q43 0 94 2q41 2 152.5 8t156.5 6q12 0 21.5 -9t9.5 -21.5t-9.5 -21.5t-21.5 -9q-31 0 -235 -11q0 -72 -1 -101v-12q0 -30 4 -90q5 -73 7 -104l12 -102q6 -74 8 -105 q4 -49 21 -149q16 -109 22 -160q6 -62 6 -116q0 -120 -30 -207q-33 -96 -102.5 -153.5t-153.5 -65.5q-13 -2 -26 -2q-70 0 -134 39q-76 46 -123 143q-25 53 -28 149q-2 16 -3 76q-2 45 -4 70z" />
<glyph unicode="K" horiz-adv-x="776" d="M43 1386q0 31 30.5 31t30.5 -31q0 -90 8 -256.5t9 -209.5q0 -33 2 -68q14 8 35 16l20 9q129 100 230.5 252.5t101.5 283.5q0 31 30.5 31t30.5 -31q0 -121 -74.5 -254t-183.5 -244q15 1 30 1q109 0 208 -78q139 -117 199 -389q29 -138 29 -261q0 -94 -17 -180 q-4 -12 -14.5 -19t-22.5 -4t-19.5 13t-5.5 22q16 78 16 166q0 116 -28 248q-53 254 -178 354q-81 67 -168 67q-32 0 -66 -9q-27 -8 -67 -25l-6 -4q-2 0 -8 -8q-12 -10 -19 -16l-22 -17q-16 -8 -31 -8q1 -91 2 -170q0 -40 -1 -76v-76q0 -78 1 -170q2 -136 8 -247 q0 -12 -8 -22.5t-20.5 -10.5t-22.5 8t-10 21q-10 160 -10 421v26q0 31 1 61q0 237 -4 387q-2 41 -9 208.5t-7 257.5z" />
<glyph unicode="L" horiz-adv-x="720" d="M41 1391q0 31 30.5 31t30.5 -31q0 -90 8 -257t9 -210q3 -95 4 -312q0 -54 -1 -116v-67q0 -256 7 -361q129 -7 245 -7q193 0 351 19q12 2 22.5 -6t12.5 -20.5t-6.5 -23t-20.5 -12.5q-153 -19 -338 -19q-129 0 -274 9q-8 -8 -19 -8q-12 0 -22 8t-10 21q-10 160 -10 421v26 q0 31 1 61q0 237 -4 387q-2 41 -9 208.5t-7 258.5z" />
<glyph unicode="M" horiz-adv-x="1011" d="M61 1380q0 31 31 31t31 -31q0 -63 2 -139q29 49 63 86q62 66 130 66h8q84 -2 141 -105q27 -47 47 -121q49 131 137 201q56 44 110 44q14 0 27 -3q74 -18 125 -127q31 -66 50.5 -147.5t26.5 -183t9 -169.5q1 -46 1 -113v-73q-1 -117 -1 -152q0 -23 9 -204q3 -66 3 -118.5 t-3 -92.5q-2 -12 -11.5 -20.5t-21.5 -7.5t-20.5 10t-8.5 22q3 37 3 88t-3 115q-8 184 -8 208q0 39 1 155v72q0 67 -1 111q-2 66 -9 162t-24.5 174t-48.5 139q-37 80 -84 91q-8 2 -16 2q-31 0 -67 -29q-46 -37 -85 -104.5t-49 -126.5q-7 -35 -7 -96q0 -41 3 -93q0 -6 -2 -10 q2 -23 2 -43q4 -76 4 -161t-1 -178t-1 -124q0 -12 -9 -21.5t-21.5 -9.5t-21.5 9.5t-9 21.5q0 31 1 123t1 176t-5 160q-12 303 -75 416q-41 70 -90 71h-3q-42 0 -90 -47q-39 -41 -66.5 -103.5t-31.5 -121.5q4 -86 6 -146q3 -75 2 -248v-198q0 -332 11 -444q0 -12 -8.5 -22.5 t-20.5 -10.5t-22.5 8t-10.5 20q-9 153 -9 398v50v107q0 206 -3 340q-2 39 -4 91v2q-4 25 -2 53q-10 227 -11 321z" />
<glyph unicode="N" horiz-adv-x="718" d="M49 1395q0 31 31 30.5t31 -30.5q0 -74 4 -170q66 117 168 172q60 33 116 33q23 0 45 -5q88 -20 150 -116q86 -141 104 -424q6 -94 7 -258q2 -164 2 -176q0 -45 8 -138.5t9 -144.5q0 -7 1 -15q0 -49 -6 -130q-2 -12 -12.5 -20.5t-22.5 -6.5t-20.5 12t-6.5 23q6 83 6 130 q-1 4 -1 7q0 47 -7.5 138t-9.5 145q0 12 -1 174.5t-5 255.5q-18 266 -98 395q-45 76 -109 90q-14 3 -29 3q-43 0 -92 -26q-61 -33 -111 -99t-67 -138q-8 -31 -10 -68q2 -55 4 -98l2 -25q0 -6 -2 -10q3 -80 3 -310v-125v-59q0 -285 9 -374q0 -12 -8 -22.5t-20.5 -10.5 t-22.5 8t-10 21q-9 153 -9 398v49v108q0 206 -3 340v8q-5 47 -5 83v19q-12 272 -12 357z" />
<glyph unicode="O" horiz-adv-x="811" d="M25 770q16 301 120 492q106 200 271 200q24 0 49 -4q45 -8 94 -47q14 -10 37 -31l33 -26q25 -18 6 -43q-6 -9 -14 -11q111 -111 163 -280q43 -142 43 -299q0 -153 -41 -320q-51 -203 -139 -315q-103 -131 -253 -131q-31 0 -64 6q-164 31 -248 289q-60 183 -60 412 q0 53 3 108zM86 766q-3 -53 -3 -104q0 -219 56 -394q74 -223 203 -245q28 -5 54 -6q118 0 202 108q82 100 127 293q40 160 40 305.5t-40 277.5q-92 307 -377 385q-86 -35 -149 -153q-96 -178 -113 -467z" />
<glyph unicode="P" horiz-adv-x="679" d="M41 1391q0 31 30.5 30.5t30.5 -30.5v-50q72 70 164 82q17 2 35 2q97 0 193 -67q106 -74 160 -202q31 -74 30 -148q0 -54 -16 -107q-27 -92 -109 -152.5t-180 -74.5q-30 -4 -57 -4q-123 0 -201 84q1 -89 1 -166v-74.5t-1 -74.5q0 -77 2 -165q2 -132 8 -241q0 -12 -8 -22.5 t-20.5 -10.5t-22.5 8t-10 21q-10 160 -10 421v26q0 31 1 61q0 237 -4 387q-2 57 -7 166.5t-7 158.5v11q-2 72 -2 131zM104 1247q2 -47 7.5 -155.5t7.5 -167.5q0 -25 2 -52l4 -8q27 -76 95 -108q49 -24 107 -24q21 0 44 3q84 10 150.5 60.5t88.5 122.5q12 43 12 86 q0 64 -27 130q-46 110 -138 174q-78 55 -156 56q-14 0 -29 -2q-98 -12 -168 -115z" />
<glyph unicode="Q" horiz-adv-x="837" d="M51 770q16 301 121 492q106 200 271 200q24 0 49 -4q45 -8 94 -47q14 -10 37 -31l32 -26q25 -18 7 -43q-6 -8 -15 -11q111 -111 164 -280q43 -142 43 -299q0 -153 -41 -320q-35 -139 -88 -237q94 -92 209 -131q12 -4 17 -15.5t1 -23.5t-15 -17.5t-24 -1.5 q-121 42 -221 136q-10 -12 -18 -25q-103 -131 -253 -131q-32 0 -65 6q-164 31 -247 289q-61 185 -61 417q0 51 3 103zM113 766q-3 -53 -3 -104q0 -219 56 -394q74 -223 203 -245q28 -5 54 -5q118 0 202 107q12 15 22 31q-53 61 -96 141q-14 27 12.5 41t40.5 -12 q33 -63 76 -113q43 84 72 205q40 160 40 305.5t-40 277.5q-92 307 -377 385q-86 -35 -150 -153q-96 -178 -112 -467z" />
<glyph unicode="R" horiz-adv-x="837" d="M66 1389q0 31 30.5 30.5t30.5 -30.5v-50q51 43 135 62q53 10 102 11q107 0 193 -50q125 -72 152 -195q7 -30 7 -57q0 -93 -75 -164q-31 -33 -76 -55q193 -84 250 -377q8 -49 14.5 -98t8.5 -112.5t2 -92.5v-105v-79q0 -31 -31 -31t-31 31v79v105q0 27 -2 88t-8 109.5 t-14 93.5q-53 274 -230 340q-27 10 -57 14q-63 -16 -141 -20h-28q-40 0 -69 4q-19 -2 -36 -2q-26 0 -48 4v-350q0 -301 11 -461q0 -12 -8.5 -22.5t-20.5 -10.5t-22.5 8t-10.5 21q-9 153 -9 398v49v108q0 206 -3 340q-2 41 -9 208.5t-7 258.5zM129 1251q2 -49 7 -151.5 t7 -151.5q0 -2 2 -2q33 -35 88 -45q16 2 95 10q57 9 99 9q19 0 36 -2q86 25 135 71q56 54 56 123q0 20 -5 41q-23 97 -125 157q-67 40 -155 40q-45 0 -95 -11q-94 -18 -131 -75q-6 -8 -14 -13z" />
<glyph unicode="S" horiz-adv-x="739" d="M45 639q0 31 30.5 31t30.5 -31q0 -188 27 -322.5t113 -230.5q40 -44 106 -64q44 -14 88 -13q24 -1 46 3q68 10 114.5 49t54.5 103q11 66 11 124v8q0 53 -6 98q-6 48 -22.5 94.5t-35 82t-47.5 75.5t-57 71l-68 69l-70 70q-35 33 -77 78l-80 84q-2 2 -17.5 18.5t-21.5 24.5 l-21 22q-12 16 -18 27.5t-12.5 29t-10.5 36.5q-5 30 -5 57q0 91 59 147q68 66 182 66q106 -2 206.5 -60.5t137.5 -156.5q4 -10 -1 -22.5t-16.5 -16.5t-23.5 1t-16 17q-29 78 -113 126t-174 50q-90 0 -139 -47q-39 -40 -39 -108q0 -21 4 -45q2 -10 8 -23l8 -18 q2 -8 13.5 -22.5t15.5 -18.5l20 -21q16 -18 19 -22l78 -80l75 -76l74 -72l70 -73q29 -33 59.5 -76t51 -83t38 -90t25.5 -102.5t8 -115.5t-10 -135q-12 -88 -74.5 -139.5t-148.5 -63.5q-27 -4 -54 -4q-53 -1 -107 15q-81 24 -132 81q-53 59 -87 132t-47.5 158t-17.5 148.5 t-4 155.5z" />
<glyph unicode="T" horiz-adv-x="976" d="M26 1378.5q0 30.5 31 30.5q172 0 518.5 -3t518.5 -3q31 0 30.5 -31t-30.5 -31q-172 0 -512 2q0 -84 7.5 -244.5t6.5 -191.5q3 -77 3 -246q0 -85 -1 -193v-102q0 -240 8 -335q0 -12 -8 -22.5t-20.5 -10.5t-22.5 8t-10 21q-8 137 -8 351v89q1 92 1 172q0 159 -3 268 q0 29 -7.5 191t-7.5 248q-293 2 -463 2q-31 0 -31 30.5z" />
<glyph unicode="U" horiz-adv-x="696" d="M47 668q-1 61 -1 129q0 137 5 307q10 268 10 299t31 31t31 -31t-10 -297q-5 -171 -5 -308q0 -68 1 -128q4 -246 34 -396q35 -176 101 -225q58 -44 114 -44q49 0 97 34q88 66 137 203q37 111 51 557q5 154 5 271q0 218 -17 308q-2 12 5 23.5t19.5 13.5t23.5 -5t13 -19 q18 -97 18 -324q0 -118 -5 -270q-14 -457 -56 -576q-53 -156 -160 -231q-65 -47 -132 -47q-74 0 -150 57q-86 63 -125 262q-29 152 -35 406z" />
<glyph unicode="V" horiz-adv-x="675" d="M31 1397q0 14 8 23.5t21.5 9.5t22.5 -8.5t9 -20.5q2 -41 7 -82t20 -94l20 -78q6 -27 27 -94l24 -82l175 -613q37 -131 71 -292q12 29 25 77q10 43 26.5 127t22.5 113q27 102 121 559l28 119q18 84 27.5 132t19 116.5t9.5 124.5q0 31 30.5 30.5t30.5 -30.5q0 -59 -9 -131 t-19.5 -122.5t-30 -134t-25.5 -116.5q-96 -459 -121 -563q-8 -27 -24.5 -111t-26.5 -127q-18 -72 -35 -106q-12 -25 -26 -37q-23 -23 -51 -11q-25 10 -27 43q-2 8 -1 14.5t-1 6.5q-35 170 -72 303l-174 612q-4 12 -24.5 79t-28.5 95.5t-21.5 84t-19.5 99.5t-8 85z" />
<glyph unicode="W" horiz-adv-x="968" d="M54 975q1 115 5 251t4 166.5t31 30.5t31 -30.5t-4 -165.5t-5 -250v-48q0 -101 3 -241q8 -246 37 -393q33 -170 88 -201q38 -20 67 -20q24 0 43 14q37 29 62 115q12 49 20 110.5t12.5 126t6.5 84.5q18 139 20 191v39v8v4v2q0 2 2 6q0 4 8.5 12.5t22.5 8.5q12 0 20 -11 q4 -4 7 -10q2 -2 2 -4v-2v-2v-2v-6v-4v-23v-24q-1 -62 -1 -116q0 -163 13 -263q18 -135 61 -205q42 -70 108 -71q5 0 11 1q23 2 51.5 21.5t44.5 42.5q97 144 97 515q0 48 -2 99q-6 184 -32 365.5t-59 298.5q-4 12 2.5 23.5t18.5 14.5t23.5 -3.5t13.5 -18.5 q35 -121 61.5 -306t32.5 -372q1 -49 2 -95q0 -396 -109 -554q-20 -33 -61 -61.5t-80 -30.5q-8 -1 -15 -1q-100 0 -161 99q-43 72 -63 193q-8 -53 -19 -97q-29 -106 -84 -147q-35 -26 -78 -26q-45 0 -98 28q-82 43 -121 242q-29 152 -37 403q-3 139 -3 241v48z" />
<glyph unicode="X" horiz-adv-x="778" d="M18 33q45 119 101 241l135 295q80 174 106 236q-184 389 -282 579q-14 27 12.5 41.5t40.5 -12.5q98 -188 264 -534l23 53q20 45 98 237q66 160 105 240q12 27 39.5 13.5t13.5 -42.5q-43 -88 -103 -233q-76 -193 -96 -240l-45 -102l39 -84q207 -432 346 -682 q14 -27 -12.5 -41t-40.5 12q-141 250 -348 686l-19 35l-80 -174l-86 -188l-77 -168q-43 -102 -76 -189q-4 -12 -16.5 -17t-23.5 -1t-16.5 16.5t-1.5 22.5z" />
<glyph unicode="Y" horiz-adv-x="532" d="M74 997q-12 101 -12 208t12 220q2 12 11 20.5t22.5 6.5t21.5 -11.5t6 -23.5q-13 -116 -13 -223q0 -99 11 -190q33 -268 152 -334q37 -20 63 -20q13 0 23 5q127 55 139 332q2 35 2 72q0 154 -33 350q-2 12 5.5 22.5t20.5 12.5t23.5 -5t12.5 -22q32 -192 32 -351 q0 -43 -2 -83q-16 -313 -176 -385l-16 -4q15 -254 15 -450q0 -59 -1 -113q0 -14 -9 -22.5t-22.5 -8.5t-21.5 9t-8 22q1 52 1 108q0 198 -16 455q-33 6 -61 22q-145 80 -182 381z" />
<glyph unicode="Z" horiz-adv-x="921" d="M16 45q141 455 572 1028l41 55q29 39 47 60l43 55q27 33 51 59.5t51 49.5h-671q-31 0 -31 30.5t31 30.5h755q10 4 23 0q27 -4 26 -31q0 -31 -30 -30h-2q-33 -23 -63 -48.5t-64 -66.5l-50 -57q-16 -18 -58 -75.5t-50 -68.5q-401 -526 -549 -966q115 0 360.5 1t374.5 1 q31 0 31 -31t-31 -31q-129 0 -385 -1t-383 -1q-8 -4 -18 0q-12 4 -18.5 15.5t-2.5 21.5z" />
<glyph unicode="[" horiz-adv-x="245" d="M45 1266q0 55 6 88q6 20 29 30q12 4 33 9q27 4 75 4q29 0 78 -2h47q12 0 22.5 -8.5t10.5 -20.5t-8.5 -22.5t-20.5 -10.5h-53q-49 2 -76 2q-43 0 -67 -4q-6 0 -10 -2q-4 -23 -5 -61q2 -8 3.5 -38t1.5 -42q0 -227 28 -647q2 -45 3 -91.5t-1 -97.5l-6 -86q-2 -35 -6 -98 l-8 -88q-4 -63 -6 -215q0 -84 2 -135q2 -29 4 -45h12q25 -2 66 0q18 0 44.5 1t45 2t24.5 1q31 0 31 -31t-31 -31q-6 0 -23.5 -1t-44 -2t-44.5 -1q-43 -2 -70 0h-25q-8 2 -12 4q-10 2 -16 8q-8 8 -12 23q-2 6 -5 18q-4 18 -6 50q-2 53 -2 139q2 156 6 219q2 29 7.5 90.5 t7.5 95.5l6 82q2 51 2 95.5t-4 89.5q-29 422 -29 651q0 12 -1 40.5t-3 37.5z" />
<glyph unicode="\" horiz-adv-x="419" d="M-59 1358q-12 27 15.5 40t41.5 -16q23 -47 72 -137q51 -96 73 -143q70 -150 168 -408q139 -362 158 -409q16 -41 33 -115q16 -78 28 -109q4 -12 -1 -23t-17 -15.5t-23.5 1t-15.5 17.5q-10 33 -31 115q-16 70 -30 104q-41 100 -158 412q-98 262 -168 405q-20 45 -72 137 q-49 92 -73 144z" />
<glyph unicode="]" horiz-adv-x="286" d="M-43 -309.5q0 30.5 31 30.5q8 0 45 -2q31 -2 51 -2q29 0 45 4q12 4 16 9q0 2 2 8q0 12 3 33q2 37 2 100q2 25 2 104v66q18 260 47 909q10 213 22 348q0 4 2 17q2 10 4 18h-12h-86h-145q-12 0 -20.5 10.5t-8.5 22.5t10.5 20.5t22.5 8.5h141h86h31q6 -2 10 -2h6q8 -2 15 -9 q12 -12 14 -34q0 -10 -2 -27q-2 -8 -4 -20l-2 -9q-12 -135 -23 -348q-29 -647 -47 -909v-62q0 -80 -2 -106q0 -63 -2 -102q-2 -23 -4 -39q-2 -20 -8 -31q-16 -25 -54 -35q-25 -6 -61 -6q-20 0 -57 2t-39 2q-31 0 -31 30.5z" />
<glyph unicode="^" horiz-adv-x="579" d="M68 713q209 367 233 663q2 12 11.5 20.5t21.5 8.5q12 -2 20 -10.5t8 -20.5q27 -117 81.5 -234.5t131 -258t117.5 -228.5q12 -29 -16.5 -41t-40.5 17q-31 68 -140.5 273.5t-152.5 326.5q-53 -252 -221 -545q-14 -27 -41 -12.5t-12 41.5z" />
<glyph unicode="_" horiz-adv-x="980" d="M-33 -191.5q0 13.5 8.5 22.5t20.5 9q111 4 508 -4q324 -6 500 17q12 2 22 -6.5t12 -20.5t-6 -22.5t-20 -12.5q-180 -23 -508 -16q-397 8 -504 4q-14 0 -23.5 8t-9.5 21.5z" />
<glyph unicode="`" horiz-adv-x="243" d="M10 1440q-20 23 2.5 43.5t42.5 -2.5q23 -25 56 -68q33 -45 60.5 -74.5t57.5 -52.5q27 -16 9.5 -41.5t-41.5 -7.5q-37 25 -69 58.5t-69 80.5z" />
<glyph unicode="a" horiz-adv-x="636" d="M74 295q35 82 118 133q82 52 178 64q28 4 54 4q63 0 113 -23q25 -10 43 -27q-2 43 -11 76q-23 96 -92 119q-24 8 -54 8q-83 0 -212 -59q-29 -12 -41.5 16.5t16.5 40.5q141 63 239 63q39 0 71 -10q102 -33 133 -163q14 -59 14 -154q0 -89 -12 -209q10 -14 4 -31l-8 -16 q-8 -72 -11 -107q0 -12 -10 -20t-22.5 -8t-20.5 10t-8 22.5t2 24.5q-59 -43 -139 -59q-41 -8 -80 -7q-38 0 -74 7q-119 18 -174 94q-39 49 -39 110q0 47 23 101zM131 270q-17 -41 -17 -75q0 -42 25 -74q41 -55 135 -72q30 -5 59 -4q56 1 111 17q84 26 121 83q12 125 17 183 q-9 8 -11 18q-6 49 -59 72q-37 16 -86 16q-23 0 -49 -4q-82 -10 -150.5 -53t-95.5 -107z" />
<glyph unicode="b" horiz-adv-x="614" d="M55 952q2 14 11.5 22.5t22.5 6.5t21.5 -11.5t6.5 -21.5q-1 -9 -1 -19q0 -21 3 -48q6 -61 6 -76q0 -29 3 -98.5t3 -106.5q57 53 148 68q26 4 51 3q58 -1 116 -19q82 -28 125 -97q57 -95 61 -207v-13q0 -103 -54 -195q-58 -96 -166 -138q-51 -20 -97 -20q-55 0 -102 28 q-37 23 -70 70l-12 18q-6 -59 -12 -102q-2 -14 -12.5 -21.5t-23.5 -5.5t-20.5 12.5t-5.5 22.5q10 57 14.5 132t4.5 178.5t-1 163t-6.5 185t-5.5 142.5q0 12 -6 69q-3 31 -3 56q0 12 1 22zM135 197l8 -9l27 -36q16 -29 23 -37q27 -35 53 -52q32 -20 71 -20q34 0 74 16 q131 51 168 195q12 46 12 91q0 93 -53 177q-32 50 -96 72q-44 15 -90 15q-22 0 -44 -3q-70 -10 -113 -49q-38 -36 -38 -86v-10q0 -6 -2 -10q2 -74 2 -137.5t-2 -116.5z" />
<glyph unicode="c" horiz-adv-x="647" d="M49 434q16 94 78.5 168t144.5 103q41 13 80 13q46 0 90 -18q82 -34 131 -137q12 -27 -15.5 -40t-41.5 16q-38 81 -98 105q-32 13 -64 12q-30 0 -62 -10q-66 -22 -117.5 -83t-63.5 -141q-10 -57 -10 -107q0 -96 36 -170q47 -98 182 -118q29 -4 56 -5q95 0 157 56 q10 10 18.5 20.5t14.5 26.5l10 25q2 8 11 34l10 31q2 12 13.5 18.5t23.5 3t18 -14.5t2 -23q0 -6 -8 -32t-12 -37t-12.5 -31.5t-20.5 -37t-27 -28.5q-49 -45 -119 -61q-44 -10 -90 -11q-27 0 -55 4q-74 12 -135 51t-94 105q-41 86 -41 198q0 54 10 115z" />
<glyph unicode="d" horiz-adv-x="688" d="M82 483q39 127 137 191q74 46 155 46q29 0 59 -6q114 -22 192 -124q-4 164 -4 414q0 31 30.5 30.5t30.5 -30.5q0 -342 10 -555q10 -45 23 -156q4 -52 4 -114v-42q-2 -37 -6 -61q-2 -14 -4 -23q-2 -6 -7 -12q-12 -18 -32 -14q-18 4 -29 20q-57 -59 -133 -78q-36 -9 -71 -9 l-167 48q-119 66 -178 197q-31 71 -31 147q0 64 21 131zM139 463q-17 -55 -17 -107q0 -66 28 -128q50 -110 149 -167q71 -39 139 -39q28 0 56 7q98 25 151 131q0 41 -6 131l-8 149q-12 45 -33 78q-58 102 -154 131q-34 10 -68 10q-59 -1 -115 -33q-87 -52 -122 -163z" />
<glyph unicode="e" horiz-adv-x="641" d="M51 455q23 96 85.5 167.5t144.5 96.5q40 14 79 14q40 0 78 -15q76 -30 125 -116q31 -44 32 -86q0 -35 -22 -70q-35 -57 -135 -108q-133 -70 -315 -109q47 -119 162 -166q44 -19 87 -19q47 0 94 22q89 42 132 176q2 12 13.5 18t23.5 3t18 -14t2 -22q-47 -160 -161 -213 q-60 -28 -122 -28q-56 0 -112 23q-120 48 -182 171q-40 79 -40 170q0 50 13 105zM106 274q174 37 304 107q84 45 110 92q13 21 13 43q0 16 -7 31q-4 4 -8 10q-2 6 -6 14l-2 2q-4 4 -4 9q-38 68 -96 88q-29 10 -56.5 10t-54.5 -10q-63 -23 -115 -86q-52 -62 -72 -147 q-11 -49 -12 -97q0 -33 6 -66z" />
<glyph unicode="f" horiz-adv-x="509" d="M39 344q0 31 33 31h47q-4 90 -4 162v42q0 163 14 261q12 68 29 108q25 53 67 64q25 5 49 5q68 0 121 -42q59 -49 82 -139q11 -42 11 -89q0 -38 -7 -78q-16 -91 -67 -141q-25 -20 -47.5 1t0.5 44q37 35 49 107q6 31 6 61q0 40 -10 80q-16 72 -62 107q-31 27 -71 27 q-18 0 -37 -5q-10 -2 -23 -28q-14 -31 -22 -91q-17 -100 -17 -274v-20q0 -72 4 -162h78q33 0 33 -31t-33 -31h-76q2 -53 7.5 -124.5t7.5 -115.5t2 -65q0 -31 -34 -31t-34 31q0 20 -2 64.5t-6 116t-6 124.5h-49q-33 0 -33 31z" />
<glyph unicode="g" horiz-adv-x="634" d="M63 -143q0 31 31 30.5t31 -30.5q0 -70 49 -122t124 -71q35 -10 68 -10q39 0 76 12q68 23 103 84q49 89 49 232v22q-2 37 -6 84q-80 -94 -186 -108q-19 -3 -39 -3q-82 0 -148 50q-104 70 -141 201q-15 51 -15 107q0 88 35 187q39 94 114 156.5t159 75.5q20 3 40 3 q100 0 166 -79q2 20 2 41q0 12 10.5 20.5t23 8.5t20.5 -10.5t8 -22.5q-4 -70 -4 -152v-4q4 -10 0 -20q-1 -33 -1 -72q0 -79 3 -184q0 -31 4 -70q18 -14 6 -37l-2 -6l2 -20q8 -96 10 -144v-21q0 -162 -57 -264q-47 -84 -135 -113q-48 -15 -98 -15q-41 0 -83 11 q-92 23 -155.5 90.5t-63.5 162.5zM119 322q6 -84 41 -145.5t90 -98.5q51 -35 106 -39h12q51 0 106 31q61 36 106 112q-6 61 -7 101q-3 111 -3 195q0 42 1 77q-27 80 -79 113q-40 26 -87 26q-14 0 -28 -2q-68 -8 -130.5 -60t-94.5 -134q-34 -80 -34 -153q0 -12 1 -23z" />
<glyph unicode="h" horiz-adv-x="614" d="M37 31q0 104 7 315t7 316q0 31 -4 165q-2 56 -2 98.5t2 69.5q0 12 10.5 20.5t22.5 8.5t20.5 -10.5t8.5 -22.5q-2 -32 -2 -72.5t2 -91.5q4 -133 4 -165v-54q51 55 118 88q59 31 133 31t130 -45q96 -78 120 -326q8 -79 9 -146q0 -120 -27 -204q-4 -10 -15.5 -16t-22.5 -2 t-17 15t-2 24q24 75 24 185q0 63 -8 138q-23 221 -98 283q-42 33 -95 33q-48 0 -104 -27q-53 -25 -93 -66t-54 -84q-12 -432 -13 -458q0 -31 -30.5 -31t-30.5 31z" />
<glyph unicode="i" horiz-adv-x="133" d="M61 476q0 81 11 231q2 12 11 20t22.5 6t21.5 -11.5t6 -23.5q-10 -145 -10 -223t6 -230.5t6 -230.5q0 -31 -30.5 -30.5t-30.5 30.5q0 74 -6.5 227.5t-6.5 234.5zM78 839.5q0 30.5 30.5 30.5t30.5 -30.5t-30.5 -30.5t-30.5 30.5z" />
<glyph unicode="j" horiz-adv-x="147" d="M-170 -354q-20 23 1.5 44t43.5 1q25 -27 41 -33t49 2q88 18 107 135q4 33 4 69t-2 83t-2 65v2q0 74 -6.5 227.5t-6.5 234.5t11 231q2 12 11 20t22.5 6t21.5 -11t6 -24q-10 -145 -10 -222t6 -228.5t6 -229.5q0 -16 2 -64t2 -90t-6 -79q-23 -156 -154 -186q-22 -5 -41 -5 q-23 0 -40 7q-29 10 -66 45zM76 839.5q0 30.5 30.5 30.5t30.5 -30.5t-30.5 -30.5t-30.5 30.5z" />
<glyph unicode="k" horiz-adv-x="579" d="M66 504q-2 87 -2 165q0 182 10 314q2 12 11 20.5t21.5 7.5t20.5 -10.5t8 -21.5q-10 -129 -10 -309q0 -77 2 -164q0 -27 2 -57q27 20 66 32q27 14 57 35q53 33 93 89.5t40 105.5q0 31 30.5 30.5t30.5 -30.5q0 -111 -118 -215q102 -4 155 -64q41 -49 66 -168q0 -6 7 -38.5 t8 -40t7.5 -40t5 -40t2 -42t-0.5 -43.5q0 -12 -10.5 -20t-23 -8t-20.5 10t-8 23v15q0 66 -29 212q-20 104 -51 139q-37 43 -123 43h-8q-53 -2 -88 -10l-33 -16q0 -2 -22 -15l-12 -6q-4 -2 -7 -4h-12q6 -250 6 -354q0 -31 -30.5 -31t-30.5 31q0 20 -10 475z" />
<glyph unicode="l" horiz-adv-x="126" d="M37 897q0 31 6 92q2 12 12.5 20.5t22.5 6.5t20 -12.5t6 -22.5q-6 -57 -6 -84t4 -86t4 -92v-688q0 -31 -30.5 -31t-30.5 31v688q0 25 -4 86t-4 92z" />
<glyph unicode="m" horiz-adv-x="901" d="M48 480q3 84 15 151q6 27 33 24q43 45 113 60q30 7 60 7q31 0 63 -8q62 -14 98 -61q6 -8 12 -18q49 82 164 96q17 2 33 2q51 -1 99 -19q64 -24 96 -79q49 -88 63 -299q3 -66 3 -142.5t-3 -164.5q0 -12 -9 -20.5t-22.5 -8.5t-21.5 9t-8 24q3 86 3 160.5t-3 138.5 q-12 197 -56 270q-20 38 -67 56q-35 14 -75 13q-14 0 -26 -1q-54 -6 -89.5 -35t-41.5 -72l-4 -12q20 -78 29 -201q3 -50 3 -115q0 -87 -5 -200q0 -12 -9.5 -20.5t-22.5 -8.5t-21.5 9.5t-8.5 23.5q5 111 5 196q0 63 -3 111q-12 205 -63 270q-23 30 -67 40q-22 5 -45 5 q-23 1 -46 -5q-47 -10 -75.5 -36t-28.5 -59q0 -10 -6 -18q-3 -37 -3 -87q0 -76 7 -182q12 -176 12 -237q0 -31 -30.5 -31t-30.5 31q0 55 -7 141l-12 152q-2 38 -2 81q0 33 1 69z" />
<glyph unicode="n" horiz-adv-x="540" d="M38 474q3 84 15 151q4 12 15 20q41 70 149 92q28 7 60 6q34 0 71 -7q72 -15 113 -60q70 -78 84 -316q4 -64 4 -146.5t-4 -184.5q0 -12 -9.5 -20.5t-22.5 -8.5t-21.5 9t-8.5 24q4 102 4 183t-4 140q-12 217 -67 279q-29 31 -81 42q-25 5 -50 5q-28 0 -56 -6 q-55 -10 -86.5 -38t-31.5 -60q-1 -9 -5 -17q-8 -85 -7 -142v-32q3 -63 11.5 -175t8.5 -181q0 -31 -31 -31t-31 31q0 55 -6 141l-12 152q-2 38 -2 81q0 33 1 69z" />
<glyph unicode="o" horiz-adv-x="653" d="M59 430q20 96 83 169t143 101q38 14 77 14q34 0 68 -10q74 -24 127 -98q10 -4 16 -12q101 -131 100 -293q0 -45 -7 -92q0 -6 -2 -12q-49 -159 -162 -215q-60 -29 -122 -30q-54 0 -110 23q-117 47 -180 172q-42 83 -42 180q0 50 11 103zM121 418q-11 -50 -12 -96 q1 -80 35 -146q54 -104 149 -145q44 -18 86 -18q47 0 93 22q87 41 130 168v6q9 49 9 96q0 115 -58 211q-19 2 -25 16q-41 80 -100 106q-32 14 -66 14q-28 0 -58 -10q-64 -22 -115.5 -82t-67.5 -142z" />
<glyph unicode="p" horiz-adv-x="667" d="M59 147q-2 92 -2 175q0 207 11 358q0 12 10 20.5t22.5 8.5t20.5 -10.5t8 -22.5v-4q58 50 147 50q12 0 25 -1q72 -4 141 -37q72 -33 115 -80q76 -82 103 -174q15 -53 15 -102q0 -36 -9 -70q-19 -80 -74 -141q-53 -59 -128 -85q-44 -15 -93 -15q-35 0 -73 7q-91 19 -177 87 q8 -440 8 -496q0 -31 -30.5 -31t-30.5 31q0 78 -1 167t-4.5 196.5t-3.5 168.5zM119 172q16 6 31 -4q76 -63 154 -80q37 -9 69 -9q38 0 71 11q60 21 103 69t59 111q7 27 7 57q0 40 -13 86q-22 79 -88 150q-35 37 -94.5 64.5t-120.5 34.5q-9 1 -18 1q-119 0 -150 -104 q-2 -8 -6 -14q-5 -115 -5 -268q0 -50 1 -105z" />
<glyph unicode="q" horiz-adv-x="616" d="M38 223q-8 34 -8 69q0 52 15 106q25 94 96 175q41 49 109.5 83t136.5 38q12 1 23 1q95 0 151 -60q0 18 2 37q0 12 10.5 20t22.5 8t20.5 -10t8.5 -22q-10 -154 -10 -368q0 -77 1 -161q0 -59 3.5 -167.5t4.5 -197.5t1 -167q0 -31 -31 -31t-31 31q0 88 -8 456 q-84 -68 -172 -85q-34 -6 -65 -6q-50 0 -92 16q-70 28 -120.5 90.5t-67.5 144.5zM98 236q15 -68 56 -119q39 -49 95 -71q32 -13 70 -13q29 0 62 7q76 17 149 83q10 10 25 8v8q-2 111 -2 205.5t2 173.5q-4 4 -6 10q-27 106 -136 106q-10 0 -20 -1q-57 -4 -114 -31 q-57 -29 -93 -70q-59 -70 -80 -150q-13 -47 -13 -90q0 -29 5 -56z" />
<glyph unicode="r" horiz-adv-x="423" d="M41 680q-2 14 5 24.5t20.5 12.5t23.5 -5t12 -20q6 -33 11 -67q61 82 155 90q10 1 20 1q74 0 122 -54q45 -53 45 -140q0 -24 -4 -51q-2 -12 -12.5 -20.5t-23 -6.5t-20.5 12.5t-6 22.5q3 23 3 42q0 64 -30 100q-28 33 -72 33q-8 0 -16 -1q-59 -4 -105 -55t-46 -131v-2 q1 -28 1 -63q0 -72 -3 -172q-4 -150 -4 -199q0 -31 -31 -31t-31 31q-1 55 5 203q3 82 4 150q0 56 -2 102q-4 102 -21 194z" />
<glyph unicode="s" horiz-adv-x="647" d="M33 190q-2 12 5 22.5t19.5 13.5t22.5 -4t14 -19q14 -70 82 -118q68 -49 156 -61q25 -4 48 -3q60 0 112 23q72 32 100 103q8 23 6 53.5t-12 45.5q-61 82 -152 102q-20 6 -76 6q-72 2 -100 6q-141 16 -149 121q-1 10 -1 20q0 75 55 129q62 60 150 78q33 7 65 8 q53 0 103 -20q80 -30 105 -112q4 -12 -2 -23.5t-17.5 -15.5t-23 2t-15.5 16q-18 55 -74 78q-34 14 -73 14q-25 -1 -55 -7q-72 -16 -116 -59q-40 -40 -40 -94v-10q4 -53 94 -63q27 -4 94 -6q63 0 88 -6q113 -27 189 -127q23 -29 25 -79v-13q0 -41 -11 -64q-37 -98 -129 -138 q-68 -30 -143 -30q-25 0 -53 4q-104 14 -186.5 74.5t-104.5 152.5z" />
<glyph unicode="t" horiz-adv-x="419" d="M43 728q0 13 8 22.5t21 9.5q31 2 61 2q-2 133 -14 235q-2 12 6 22.5t20.5 12.5t22.5 -6t12 -20q12 -106 15 -244q39 0 81 -2q14 0 22.5 -9.5t8.5 -22.5t-9 -21.5t-22 -8.5q-45 2 -81 2q-2 -59 -6.5 -192t-4.5 -201q0 -12 -1 -28.5t-3 -36t-2 -31.5q-1 -17 -1 -32 q0 -30 5 -50q20 -68 81 -78q10 -2 20 -1q49 0 88 40q23 20 44 -1t1 -44q-58 -56 -129 -56q-17 0 -35 3q-98 16 -127 121q-9 29 -9 72q0 14 1 30q0 4 3 40t3 52q0 72 4 205t6 188q-31 0 -57 -2q-14 0 -23.5 8.5t-9.5 21.5z" />
<glyph unicode="u" horiz-adv-x="520" d="M47 303q-2 16 -2 41.5t2 59.5q4 68 4 88t9.5 96t9.5 80q2 12 11 20t22.5 6t21.5 -11.5t6 -23.5q-2 -8 -8 -71.5t-8 -79.5q-1 -16 -5 -74q-2 -40 -3 -63q1 -9 1 -17q2 -24 5.5 -71t11.5 -76t22.5 -63.5t34.5 -61.5q45 -63 127 -63q1 0 1 1q83 0 122 68q41 67 41 242v16 q0 57 -5 158.5t-5 136.5q0 31 30.5 31t30.5 -31q0 -35 5.5 -136.5t5.5 -158.5q0 -209 -50 -291q-37 -63 -105 -85q-35 -12 -71 -12l-67 10q-68 22 -109 77q-27 37 -45 78t-27 94z" />
<glyph unicode="v" horiz-adv-x="620" d="M66 653q-4 12 1 24.5t16 16.5t23.5 -1t16.5 -15l53 -133l62 -150l47 -131q29 -80 47 -149q8 23 20.5 66.5t20.5 66.5q80 248 184 434q14 27 41 12.5t12 -41.5q-104 -193 -180 -426l-16 -61q-14 -45 -26.5 -79t-29.5 -64q-4 -11 -16 -15q-6 -6 -14 -8q-12 -2 -22.5 5 t-14.5 20q-16 76 -47 167t-49.5 140t-67.5 174z" />
<glyph unicode="w" horiz-adv-x="761" d="M70 360q-1 40 -1 87t1 102l2 119q0 31 31.5 31t31.5 -31l-2 -117q-1 -54 -1 -101.5t1 -87.5q2 -109 14 -167q10 -74 29 -99q25 -29 41 -37q18 -10 47 -8q45 2 68.5 27.5t32.5 71.5q6 12 8 28q-3 19 -3 44q0 12 1 26q2 10 4 35q-2 12 -3 33.5t-1 27.5q0 12 8 22.5t20 10.5 q8 0 17 -2q25 -6 24 -31q0 -20 -2 -61q1 -20 0 -39q0 -37 -2 -66q0 -12 4 -20q8 -39 40 -69t69 -40q14 -3 26 -3q59 0 87 71q29 76 32 260q2 76 2 102q0 39 -1 97.5t-1 80.5q0 33 32 33t32 -33q0 -23 1 -81t1 -97q0 -25 -2 -104q-4 -197 -37 -281q-25 -68 -77 -94 q-33 -17 -70 -17q-21 0 -42 5q-78 18 -124 88q-10 -23 -27 -39q-41 -45 -113 -49h-10q-43 0 -72 16q-29 14 -61 55q-27 35 -43 127q-10 63 -12 174z" />
<glyph unicode="x" horiz-adv-x="552" d="M57.5 -12.5q-20.5 22.5 1.5 43.5q16 14 80 106l135 201l7 8l-91 152q-57 100 -63 125q-4 12 2 23t18.5 14.5t23.5 -3t13 -18.5q6 -16 60 -111l73 -122l84 133l43 73q16 27 19 33q2 12 13 18.5t23.5 3.5t18.5 -14.5t2 -23.5q-2 -14 -22 -47l-43 -74l-103 -162l15 -27 l125 -202q57 -90 69 -101q20 -23 -1 -44t-44 -1q-14 16 -76 113l-127 203l-125 -185q-66 -96 -88 -116.5t-42.5 2z" />
<glyph unicode="y" horiz-adv-x="442" d="M45 -166q0 31 30.5 31t30.5 -31q0 -82 44.5 -131t99.5 -53h12q48 0 94 30q52 33 64 97q6 63 7 81v7q0 21 -4 77q-5 68 -7 89q0 18 -2 37q-47 -43 -103 -68q-35 -18 -75 -18q-19 0 -38 4q-63 12 -102 71q-48 77 -48 210q0 42 5 89q14 137 64 289q4 10 15 16.5t22.5 2 t17.5 -15.5t2 -23q-45 -143 -59 -275q-5 -45 -5 -83q0 -114 40 -177q29 -47 79 -47q27 0 60 14q82 35 121 105q0 43 -3.5 215t-7.5 264q0 12 8.5 22.5t20.5 10.5t22.5 -8.5t10.5 -20.5q4 -92 7 -264t3 -199q10 -14 4 -30l-2 -5q2 -61 4 -112q0 -20 4 -62.5t6 -70.5 q1 -20 1 -43v-25q-1 -39 -7 -70q-16 -74 -66 -119.5t-111 -52.5q-16 -1 -31 -1q-46 0 -89 15q-59 19 -99 80.5t-40 147.5z" />
<glyph unicode="z" horiz-adv-x="604" d="M43 53q2 6 6 13q4 10 12 24q12 20 48 64l145 178q219 264 242 295h-52l-102 -4q-145 -6 -180 -13q-12 -2 -22.5 6.5t-12.5 20.5t6.5 22.5t20.5 12.5q41 6 184 12q51 2 104 4q39 0 64 2q14 0 20 -2h11h4q4 -2 6 -2q8 -4 14 -12q12 -18 4 -45q-4 -8 -12 -23 q-20 -39 -252 -315q-115 -137 -145 -176q-27 -35 -41 -56h4h29q73 0 210 7q94 5 162 5q51 0 88 -3q12 0 20.5 -10.5t8.5 -22.5t-10.5 -20.5t-22.5 -8.5q-34 3 -84 3q-66 0 -158 -5q-138 -6 -213 -6h-34q-20 0 -29 2q-31 8 -41 31q-4 10 -2 22z" />
<glyph unicode="{" horiz-adv-x="512" d="M10 522q0 41 51 58l41 12q51 37 80 106q16 41 19 107q2 10 2 61q0 37 2 62q41 477 370 536q14 2 24.5 -5t12.5 -20.5t-5 -23.5t-19 -12q-283 -49 -322 -479q-2 -23 -2 -60q0 -49 -2 -61q-2 -78 -22 -129q-37 -86 -101 -131q-10 -8 -59 -23q-2 0 -4 -2q8 -8 24 -18l19 -11 l16 -8q23 -14 33 -24q78 -82 119 -293q8 -43 24 -182q10 -102 29 -154q23 -70 75 -112t152 -56q12 -2 20.5 -12t6.5 -22.5t-12.5 -20.5t-22.5 -6q-217 31 -278 208q-16 55 -31 168q-16 137 -25 177q-37 195 -102 264q-4 2 -19 12q-4 2 -16 9t-18 9q-25 14 -37 29 q-23 23 -23 47z" />
<glyph unicode="|" horiz-adv-x="145" d="M49 1421q-14 27 12.5 41.5t40.5 -12.5q25 -43 33 -170q6 -100 2 -258q0 -53 -18 -449q-6 -45 -1 -271t5 -271q0 -31 -31 -31t-31 31q0 45 -5 273t1 274q18 393 19 446q4 147 -2 252q-6 115 -25 145z" />
<glyph unicode="}" horiz-adv-x="481" d="M-80 1412q-2 13 6.5 22.5t22.5 11.5q143 12 219 -68q61 -63 82 -192q8 -57 16 -228q4 -135 23 -192q37 -113 135 -176q25 -16 104 -31h4q8 0 13 -2q12 0 20 -4q25 -14 19 -41q-4 -12 -17 -23q-6 -2 -14 -6q-12 -4 -35 -12l-90 -29q-119 -45 -133 -114q-8 -35 -9 -73 t2 -59.5t10 -67.5t11 -62q14 -57 -1 -134t-70 -151q-92 -121 -218 -121q-31 0 -30.5 30.5t30.5 30.5q94 0 168 97q47 61 59.5 123.5t0.5 115.5l-10 60q-8 47 -11.5 71.5t-2.5 68.5t9 83q23 102 175 160l36 14q-31 8 -53 23q-117 76 -160 208q-20 61 -26 209q-8 166 -17 222 q-16 111 -63 159q-57 59 -172 49q-12 -2 -21.5 6.5t-11.5 21.5zM539 498h2h-2z" />
<glyph unicode="~" horiz-adv-x="1134" d="M35 391q33 102 117 164q100 74 206 31q45 -18 154 -80q98 -55 152 -78q168 -68 294 33q86 68 123 160q4 10 16.5 15t24 1t16.5 -16.5t1 -24.5q-43 -104 -144 -184q-154 -121 -354 -39q-57 23 -160 80q-106 59 -147 75q-74 31 -148 -22q-68 -49 -94 -135q-4 -10 -15 -16.5 t-22.5 -2.5t-17.5 15.5t-2 23.5z" />
<glyph unicode="&#xad;" d="M3 592q3 12 14.5 18t23.5 4q55 -16 120.5 -17t155 4t132.5 5q31 0 30.5 -30.5t-30.5 -30.5q-33 0 -126.5 -5t-166 -3t-131.5 16q-12 4 -18.5 15.5t-3.5 23.5z" />
<glyph unicode="&#x2000;" horiz-adv-x="794" />
<glyph unicode="&#x2001;" horiz-adv-x="1589" />
<glyph unicode="&#x2002;" horiz-adv-x="794" />
<glyph unicode="&#x2003;" horiz-adv-x="1589" />
<glyph unicode="&#x2004;" horiz-adv-x="529" />
<glyph unicode="&#x2005;" horiz-adv-x="397" />
<glyph unicode="&#x2006;" horiz-adv-x="264" />
<glyph unicode="&#x2007;" horiz-adv-x="264" />
<glyph unicode="&#x2008;" horiz-adv-x="198" />
<glyph unicode="&#x2009;" horiz-adv-x="317" />
<glyph unicode="&#x200a;" horiz-adv-x="88" />
<glyph unicode="&#x2010;" d="M3 592q3 12 14.5 18t23.5 4q55 -16 120.5 -17t155 4t132.5 5q31 0 30.5 -30.5t-30.5 -30.5q-33 0 -126.5 -5t-166 -3t-131.5 16q-12 4 -18.5 15.5t-3.5 23.5z" />
<glyph unicode="&#x2011;" d="M3 592q3 12 14.5 18t23.5 4q55 -16 120.5 -17t155 4t132.5 5q31 0 30.5 -30.5t-30.5 -30.5q-33 0 -126.5 -5t-166 -3t-131.5 16q-12 4 -18.5 15.5t-3.5 23.5z" />
<glyph unicode="&#x2012;" d="M3 592q3 12 14.5 18t23.5 4q55 -16 120.5 -17t155 4t132.5 5q31 0 30.5 -30.5t-30.5 -30.5q-33 0 -126.5 -5t-166 -3t-131.5 16q-12 4 -18.5 15.5t-3.5 23.5z" />
<glyph unicode="&#x2013;" horiz-adv-x="1003" d="M4 592q6 12 31 18t51 4q117 -16 257.5 -17t332.5 4t285 5q66 0 65 -30.5t-65 -30.5q-71 0 -271.5 -5t-356 -3t-282.5 16q-26 4 -39.5 15.5t-7.5 23.5z" />
<glyph unicode="&#x2014;" horiz-adv-x="2026" d="M6 592q13 12 62.5 18t100.5 4q236 -16 517 -17t665 4t568 5q133 0 131 -30.5t-131 -30.5q-141 0 -542.5 -5t-712 -3t-564.5 16q-51 4 -79 15.5t-15 23.5z" />
<glyph unicode="&#x2018;" horiz-adv-x="178" d="M59 1212q6 66 32 126.5t63 86.5q25 18 43 -6.5t-7 -42.5q-25 -16 -45 -65t-26 -105q-6 -59 6 -96q12 -31 35 -35q12 -2 19 -13t5 -23.5t-13 -19.5t-24 -5q-57 12 -79 78q-16 49 -9 120z" />
<glyph unicode="&#x2019;" horiz-adv-x="227" d="M18 1006q-20 22 2 43q92 86 115 161q27 88 -43 170q-18 25 5.5 44.5t43.5 -3.5q88 -109 54 -229q-29 -90 -134 -188q-23 -20 -43 2z" />
<glyph unicode="&#x201c;" horiz-adv-x="430" d="M27 1202q14 84 79 221q14 27 42 14t16 -42q-63 -127 -76 -203q-18 -111 47 -176q20 -23 -1 -44.5t-44 -0.5q-88 88 -63 231zM309 1130q4 45 23 99q41 119 94 157q25 18 43.5 -6.5t-6.5 -42.5q-39 -27 -72 -129q-16 -47 -20 -84t4 -53q4 -6 22 -20q4 -4 35 -27 q25 -18 6.5 -43t-43.5 -6q-33 23 -37 26q-27 23 -36 41q-18 31 -13 88z" />
<glyph unicode="&#x201d;" horiz-adv-x="438" d="M34.5 946.5q-20.5 22.5 2.5 42.5q141 129 39 373q-4 12 0 23.5t16 16.5t23.5 0.5t17.5 -16.5q119 -285 -55 -442q-23 -20 -43.5 2.5zM323.5 964.5q-12.5 28.5 16.5 41.5q68 29 57 141q-10 109 -63 182q-18 25 6.5 43.5t42.5 -6.5q66 -88 76 -213q14 -158 -94 -205 q-29 -12 -41.5 16.5z" />
<glyph unicode="&#x202f;" horiz-adv-x="317" />
<glyph unicode="&#x205f;" horiz-adv-x="397" />
<glyph unicode="&#x25fc;" horiz-adv-x="665" d="M0 0v666h666v-666h-666z" />
</font>
</defs>
</svg>
