<?xml version="1.0" encoding="utf-8"?>
<!-- Generator: Adobe Illustrator 16.0.4, SVG Export Plug-In . SVG Version: 6.00 Build 0)  -->
<!DOCTYPE svg PUBLIC "-//W3C//DTD SVG 1.1//EN" "http://www.w3.org/Graphics/SVG/1.1/DTD/svg11.dtd">
<svg version="1.1"
	 id="svg2" xmlns:dc="http://purl.org/dc/elements/1.1/" xmlns:cc="http://creativecommons.org/ns#" xmlns:rdf="http://www.w3.org/1999/02/22-rdf-syntax-ns#" xmlns:svg="http://www.w3.org/2000/svg" xmlns:sodipodi="http://sodipodi.sourceforge.net/DTD/sodipodi-0.dtd" xmlns:inkscape="http://www.inkscape.org/namespaces/inkscape" inkscape:export-filename="C:\Users\Vance Miller\Google Drive\UNC\HackNC 2015\Marketing\Icons and Things\MLH Calendar\logo.png" sodipodi:docname="logo.svg" inkscape:version="0.48.5 r10040" inkscape:export-ydpi="90" inkscape:export-xdpi="90"
	 xmlns="http://www.w3.org/2000/svg" xmlns:xlink="http://www.w3.org/1999/xlink" x="0px" y="0px" width="100px" height="100px"
	 viewBox="0 0 100 100" enable-background="new 0 0 100 100" xml:space="preserve">
<g>
	<g id="g10" transform="translate(0.03804521,0)">
		<g id="g12">
			<path id="path14" inkscape:connector-curvature="0" fill="#FFBE99" d="M80.942,66.843c0,0,0.607,0.038,1.676,0.025
				c1.066-0.017,2.593-0.077,4.396-0.343c1.797-0.269,3.898-0.729,5.922-1.707c1.004-0.494,1.967-1.146,2.775-1.98
				c0.816-0.824,1.494-1.812,1.954-2.889c0.459-1.076,0.702-2.241,0.669-3.368c-0.029-1.123-0.338-2.211-0.945-3.024
				c-0.293-0.416-0.664-0.748-1.08-1.005c-0.389-0.229-0.865-0.383-1.32-0.462c-0.92-0.146-1.842,0.084-2.334,0.667
				c-0.545,0.589-0.674,1.372-0.375,1.951c0.285,0.585,0.838,0.928,1.309,1.065c0.482,0.142,0.898,0.092,1.169,0.045
				c0.272-0.057,0.415-0.113,0.415-0.114l0.041,0.092c0,0-0.133,0.081-0.41,0.188c-0.275,0.101-0.718,0.205-1.287,0.119
				c-0.555-0.084-1.273-0.393-1.72-1.131c-0.224-0.361-0.345-0.832-0.304-1.32c0.037-0.471,0.257-1,0.562-1.385
				c0.672-0.887,1.903-1.235,3.049-1.121c0.584,0.062,1.166,0.209,1.729,0.539c0.526,0.311,1.021,0.739,1.396,1.258
				c0.75,1.045,1.073,2.355,1.053,3.632c-0.014,1.282-0.338,2.553-0.881,3.704c-0.539,1.156-1.301,2.197-2.203,3.054
				c-0.897,0.87-1.944,1.528-3.01,2.017c-2.145,0.963-4.301,1.332-6.129,1.528c-1.836,0.19-3.371,0.188-4.442,0.16
				c-1.072-0.03-1.683-0.095-1.683-0.095L80.942,66.843L80.942,66.843z"/>
		</g>
		<g id="g16">
			<path id="path18" inkscape:connector-curvature="0" fill="#FFBE99" d="M80.815,64.641c0,0,0.433,0.03,1.189,0.014
				c0.757-0.016,1.84-0.078,3.116-0.293c1.272-0.209,2.745-0.582,4.192-1.256c0.732-0.314,1.426-0.763,2.095-1.248
				c0.649-0.492,1.168-1.133,1.562-1.857c0.779-1.432,1.021-3.219,0.541-4.547c-0.131-0.319-0.293-0.605-0.503-0.821
				c-0.124-0.118-0.188-0.173-0.37-0.288c-0.126-0.076-0.277-0.148-0.425-0.219c-0.592-0.273-1.239-0.376-1.747-0.236
				c-0.511,0.146-0.9,0.492-1.107,0.918c-0.213,0.412-0.238,0.844-0.168,1.168c0.084,0.327,0.278,0.539,0.43,0.653
				c0.154,0.112,0.252,0.162,0.253,0.162l-0.033,0.094c0,0.001-0.108-0.022-0.31-0.104c-0.198-0.086-0.479-0.295-0.668-0.684
				c-0.182-0.387-0.236-0.943-0.03-1.508c0.175-0.554,0.653-1.184,1.387-1.456c0.741-0.271,1.578-0.198,2.366,0.074
				c0.198,0.071,0.387,0.165,0.593,0.28c0.146,0.082,0.396,0.259,0.552,0.416c0.352,0.334,0.594,0.762,0.746,1.203
				c0.301,0.889,0.295,1.828,0.133,2.725c-0.164,0.898-0.502,1.766-0.972,2.552c-0.468,0.782-1.103,1.492-1.841,2.001
				c-0.732,0.491-1.482,0.932-2.261,1.229c-1.536,0.65-3.066,0.929-4.368,1.08c-1.307,0.146-2.4,0.15-3.163,0.127
				c-0.762-0.023-1.196-0.077-1.196-0.077L80.815,64.641L80.815,64.641z"/>
		</g>
		<g id="g20">
			<path id="path22" inkscape:connector-curvature="0" fill="#FFBE99" d="M72.535,64.68c0,0,0.144-0.021,0.413-0.058
				c0.266-0.041,0.677-0.067,1.187-0.06c1.026,0.002,2.474,0.239,4.185,0.528c1.711,0.286,3.722,0.542,5.861,0.407
				c1.064-0.068,2.174-0.23,3.268-0.469c1.098-0.238,2.188-0.573,3.222-1.027c1.024-0.463,1.996-1.041,2.804-1.766
				c0.81-0.723,1.467-1.564,1.909-2.48c0.474-0.904,0.699-1.882,0.847-2.818c0.123-0.927,0.111-1.886,0.078-2.724
				c-0.043-0.848-0.125-1.62-0.31-2.272c-0.183-0.651-0.44-1.183-0.726-1.581c-0.287-0.395-0.584-0.656-0.785-0.835
				c-0.207-0.175-0.316-0.268-0.316-0.268l0.055-0.084c0,0,0.127,0.074,0.365,0.212c0.237,0.141,0.576,0.374,0.948,0.752
				c0.372,0.377,0.735,0.934,0.995,1.625c0.264,0.689,0.457,1.5,0.556,2.387c0.046,0.447,0.082,0.914,0.101,1.377
				c0.024,0.486,0.019,0.99-0.017,1.512c-0.079,1.039-0.351,2.141-0.862,3.18c-0.515,1.039-1.289,1.987-2.22,2.744
				c-0.929,0.766-2.001,1.344-3.104,1.79c-1.11,0.438-2.258,0.754-3.398,0.964c-1.145,0.21-2.271,0.34-3.379,0.373
				c-2.215,0.074-4.254-0.279-5.954-0.646c-1.704-0.366-3.116-0.664-4.126-0.709c-0.504-0.031-0.893-0.024-1.166,0.004
				c-0.271,0.025-0.415,0.039-0.415,0.039L72.535,64.68L72.535,64.68z"/>
		</g>
		<g id="g24">
			<path id="path26" inkscape:connector-curvature="0" fill="#FFBE99" d="M71.462,63.288c0,0,0.375-0.304,1.158-0.532
				c0.775-0.232,1.943-0.379,3.328-0.258c0.693,0.061,1.425,0.175,2.203,0.238c0.771,0.063,1.596,0.125,2.444,0.145
				c0.851,0.029,1.729,0.023,2.614-0.02c0.895-0.047,1.764-0.127,2.627-0.354c1.721-0.412,3.27-1.32,4.303-2.537
				c0.514-0.607,0.952-1.254,1.247-1.937c0.158-0.32,0.306-0.699,0.407-0.976c0.117-0.393,0.139-0.599,0.145-0.938
				c-0.006-1.259-0.41-2.353-0.677-3.085c-0.286-0.737-0.489-1.149-0.489-1.149l0.084-0.055c0,0,0.311,0.346,0.742,1.037
				c0.219,0.345,0.451,0.784,0.676,1.313c0.222,0.531,0.443,1.161,0.492,1.91c0.039,0.344-0.004,0.858-0.08,1.178
				c-0.115,0.43-0.229,0.771-0.386,1.168c-0.321,0.764-0.78,1.531-1.392,2.213c-0.611,0.681-1.372,1.266-2.215,1.701
				c-0.84,0.446-1.76,0.735-2.684,0.928c-0.915,0.203-1.879,0.255-2.779,0.265c-0.912,0.007-1.805-0.024-2.664-0.09
				c-0.861-0.06-1.689-0.142-2.478-0.256c-0.782-0.107-1.514-0.263-2.181-0.356c-1.342-0.189-2.482-0.109-3.248,0.075
				c-0.771,0.181-1.141,0.45-1.141,0.45L71.462,63.288z"/>
		</g>
		<g id="g28">
			<path id="path30" inkscape:connector-curvature="0" fill="#FFBE99" d="M75.08,63.723c0,0,0.069,0.411,0.317,1.098
				c0.25,0.679,0.68,1.65,1.492,2.576c0.797,0.928,2.07,1.709,3.576,1.842c0.758,0.082,1.514,0.005,2.325-0.151
				c0.771-0.155,1.562-0.39,2.254-0.767c0.7-0.364,1.301-0.881,1.72-1.486c0.412-0.609,0.627-1.312,0.631-2.001
				c0.027-0.69-0.149-1.362-0.425-1.954c-0.257-0.58-0.672-1.156-1.045-1.49c-0.421-0.338-0.923-0.562-1.386-0.693
				c-0.467-0.133-0.898-0.18-1.256-0.215c-0.719-0.049-1.145-0.019-1.145-0.019l-0.018-0.098c0,0,0.4-0.151,1.152-0.248
				c0.375-0.052,0.842-0.071,1.379,0c0.533,0.075,1.164,0.206,1.76,0.624c0.334,0.236,0.541,0.475,0.783,0.761
				c0.236,0.278,0.455,0.593,0.644,0.94c0.382,0.689,0.608,1.533,0.595,2.42c-0.033,0.885-0.341,1.799-0.906,2.524
				c-0.562,0.729-1.312,1.288-2.121,1.657c-0.807,0.387-1.655,0.602-2.508,0.734c-0.814,0.123-1.701,0.176-2.506,0.046
				c-0.814-0.122-1.588-0.386-2.226-0.791c-0.646-0.396-1.155-0.899-1.556-1.407c-0.795-1.027-1.166-2.046-1.379-2.752
				c-0.209-0.712-0.256-1.137-0.256-1.137L75.08,63.723z"/>
		</g>
		<g id="g32">
			<path id="path34" inkscape:connector-curvature="0" fill="#FFBE99" d="M74.08,66.948c0,0,0.188-0.082,0.521-0.226
				c0.336-0.136,0.819-0.332,1.438-0.478c0.308-0.076,0.654-0.128,1.033-0.134c0.195-0.002,0.382,0.019,0.604,0.068
				c0.173,0.041,0.365,0.104,0.576,0.191c0.769,0.34,1.485,0.98,1.836,1.872c0.173,0.442,0.247,0.96,0.124,1.461l-0.053,0.185
				c-0.014,0.037-0.012,0.043-0.036,0.108l-0.027,0.069c-0.043,0.099-0.061,0.176-0.125,0.289c-0.114,0.221-0.237,0.416-0.392,0.597
				c-0.307,0.364-0.766,0.627-1.213,0.696c-0.448,0.076-0.85,0.004-1.184-0.101c-0.658-0.229-1.091-0.562-1.371-0.812
				c-0.281-0.248-0.42-0.409-0.42-0.409l0.055-0.084c0,0,0.207,0.063,0.543,0.184c0.345,0.101,0.828,0.267,1.371,0.329
				c0.558,0.053,1.061-0.062,1.447-0.495c0.104-0.104,0.2-0.235,0.28-0.36c0.042-0.055,0.097-0.166,0.144-0.246l0.037-0.065
				c-0.01,0.019,0.01-0.024,0.014-0.034l0.045-0.103c0.111-0.279,0.103-0.619,0.012-0.951c-0.189-0.671-0.729-1.274-1.342-1.606
				c-0.139-0.074-0.301-0.147-0.484-0.209c-0.137-0.043-0.31-0.08-0.469-0.1c-0.325-0.035-0.648-0.029-0.945,0.007
				c-0.601,0.064-1.095,0.196-1.439,0.288c-0.346,0.102-0.545,0.159-0.545,0.159L74.08,66.948z"/>
		</g>
		<g id="g36">
			<path id="path38" inkscape:connector-curvature="0" fill="#FFBE99" d="M71.34,64.912c0,0,0.722-0.028,1.795,0.189
				c0.521,0.138,1.201,0.256,1.739,0.885c0.266,0.313,0.357,0.83,0.23,1.231c-0.108,0.411-0.326,0.751-0.556,1.06
				c-0.104,0.139-0.261,0.32-0.378,0.44c-0.107,0.13-0.251,0.263-0.421,0.396c-0.315,0.267-0.651,0.464-1.017,0.6
				c-0.732,0.271-1.474,0.203-2.022,0.054c-0.562-0.146-0.976-0.365-1.25-0.531c-0.272-0.166-0.431-0.262-0.431-0.262l0.021-0.098
				c0,0,0.193-0.018,0.514,0.004c0.321,0.01,0.764,0.053,1.263,0.061c0.502,0.016,1.042-0.062,1.588-0.194
				c0.265-0.084,0.56-0.183,0.805-0.338c0.12-0.066,0.253-0.154,0.392-0.281c0.148-0.116,0.229-0.2,0.356-0.333
				c0.448-0.477,0.759-1.059,0.456-1.486c-0.301-0.447-0.904-0.716-1.381-0.889c-0.993-0.341-1.711-0.408-1.711-0.408L71.34,64.912
				L71.34,64.912z"/>
		</g>
		<g id="g40">
			<path id="path42" inkscape:connector-curvature="0" fill="#FFBE99" d="M54.946,69.975c0,0,0.219,0.146,0.636,0.336
				c0.417,0.186,1.036,0.414,1.802,0.528c0.766,0.104,1.676,0.104,2.588-0.153c0.441-0.112,0.948-0.308,1.377-0.512
				c0.446-0.214,0.866-0.477,1.217-0.805c0.348-0.334,0.627-0.729,0.877-1.159c0.258-0.438,0.473-0.873,0.773-1.333
				c0.123-0.191,0.338-0.434,0.52-0.628c0.188-0.188,0.386-0.358,0.598-0.498c0.415-0.287,0.848-0.483,1.255-0.614
				c0.825-0.236,1.524-0.266,2.003-0.215c0.479,0.035,0.741,0.119,0.741,0.119l-0.006,0.1c0,0-0.269,0.032-0.714,0.129
				c-0.223,0.054-0.487,0.125-0.784,0.211c-0.296,0.095-0.613,0.232-0.944,0.395c-0.326,0.169-0.656,0.383-0.969,0.643
				c-0.155,0.133-0.299,0.28-0.447,0.432c-0.133,0.162-0.251,0.281-0.391,0.513c-0.258,0.36-0.521,0.835-0.836,1.269
				c-0.312,0.442-0.689,0.894-1.143,1.256c-0.455,0.361-0.962,0.634-1.47,0.832c-0.528,0.203-0.995,0.351-1.522,0.447
				c-1.021,0.219-2.004,0.123-2.793-0.072c-0.791-0.199-1.401-0.498-1.81-0.729c-0.405-0.234-0.614-0.406-0.614-0.406L54.946,69.975
				L54.946,69.975z"/>
		</g>
		<g id="g44">
			<path id="path46" inkscape:connector-curvature="0" fill="#FFBE99" d="M64.312,69.253c0,0,0.181-0.429,0.635-0.962
				c0.226-0.268,0.518-0.562,0.886-0.812c0.358-0.269,0.789-0.479,1.233-0.666c0.451-0.168,0.918-0.318,1.373-0.369
				c0.453-0.021,0.875,0.033,1.22,0.143c0.35,0.083,0.616,0.232,0.801,0.34c0.185,0.102,0.28,0.178,0.28,0.178L70.718,67.2
				c0,0-0.123,0.036-0.324,0.069c-0.205,0.055-0.482,0.055-0.808,0.111c-0.162,0.023-0.335,0.032-0.515,0.049
				c-0.18,0.032-0.366,0.045-0.561,0.051c-0.385,0.019-0.803,0.017-1.216,0.097c-0.403,0.098-0.813,0.215-1.167,0.397
				c-0.359,0.172-0.682,0.373-0.941,0.569c-0.526,0.394-0.791,0.759-0.791,0.759L64.312,69.253L64.312,69.253z"/>
		</g>
		<g id="g48">
			<path id="path50" inkscape:connector-curvature="0" fill="#FFBE99" d="M45.316,75.822c0,0,0.307-0.643,1.127-1.245
				c0.199-0.16,0.433-0.306,0.69-0.444c0.259-0.13,0.538-0.277,0.846-0.367c0.307-0.093,0.625-0.214,0.964-0.244
				c0.335-0.062,0.682-0.074,1.029-0.09c0.347-0.002,0.689,0.063,1.027,0.094c0.335,0.05,0.652,0.173,0.959,0.252
				c0.304,0.102,0.578,0.252,0.839,0.375c0.265,0.115,0.479,0.3,0.685,0.438c0.42,0.272,0.692,0.604,0.888,0.817
				c0.19,0.222,0.286,0.357,0.286,0.357l-0.055,0.084c0,0-0.135-0.074-0.369-0.207c-0.238-0.125-0.562-0.34-0.994-0.504
				c-0.215-0.082-0.437-0.205-0.69-0.275c-0.254-0.073-0.519-0.162-0.796-0.233c-0.562-0.119-1.17-0.207-1.783-0.198
				c-0.611-0.009-1.223,0.06-1.783,0.188c-0.559,0.131-1.069,0.308-1.486,0.504c-0.844,0.38-1.32,0.776-1.32,0.776L45.316,75.822z"
				/>
		</g>
		<g id="g52">
			<path id="path54" inkscape:connector-curvature="0" fill="#FFBE99" d="M66.213,74.098c0,0,0.856-0.785,2.422-1.559
				c0.783-0.372,1.747-0.753,2.849-0.903c0.549-0.089,1.112-0.106,1.701-0.093c0.582,0.02,1.176,0.087,1.762,0.223
				c1.15,0.266,2.38,0.777,3.113,1.83c0.385,0.527,0.517,1.18,0.494,1.747c-0.031,0.57-0.191,1.093-0.443,1.515
				c-0.51,0.856-1.282,1.238-1.791,1.354c-0.517,0.135-0.816,0.079-0.812,0.098l-0.018-0.099c-0.008-0.017,0.281-0.088,0.693-0.337
				c0.201-0.127,0.432-0.293,0.652-0.516c0.217-0.229,0.396-0.528,0.538-0.867c0.131-0.344,0.212-0.741,0.19-1.152
				c0-0.411-0.127-0.812-0.356-1.168c-0.478-0.754-1.427-1.336-2.462-1.643c-0.52-0.154-1.062-0.254-1.604-0.305
				c-0.531-0.05-1.08-0.064-1.595-0.016c-1.032,0.08-1.985,0.354-2.774,0.65c-1.58,0.617-2.498,1.317-2.498,1.317L66.213,74.098
				L66.213,74.098z"/>
		</g>
		<g id="g56">
			<path id="path58" inkscape:connector-curvature="0" fill="#FFBE99" d="M67.043,75.068c0-0.002,0.587-0.577,1.694-1.119
				c0.549-0.275,1.229-0.522,1.986-0.689c0.379-0.085,0.775-0.146,1.182-0.189c0.406-0.041,0.855-0.026,1.27,0.013
				c0.837,0.086,1.732,0.278,2.438,0.896c0.343,0.306,0.605,0.732,0.685,1.166c0.08,0.369,0.065,0.83-0.06,1.174
				c-0.264,0.726-0.817,1.039-1.161,1.162c-0.355,0.136-0.577,0.129-0.576,0.129l-0.024-0.099c0,0,0.174-0.101,0.42-0.325
				c0.232-0.234,0.539-0.6,0.575-1.061c0.022-0.236-0.01-0.443-0.1-0.738c-0.079-0.24-0.233-0.443-0.449-0.635
				c-0.435-0.378-1.137-0.662-1.868-0.807c-1.459-0.276-3.068,0.013-4.168,0.365c-1.126,0.359-1.777,0.834-1.777,0.834
				L67.043,75.068L67.043,75.068z"/>
		</g>
		<g id="g60">
			<path id="path62" inkscape:connector-curvature="0" fill="#FFBE99" d="M74.179,75.438c0,0-0.232-0.114-0.675-0.207
				c-0.438-0.088-1.095-0.146-1.823,0.056c-0.712,0.2-1.525,0.69-2.525,0.952c-0.51,0.119-1.071,0.158-1.619,0.085
				c-0.54-0.093-1.1-0.175-1.633-0.499c-0.519-0.305-0.918-0.73-1.271-1.1c-0.355-0.375-0.687-0.701-1.025-0.979
				c-0.176-0.151-0.34-0.251-0.486-0.313c-0.162-0.078-0.332-0.127-0.503-0.145c-0.341-0.032-0.688,0.04-0.951,0.199
				c-0.271,0.147-0.456,0.373-0.498,0.591c-0.046,0.215,0.038,0.438,0.161,0.603c0.258,0.327,0.52,0.454,0.507,0.461l-0.041,0.092
				c0.007-0.018-0.278-0.016-0.699-0.314c-0.2-0.145-0.466-0.434-0.472-0.869c-0.014-0.429,0.227-0.869,0.59-1.18
				c0.37-0.303,0.875-0.518,1.438-0.514c0.279-0.002,0.569,0.047,0.847,0.147c0.291,0.114,0.54,0.274,0.745,0.435
				c0.443,0.322,0.792,0.762,1.109,1.166c0.316,0.412,0.61,0.795,0.979,1.06c0.203,0.135,0.343,0.223,0.613,0.315
				c0.209,0.061,0.467,0.14,0.697,0.185c0.473,0.096,0.938,0.092,1.394,0.019c0.921-0.181,1.745-0.591,2.569-0.742
				c0.816-0.14,1.5-0.008,1.943,0.129c0.447,0.139,0.68,0.283,0.68,0.283L74.179,75.438L74.179,75.438z"/>
		</g>
		<g id="g64">
			<path id="path66" inkscape:connector-curvature="0" fill="#FFBE99" d="M71.155,78.939c0,0-0.609-0.127-1.527-0.152
				c-0.896-0.006-2.186,0.025-3.075,0.686c-0.477,0.326-0.897,0.787-0.95,1.069c-0.035,0.13-0.035,0.25,0.031,0.431
				c-0.012-0.008,0.062,0.117,0.068,0.125c0.013,0.019,0.021,0.045,0.051,0.076c0.046,0.062,0.107,0.116,0.182,0.163
				c0.295,0.199,0.696,0.279,0.955,0.371c0.268,0.075,0.422,0.142,0.422,0.142l-0.009,0.1c0,0-0.155,0.045-0.429,0.099
				C66.597,82.1,66.2,82.2,65.626,82.052c-0.141-0.045-0.292-0.11-0.436-0.215c-0.069-0.046-0.146-0.112-0.217-0.194
				c-0.078-0.091-0.074-0.078-0.156-0.197c-0.199-0.273-0.351-0.743-0.219-1.178c0.127-0.428,0.398-0.727,0.676-0.941
				c0.276-0.219,0.568-0.391,0.854-0.541c0.296-0.158,0.636-0.29,0.956-0.363c0.324-0.07,0.643-0.111,0.948-0.121
				c0.61-0.027,1.165,0.049,1.632,0.137c0.932,0.182,1.518,0.41,1.518,0.41L71.155,78.939L71.155,78.939z"/>
		</g>
		<g id="g68">
			<path id="path70" inkscape:connector-curvature="0" fill="#FFBE99" d="M63.994,81.171c0,0-0.079,0.015-0.228,0.019
				c-0.144-0.01-0.377,0.024-0.643-0.164c-0.137-0.104-0.184-0.326-0.132-0.5c0.036-0.174,0.149-0.362,0.319-0.494
				c0.324-0.262,0.805-0.332,1.037-0.61c0.098-0.128,0.162-0.371,0.105-0.485c-0.046-0.129-0.247-0.265-0.467-0.396
				c-0.229-0.129-0.463-0.3-0.67-0.381c-0.221-0.097-0.474-0.148-0.659-0.11c-0.179,0.044-0.263,0.149-0.304,0.379l-0.008,0.04
				c0.004-0.048,0,0.019,0.002,0.022c0,0.031-0.006,0.09,0.004,0.08c0.006,0.004,0.016,0.037,0.033,0.063
				c0.035,0.054,0.104,0.105,0.193,0.14c0.184,0.062,0.422,0.045,0.599-0.06c0.156-0.078,0.349-0.331,0.501-0.55
				c0.315-0.466,0.344-0.867,0.045-1.2c-0.062-0.081-0.168-0.183-0.242-0.235l-0.172-0.133l-0.129-0.066
				c-0.191-0.09-0.41-0.155-0.628-0.17c-0.437-0.008-0.892,0.108-1.239,0.344c-0.371,0.25-0.539,0.48-0.709,0.904
				c-0.156,0.361-0.192,0.654-0.102,0.933c0.085,0.284,0.298,0.51,0.471,0.694c0.176,0.186,0.34,0.316,0.452,0.404
				c0.112,0.092,0.173,0.143,0.173,0.143l-0.043,0.09c0,0-0.312-0.053-0.822-0.312c-0.256-0.129-0.562-0.338-0.813-0.728
				c-0.278-0.386-0.308-1.004-0.162-1.504c0.097-0.451,0.449-1.138,0.985-1.458c0.516-0.364,1.182-0.592,1.895-0.521
				c0.355,0.041,0.706,0.146,1.032,0.34l0.249,0.17l0.171,0.152c0.155,0.141,0.257,0.262,0.367,0.428
				c0.219,0.305,0.358,0.742,0.298,1.156c-0.061,0.411-0.252,0.745-0.461,1.016c-0.221,0.26-0.404,0.521-0.794,0.729
				c-0.365,0.181-0.787,0.198-1.167,0.044c-0.188-0.081-0.373-0.217-0.491-0.422c-0.057-0.104-0.099-0.21-0.11-0.355
				c-0.01-0.08-0.002-0.099,0-0.141l0.008-0.088l0.016-0.068c0.042-0.355,0.395-0.785,0.805-0.82
				c0.758-0.081,1.299,0.371,1.694,0.652c0.205,0.161,0.479,0.314,0.599,0.67c0.049,0.174,0.023,0.34-0.023,0.484
				c-0.031,0.098-0.119,0.273-0.213,0.365c-0.432,0.389-0.887,0.373-1.154,0.576c-0.26,0.158-0.378,0.535-0.223,0.664
				c0.164,0.146,0.4,0.158,0.531,0.17c0.141,0.01,0.213,0.002,0.213,0.002L63.994,81.171L63.994,81.171z"/>
		</g>
		<g id="g72">
			<path id="path74" inkscape:connector-curvature="0" fill="#FFBE99" d="M56.994,82.949c0.006,0.001-0.001,0.09,0.087,0.176
				c0.094,0.093,0.295,0.174,0.564,0.195c0.521,0.041,1.387-0.096,2.025-0.737c0.312-0.319,0.502-0.776,0.498-1.282
				c0-0.527-0.154-1.023-0.564-1.326c-0.406-0.302-0.998-0.391-1.586-0.369c-0.598,0.033-1.195,0.129-1.764,0.377
				c-0.613,0.228-1.143,0.498-1.702,0.781c-0.554,0.288-1.094,0.574-1.596,0.881c-1.026,0.566-2.044,1.178-3.021,1.471
				c-0.972,0.31-1.887,0.326-2.457,0.133c-0.287-0.083-0.5-0.178-0.634-0.26c-0.134-0.079-0.205-0.121-0.205-0.121l0.041-0.092
				c0,0,0.079,0.017,0.226,0.048c0.145,0.03,0.358,0.071,0.628,0.073c0.268,0.006,0.59-0.021,0.947-0.102
				c0.358-0.079,0.744-0.24,1.159-0.432c0.413-0.199,0.852-0.448,1.313-0.73c0.464-0.281,0.939-0.591,1.492-0.891
				c0.541-0.303,1.119-0.569,1.718-0.815c0.588-0.245,1.241-0.499,1.849-0.683c0.633-0.227,1.333-0.311,2-0.305
				c0.666,0.018,1.383,0.139,1.94,0.595c0.569,0.452,0.726,1.228,0.668,1.784c-0.037,0.606-0.322,1.164-0.716,1.508
				c-0.391,0.351-0.84,0.523-1.234,0.613c-0.398,0.09-0.759,0.09-1.048,0.045c-0.29-0.047-0.515-0.149-0.629-0.279
				c-0.117-0.146-0.095-0.247-0.101-0.238L56.994,82.949z"/>
		</g>
		<g id="g76">
			<path id="path78" inkscape:connector-curvature="0" fill="#FFBE99" d="M48.049,84.945c0,0,0.085,0.027,0.223,0.087
				c0.068,0.03,0.152,0.065,0.24,0.114c0.091,0.039,0.19,0.117,0.297,0.146c0.108,0.035,0.22,0.068,0.324,0.115
				c0.099,0.056,0.224,0.072,0.344,0.102c0.121,0.021,0.238,0.083,0.361,0.076l0.363,0.025c0.242-0.021,0.481-0.043,0.719-0.129
				c0.122-0.022,0.24-0.062,0.347-0.121c0.107-0.053,0.221-0.094,0.328-0.135c0.387-0.22,0.731-0.36,0.731-0.36
				s-0.021,0.083-0.071,0.226c-0.057,0.139-0.132,0.352-0.281,0.568c-0.084,0.102-0.179,0.213-0.291,0.32
				c-0.104,0.117-0.228,0.229-0.393,0.302c-0.158,0.073-0.309,0.196-0.497,0.231c-0.19,0.031-0.382,0.063-0.575,0.098
				c-0.194-0.014-0.388-0.053-0.576-0.082c-0.196-0.012-0.343-0.145-0.505-0.209c-0.324-0.137-0.542-0.424-0.721-0.612
				c-0.098-0.097-0.124-0.205-0.176-0.295c-0.047-0.089-0.08-0.175-0.11-0.243C48.075,85.031,48.049,84.945,48.049,84.945z"/>
		</g>
		<g id="g80">
			<path id="path82" inkscape:connector-curvature="0" fill="#FFBE99" d="M46.809,82.134c0,0,0.16,0.007,0.433-0.004
				c0.27-0.016,0.657-0.044,1.086-0.2c0.433-0.14,0.895-0.408,1.367-0.721c0.225-0.176,0.458-0.357,0.693-0.543
				c0.22-0.207,0.444-0.416,0.667-0.626c0.239-0.229,0.441-0.442,0.701-0.671c0.245-0.229,0.503-0.418,0.771-0.594
				c0.543-0.327,1.133-0.526,1.662-0.57c0.527-0.051,0.979,0.036,1.256,0.178c0.281,0.126,0.399,0.258,0.399,0.258l-0.043,0.09
				c0,0-0.163-0.021-0.425,0c-0.264,0.026-0.617,0.098-1.014,0.258c-0.396,0.152-0.834,0.398-1.301,0.682
				c-0.24,0.127-0.487,0.286-0.731,0.438c-0.241,0.142-0.503,0.356-0.747,0.529c-0.262,0.193-0.523,0.387-0.782,0.576
				c-0.271,0.176-0.548,0.333-0.808,0.49c-0.276,0.138-0.548,0.264-0.81,0.367c-0.278,0.07-0.524,0.174-0.774,0.197
				c-0.487,0.096-0.901,0.061-1.18,0.03c-0.277-0.034-0.432-0.063-0.432-0.063L46.809,82.134L46.809,82.134z"/>
		</g>
		
			<ellipse id="ellipse84" sodipodi:ry="0.91500002" sodipodi:rx="0.52499998" sodipodi:cy="78.976997" sodipodi:cx="50.323002" fill="none" stroke="#FFBE99" stroke-miterlimit="10" cx="50.323" cy="78.978" rx="0.526" ry="0.915">
		</ellipse>
		
			<ellipse id="ellipse86" sodipodi:ry="0.213" sodipodi:rx="0.56400001" sodipodi:cy="84.321999" sodipodi:cx="50.207001" fill="none" stroke="#FFBE99" stroke-miterlimit="10" cx="50.207" cy="84.322" rx="0.563" ry="0.213">
		</ellipse>
		<g id="g88">
			<path id="path90" inkscape:connector-curvature="0" fill="#FFBE99" d="M58.271,78.955c0,0-0.1,0.109-0.271,0.3
				c-0.176,0.188-0.446,0.455-0.821,0.726c-0.198,0.113-0.409,0.264-0.663,0.354c-0.248,0.113-0.523,0.168-0.812,0.238
				c-0.285,0.043-0.586,0.087-0.888,0.1L54.36,80.68c-0.084,0-0.139,0.008-0.248,0.002l-0.219-0.015
				c-0.298-0.024-0.578-0.019-0.886-0.06c-0.307-0.067-0.627-0.09-0.905-0.209c-0.572-0.193-1.05-0.543-1.391-0.854
				c-0.328-0.325-0.56-0.594-0.731-0.786c-0.179-0.177-0.282-0.299-0.282-0.299l0.045-0.09c0,0,0.151,0.023,0.415,0.104
				c0.266,0.072,0.615,0.252,1,0.441c0.377,0.189,0.796,0.361,1.273,0.501c0.231,0.083,0.479,0.137,0.729,0.219
				c0.255,0.081,0.562,0.13,0.844,0.19l0.215,0.044c0.035,0.009,0.13,0.018,0.19,0.024l0.414,0.051
				c0.273,0.027,0.541,0.023,0.801,0.021c0.516-0.031,0.979-0.15,1.369-0.311c0.381-0.18,0.679-0.379,0.885-0.53
				c0.205-0.155,0.321-0.245,0.321-0.245L58.271,78.955z"/>
		</g>
		<g id="g92">
			<path id="path94" inkscape:connector-curvature="0" fill="#FFBE99" d="M58.347,80.239c0,0-0.099,0.108-0.271,0.3
				c-0.177,0.188-0.447,0.454-0.822,0.725c-0.198,0.114-0.41,0.264-0.664,0.354c-0.248,0.113-0.522,0.168-0.81,0.238
				c-0.285,0.043-0.588,0.088-0.889,0.101l-0.455,0.009c-0.084-0.001-0.137,0.008-0.248,0.001l-0.22-0.014
				c-0.297-0.026-0.577-0.019-0.885-0.062c-0.308-0.067-0.626-0.09-0.905-0.209c-0.57-0.193-1.048-0.543-1.389-0.854
				c-0.328-0.325-0.56-0.595-0.731-0.786c-0.179-0.177-0.282-0.299-0.282-0.299l0.045-0.09c0,0,0.151,0.023,0.415,0.104
				c0.266,0.072,0.616,0.251,0.999,0.441c0.379,0.189,0.797,0.361,1.273,0.501c0.232,0.083,0.48,0.138,0.73,0.219
				c0.255,0.082,0.562,0.131,0.844,0.192l0.215,0.043c0.034,0.01,0.129,0.019,0.189,0.025l0.414,0.051
				c0.273,0.026,0.541,0.022,0.802,0.021c0.515-0.032,0.979-0.149,1.368-0.31c0.381-0.181,0.68-0.379,0.886-0.53
				c0.205-0.156,0.321-0.245,0.321-0.245L58.347,80.239z"/>
		</g>
		<g id="g96">
			<path id="path98" inkscape:connector-curvature="0" fill="#FFBE99" d="M42.446,78.727c0,0,0.117,0.09,0.321,0.246
				c0.207,0.151,0.505,0.351,0.886,0.529c0.39,0.159,0.854,0.277,1.369,0.311c0.26,0.002,0.527,0.006,0.801-0.021l0.414-0.05
				c0.062-0.009,0.156-0.017,0.19-0.025l0.215-0.044c0.282-0.061,0.588-0.109,0.843-0.191c0.25-0.082,0.498-0.137,0.73-0.22
				c0.478-0.14,0.896-0.311,1.273-0.501c0.383-0.189,0.733-0.369,1-0.441c0.265-0.08,0.416-0.104,0.416-0.104l0.045,0.09
				c0,0-0.104,0.122-0.282,0.299c-0.172,0.192-0.404,0.461-0.731,0.787c-0.341,0.312-0.817,0.66-1.389,0.854
				c-0.279,0.119-0.599,0.141-0.905,0.209c-0.308,0.042-0.588,0.034-0.885,0.062l-0.22,0.014c-0.112,0.007-0.164-0.002-0.248-0.002
				l-0.455-0.008c-0.301-0.013-0.603-0.058-0.888-0.102c-0.287-0.068-0.562-0.124-0.811-0.238c-0.254-0.09-0.464-0.238-0.664-0.354
				c-0.375-0.27-0.646-0.535-0.822-0.725c-0.173-0.19-0.271-0.3-0.271-0.3L42.446,78.727z"/>
		</g>
		<g id="g100">
			<path id="path102" inkscape:connector-curvature="0" fill="#FFBE99" d="M42.368,80.009c0,0,0.117,0.091,0.321,0.246
				c0.206,0.152,0.505,0.351,0.885,0.53c0.39,0.158,0.854,0.277,1.369,0.311c0.26,0.002,0.527,0.006,0.801-0.022l0.414-0.05
				c0.062-0.008,0.155-0.018,0.19-0.025l0.216-0.044c0.282-0.062,0.588-0.108,0.844-0.19c0.249-0.082,0.498-0.137,0.73-0.22
				c0.478-0.14,0.896-0.312,1.274-0.501c0.383-0.191,0.732-0.369,0.999-0.441c0.264-0.082,0.415-0.105,0.415-0.105l0.045,0.09
				c0,0-0.103,0.122-0.281,0.3c-0.172,0.192-0.404,0.462-0.731,0.786c-0.341,0.312-0.818,0.662-1.39,0.855
				c-0.279,0.119-0.599,0.142-0.906,0.209c-0.308,0.041-0.588,0.035-0.885,0.061l-0.22,0.014c-0.11,0.008-0.163-0.002-0.247,0
				L45.755,81.8c-0.301-0.012-0.603-0.057-0.888-0.1c-0.286-0.07-0.562-0.125-0.81-0.238c-0.254-0.09-0.465-0.239-0.664-0.354
				c-0.375-0.271-0.646-0.537-0.822-0.726c-0.172-0.19-0.271-0.3-0.271-0.3L42.368,80.009z"/>
		</g>
		<g id="g104">
			<path id="path106" inkscape:connector-curvature="0" fill="#FFBE99" d="M54.079,82.43c0,0-0.154,0.029-0.432,0.063
				c-0.278,0.028-0.692,0.063-1.181-0.031c-0.25-0.022-0.496-0.128-0.772-0.198c-0.262-0.104-0.534-0.229-0.811-0.365
				c-0.26-0.158-0.538-0.315-0.808-0.49c-0.257-0.19-0.52-0.383-0.781-0.576c-0.245-0.174-0.506-0.391-0.747-0.53
				c-0.245-0.151-0.492-0.311-0.732-0.438c-0.468-0.283-0.903-0.529-1.301-0.683c-0.396-0.16-0.75-0.23-1.013-0.259
				c-0.261-0.021-0.425,0.001-0.425,0.001l-0.043-0.09c0,0,0.118-0.132,0.4-0.258c0.277-0.143,0.728-0.229,1.256-0.178
				c0.529,0.043,1.119,0.244,1.662,0.572c0.268,0.176,0.525,0.363,0.77,0.594c0.259,0.228,0.462,0.439,0.702,0.67
				c0.224,0.209,0.447,0.42,0.667,0.625c0.236,0.186,0.469,0.367,0.693,0.543c0.473,0.313,0.934,0.582,1.366,0.722
				c0.429,0.157,0.816,0.187,1.086,0.2c0.273,0.011,0.433,0.005,0.433,0.005L54.079,82.43z"/>
		</g>
		<g id="g108">
			<path id="path110" inkscape:connector-curvature="0" fill="#FFBE99" d="M44.257,83.16c-0.007-0.01,0.018,0.092-0.1,0.238
				c-0.115,0.129-0.34,0.232-0.629,0.279c-0.29,0.045-0.649,0.045-1.048-0.044c-0.396-0.09-0.844-0.264-1.235-0.614
				c-0.394-0.343-0.679-0.899-0.716-1.506c-0.058-0.559,0.098-1.332,0.668-1.785c0.558-0.455,1.273-0.578,1.939-0.596
				c0.667-0.006,1.367,0.076,2,0.305c0.607,0.185,1.26,0.437,1.849,0.684c0.597,0.245,1.175,0.513,1.718,0.814
				c0.552,0.299,1.029,0.609,1.493,0.891c0.461,0.283,0.901,0.531,1.313,0.73c0.416,0.191,0.801,0.354,1.159,0.432
				c0.356,0.082,0.679,0.107,0.946,0.102c0.27-0.003,0.484-0.043,0.629-0.074c0.146-0.031,0.226-0.048,0.226-0.048l0.041,0.093
				c0,0-0.071,0.041-0.204,0.121c-0.135,0.082-0.348,0.176-0.635,0.26c-0.57,0.193-1.484,0.178-2.457-0.133
				c-0.976-0.293-1.994-0.903-3.02-1.47c-0.502-0.307-1.042-0.593-1.596-0.882c-0.561-0.284-1.089-0.555-1.703-0.782
				c-0.566-0.248-1.166-0.343-1.763-0.375c-0.588-0.021-1.18,0.068-1.586,0.369c-0.411,0.304-0.565,0.799-0.565,1.326
				c-0.004,0.505,0.186,0.963,0.498,1.282c0.641,0.643,1.505,0.777,2.027,0.736c0.27-0.021,0.471-0.104,0.564-0.195
				c0.087-0.086,0.082-0.176,0.086-0.176L44.257,83.16z"/>
		</g>
		<g id="g112">
			<path id="path114" inkscape:connector-curvature="0" fill="#FFBE99" d="M18.989,67.1c0,0-0.61,0.064-1.682,0.096
				c-1.071,0.027-2.607,0.029-4.443-0.161c-1.828-0.197-3.984-0.567-6.127-1.531c-1.066-0.485-2.112-1.146-3.01-2.015
				c-0.902-0.856-1.665-1.897-2.204-3.053c-0.544-1.151-0.867-2.422-0.881-3.705C0.62,55.456,0.943,54.146,1.693,53.1
				c0.375-0.519,0.866-0.947,1.394-1.259c0.564-0.329,1.146-0.478,1.73-0.539c1.145-0.114,2.377,0.234,3.048,1.12
				c0.306,0.385,0.526,0.913,0.563,1.385c0.042,0.488-0.08,0.961-0.303,1.32c-0.446,0.739-1.165,1.048-1.72,1.131
				c-0.569,0.086-1.012-0.02-1.287-0.119c-0.277-0.106-0.41-0.188-0.41-0.188l0.042-0.093c0,0.002,0.141,0.059,0.414,0.115
				c0.271,0.047,0.686,0.096,1.169-0.046c0.471-0.137,1.023-0.479,1.308-1.063c0.3-0.579,0.17-1.362-0.376-1.951
				c-0.491-0.583-1.413-0.812-2.334-0.667C4.478,52.324,4,52.479,3.612,52.707c-0.416,0.257-0.787,0.589-1.078,1.005
				c-0.609,0.813-0.917,1.902-0.946,3.024c-0.032,1.128,0.211,2.293,0.67,3.367c0.46,1.078,1.138,2.063,1.955,2.89
				c0.81,0.833,1.772,1.485,2.775,1.981c2.023,0.979,4.125,1.438,5.921,1.707c1.804,0.266,3.331,0.327,4.397,0.344
				C18.372,67.038,18.981,67,18.981,67L18.989,67.1z"/>
		</g>
		<g id="g116">
			<path id="path118" inkscape:connector-curvature="0" fill="#FFBE99" d="M19.115,64.895c0,0-0.435,0.055-1.197,0.078
				c-0.762,0.024-1.856,0.021-3.163-0.127c-1.302-0.15-2.833-0.429-4.369-1.078c-0.778-0.301-1.528-0.74-2.261-1.23
				c-0.737-0.51-1.373-1.221-1.841-2.001c-0.47-0.787-0.806-1.654-0.971-2.554c-0.162-0.896-0.167-1.836,0.134-2.725
				c0.152-0.441,0.395-0.867,0.747-1.203c0.156-0.156,0.408-0.332,0.552-0.414c0.207-0.115,0.395-0.209,0.593-0.281
				c0.789-0.271,1.625-0.344,2.366-0.071c0.731,0.272,1.213,0.903,1.386,1.458c0.205,0.562,0.149,1.121-0.032,1.506
				c-0.189,0.391-0.47,0.6-0.668,0.684c-0.201,0.082-0.311,0.106-0.311,0.105l-0.032-0.094c0,0,0.098-0.051,0.252-0.162
				c0.15-0.115,0.345-0.326,0.429-0.653c0.072-0.323,0.047-0.756-0.166-1.169c-0.206-0.426-0.595-0.771-1.106-0.919
				c-0.507-0.14-1.157-0.037-1.749,0.235c-0.146,0.068-0.299,0.144-0.424,0.219c-0.183,0.115-0.248,0.17-0.371,0.288
				C6.702,55,6.54,55.288,6.409,55.607c-0.48,1.326-0.239,3.115,0.54,4.547c0.395,0.724,0.913,1.363,1.563,1.857
				c0.667,0.485,1.36,0.934,2.094,1.249c1.447,0.673,2.919,1.046,4.193,1.257c1.276,0.213,2.359,0.274,3.116,0.293
				c0.758,0.016,1.189-0.016,1.189-0.016L19.115,64.895z"/>
		</g>
		<g id="g120">
			<path id="path122" inkscape:connector-curvature="0" fill="#FFBE99" d="M27.375,64.934c0,0-0.145-0.014-0.415-0.037
				c-0.273-0.029-0.663-0.037-1.167-0.006c-1.008,0.047-2.422,0.344-4.125,0.711c-1.7,0.364-3.74,0.721-5.954,0.646
				c-1.107-0.033-2.235-0.165-3.379-0.375c-1.141-0.21-2.288-0.524-3.398-0.965c-1.105-0.446-2.177-1.024-3.105-1.789
				c-0.931-0.759-1.706-1.706-2.22-2.744C3.1,59.333,2.829,58.232,2.75,57.193c-0.034-0.521-0.041-1.025-0.017-1.512
				c0.019-0.463,0.056-0.931,0.101-1.377c0.099-0.888,0.293-1.697,0.556-2.387c0.26-0.691,0.624-1.248,0.996-1.626
				c0.373-0.378,0.711-0.611,0.948-0.752c0.238-0.138,0.365-0.212,0.365-0.212l0.056,0.084c0,0-0.11,0.093-0.317,0.268
				c-0.201,0.179-0.498,0.44-0.786,0.835c-0.283,0.397-0.544,0.928-0.725,1.58c-0.184,0.652-0.267,1.426-0.309,2.272
				c-0.035,0.838-0.046,1.797,0.076,2.724c0.148,0.938,0.373,1.914,0.847,2.818c0.443,0.916,1.1,1.76,1.909,2.48
				c0.808,0.725,1.778,1.303,2.804,1.767c1.033,0.454,2.125,0.788,3.222,1.028c1.094,0.236,2.202,0.4,3.268,0.469
				c2.139,0.135,4.149-0.121,5.86-0.407c1.712-0.289,3.158-0.526,4.185-0.528c0.509-0.011,0.921,0.018,1.187,0.059
				c0.269,0.037,0.413,0.057,0.413,0.057L27.375,64.934z"/>
		</g>
		<g id="g124">
			<path id="path126" inkscape:connector-curvature="0" fill="#FFBE99" d="M28.4,63.523c0,0-0.369-0.271-1.141-0.45
				c-0.765-0.185-1.907-0.267-3.248-0.075c-0.675,0.109-1.406,0.23-2.18,0.357c-0.788,0.113-1.616,0.196-2.477,0.256
				c-0.86,0.064-1.752,0.098-2.664,0.09c-0.902-0.01-1.867-0.062-2.78-0.266c-0.924-0.19-1.843-0.479-2.683-0.927
				c-0.843-0.437-1.604-1.021-2.215-1.702c-0.611-0.681-1.07-1.449-1.392-2.211c-0.157-0.397-0.271-0.74-0.384-1.169
				c-0.078-0.319-0.12-0.834-0.081-1.178c0.048-0.749,0.271-1.38,0.492-1.91c0.225-0.53,0.457-0.971,0.677-1.313
				c0.432-0.691,0.743-1.037,0.743-1.037l0.083,0.055c0,0-0.204,0.412-0.49,1.148c-0.267,0.732-0.671,1.826-0.676,3.086
				c0.006,0.34,0.027,0.545,0.145,0.938c0.101,0.275,0.249,0.655,0.407,0.975c0.295,0.684,0.735,1.328,1.249,1.936
				c1.032,1.218,2.581,2.126,4.301,2.539c0.866,0.227,1.733,0.307,2.627,0.354c0.886,0.045,1.765,0.049,2.614,0.02
				c0.85-0.02,1.672-0.08,2.445-0.145c0.778-0.064,1.509-0.18,2.203-0.24c1.385-0.119,2.553,0.027,3.329,0.26
				c0.783,0.229,1.158,0.531,1.158,0.531L28.4,63.523L28.4,63.523z"/>
		</g>
		<g id="g128">
			<path id="path130" inkscape:connector-curvature="0" fill="#FFBE99" d="M24.942,63.895c0,0-0.047,0.424-0.256,1.135
				c-0.213,0.707-0.584,1.725-1.379,2.753c-0.4,0.507-0.91,1.012-1.555,1.407c-0.637,0.404-1.41,0.668-2.224,0.791
				c-0.806,0.129-1.692,0.078-2.506-0.047c-0.853-0.133-1.701-0.348-2.508-0.733c-0.808-0.369-1.561-0.931-2.121-1.657
				c-0.566-0.727-0.873-1.643-0.906-2.525c-0.014-0.886,0.212-1.729,0.594-2.42c0.188-0.348,0.407-0.662,0.643-0.94
				c0.243-0.286,0.45-0.523,0.785-0.761c0.596-0.418,1.227-0.547,1.759-0.623c0.538-0.071,1.004-0.053,1.38,0
				C17.4,60.37,17.8,60.521,17.8,60.521l-0.018,0.098c0,0-0.425-0.03-1.143,0.018c-0.358,0.036-0.79,0.084-1.256,0.217
				c-0.464,0.129-0.966,0.354-1.387,0.692c-0.373,0.334-0.789,0.909-1.045,1.489c-0.274,0.593-0.453,1.265-0.424,1.955
				c0.004,0.688,0.218,1.392,0.631,2.001c0.417,0.606,1.018,1.122,1.718,1.487c0.692,0.375,1.482,0.609,2.254,0.766
				c0.812,0.156,1.568,0.232,2.325,0.152c1.506-0.133,2.779-0.916,3.578-1.842c0.812-0.927,1.241-1.898,1.491-2.576
				c0.248-0.688,0.319-1.1,0.319-1.1L24.942,63.895L24.942,63.895z"/>
		</g>
		<g id="g132">
			<path id="path134" inkscape:connector-curvature="0" fill="#FFBE99" d="M25.81,67.198c0,0-0.197-0.058-0.543-0.159
				c-0.346-0.092-0.84-0.225-1.439-0.288c-0.298-0.037-0.622-0.043-0.947-0.009c-0.158,0.019-0.333,0.057-0.468,0.099
				c-0.185,0.062-0.346,0.136-0.484,0.209c-0.612,0.334-1.151,0.937-1.342,1.608c-0.091,0.331-0.1,0.671,0.011,0.951
				c0.035,0.066,0.052,0.14,0.095,0.201c0.047,0.08,0.101,0.19,0.143,0.246c0.08,0.125,0.176,0.258,0.281,0.36
				c0.388,0.435,0.891,0.548,1.448,0.495c0.543-0.062,1.026-0.229,1.37-0.329c0.337-0.119,0.543-0.183,0.542-0.183l0.056,0.084
				c0,0-0.139,0.16-0.42,0.41c-0.281,0.248-0.713,0.58-1.373,0.811c-0.333,0.104-0.734,0.175-1.183,0.1
				c-0.447-0.07-0.905-0.332-1.212-0.695c-0.155-0.183-0.278-0.377-0.393-0.598c-0.063-0.113-0.081-0.191-0.125-0.289
				c-0.053-0.115-0.079-0.242-0.116-0.363c-0.122-0.5-0.048-1.019,0.125-1.459c0.352-0.894,1.069-1.532,1.835-1.873
				c0.21-0.09,0.403-0.151,0.576-0.193c0.225-0.05,0.409-0.068,0.604-0.066c0.38,0.006,0.727,0.06,1.034,0.135
				c0.617,0.146,1.102,0.344,1.438,0.479c0.331,0.143,0.52,0.225,0.52,0.225L25.81,67.198z"/>
		</g>
		<g id="g136">
			<path id="path138" inkscape:connector-curvature="0" fill="#FFBE99" d="M28.589,65.168c0,0-0.718,0.066-1.711,0.407
				c-0.476,0.173-1.081,0.44-1.382,0.888c-0.301,0.43,0.008,1.012,0.457,1.487c0.128,0.133,0.208,0.217,0.356,0.333
				c0.139,0.127,0.271,0.215,0.391,0.281c0.246,0.153,0.542,0.254,0.805,0.336c0.546,0.134,1.086,0.211,1.588,0.195
				c0.499-0.007,0.94-0.051,1.262-0.06c0.32-0.021,0.513-0.003,0.513-0.003l0.022,0.098c0,0-0.157,0.096-0.43,0.262
				c-0.276,0.166-0.69,0.383-1.25,0.529c-0.55,0.148-1.29,0.219-2.022-0.053c-0.365-0.137-0.702-0.333-1.018-0.602
				c-0.169-0.134-0.312-0.267-0.42-0.396c-0.118-0.12-0.274-0.304-0.378-0.44c-0.229-0.309-0.446-0.647-0.556-1.06
				c-0.126-0.401-0.034-0.918,0.231-1.233c0.539-0.627,1.219-0.746,1.739-0.884c1.075-0.218,1.795-0.188,1.795-0.188L28.589,65.168
				L28.589,65.168z"/>
		</g>
		<g id="g140">
			<path id="path142" inkscape:connector-curvature="0" fill="#FFBE99" d="M45.034,70.213c0,0-0.21,0.171-0.616,0.405
				c-0.407,0.231-1.018,0.528-1.81,0.729c-0.788,0.193-1.771,0.288-2.792,0.07c-0.527-0.1-0.994-0.244-1.523-0.445
				c-0.508-0.201-1.015-0.473-1.469-0.834c-0.453-0.363-0.83-0.812-1.142-1.257c-0.313-0.433-0.578-0.907-0.835-1.269
				c-0.14-0.229-0.258-0.35-0.391-0.512c-0.147-0.15-0.292-0.299-0.447-0.431c-0.312-0.26-0.643-0.473-0.97-0.644
				c-0.331-0.16-0.649-0.299-0.944-0.394c-0.297-0.086-0.562-0.157-0.785-0.21c-0.446-0.098-0.713-0.13-0.713-0.13l-0.006-0.101
				c0,0,0.262-0.082,0.741-0.118c0.479-0.05,1.177-0.021,2.002,0.215c0.408,0.13,0.84,0.326,1.255,0.612
				c0.211,0.141,0.409,0.31,0.598,0.498c0.181,0.195,0.396,0.438,0.519,0.629c0.303,0.459,0.517,0.896,0.774,1.334
				c0.25,0.432,0.529,0.824,0.876,1.158c0.35,0.328,0.77,0.59,1.217,0.805c0.429,0.203,0.935,0.396,1.377,0.511
				c0.913,0.259,1.823,0.261,2.587,0.154c0.766-0.114,1.385-0.343,1.802-0.527c0.418-0.19,0.635-0.335,0.635-0.335L45.034,70.213
				L45.034,70.213z"/>
		</g>
		<g id="g144">
			<path id="path146" inkscape:connector-curvature="0" fill="#FFBE99" d="M35.527,69.46c0,0-0.264-0.364-0.791-0.759
				c-0.261-0.196-0.583-0.396-0.942-0.569c-0.354-0.184-0.764-0.301-1.167-0.397c-0.413-0.08-0.831-0.078-1.215-0.096
				c-0.194-0.007-0.38-0.02-0.56-0.053c-0.18-0.016-0.353-0.023-0.515-0.048c-0.325-0.058-0.602-0.058-0.807-0.111
				c-0.202-0.032-0.325-0.069-0.325-0.069l-0.021-0.099c0,0,0.097-0.075,0.282-0.178c0.184-0.106,0.451-0.257,0.8-0.34
				c0.344-0.108,0.766-0.163,1.22-0.144c0.454,0.051,0.921,0.201,1.372,0.369c0.445,0.188,0.876,0.398,1.234,0.667
				c0.369,0.249,0.661,0.546,0.886,0.812c0.454,0.533,0.635,0.963,0.635,0.963L35.527,69.46z"/>
		</g>
		<g id="g148">
			<path id="path150" inkscape:connector-curvature="0" fill="#FFBE99" d="M33.648,74.331c0,0-0.917-0.702-2.498-1.317
				c-0.79-0.297-1.743-0.57-2.775-0.648c-0.515-0.051-1.064-0.035-1.596,0.013c-0.54,0.052-1.083,0.149-1.603,0.306
				c-1.036,0.306-1.984,0.889-2.461,1.644c-0.23,0.354-0.356,0.757-0.356,1.167c-0.022,0.412,0.059,0.811,0.19,1.152
				c0.141,0.34,0.321,0.64,0.539,0.867c0.221,0.223,0.451,0.389,0.654,0.516c0.411,0.25,0.7,0.32,0.692,0.338l-0.017,0.098
				c0.003-0.018-0.298,0.036-0.814-0.098c-0.507-0.114-1.281-0.496-1.79-1.354c-0.253-0.421-0.414-0.943-0.445-1.514
				c-0.022-0.568,0.108-1.221,0.493-1.749c0.734-1.052,1.963-1.563,3.114-1.831c0.586-0.134,1.179-0.202,1.761-0.221
				c0.59-0.016,1.153,0.007,1.702,0.095c1.102,0.147,2.066,0.529,2.849,0.901c1.564,0.772,2.422,1.559,2.422,1.559L33.648,74.331z"
				/>
		</g>
		<g id="g152">
			<path id="path154" inkscape:connector-curvature="0" fill="#FFBE99" d="M32.815,75.3c0,0-0.652-0.475-1.777-0.834
				c-1.099-0.352-2.709-0.646-4.167-0.364c-0.732,0.145-1.434,0.43-1.868,0.808c-0.216,0.188-0.371,0.396-0.45,0.634
				c-0.09,0.294-0.122,0.502-0.1,0.738c0.038,0.46,0.344,0.824,0.576,1.059c0.246,0.227,0.42,0.325,0.42,0.325l-0.023,0.099
				c0,0-0.221,0.008-0.577-0.128c-0.344-0.122-0.899-0.437-1.163-1.161c-0.126-0.346-0.14-0.805-0.059-1.175
				c0.078-0.433,0.343-0.858,0.685-1.165c0.705-0.615,1.6-0.81,2.436-0.896c0.413-0.038,0.862-0.053,1.269-0.012
				c0.407,0.043,0.804,0.104,1.182,0.188c0.757,0.167,1.438,0.415,1.987,0.69c1.107,0.541,1.693,1.117,1.693,1.117L32.815,75.3z"/>
		</g>
		<g id="g156">
			<path id="path158" inkscape:connector-curvature="0" fill="#FFBE99" d="M25.697,75.505c0,0,0.231-0.146,0.679-0.282
				c0.444-0.137,1.126-0.269,1.942-0.129c0.825,0.152,1.649,0.562,2.57,0.741c0.455,0.073,0.921,0.077,1.395-0.019
				c0.23-0.045,0.489-0.123,0.696-0.183c0.271-0.094,0.411-0.183,0.614-0.315c0.368-0.267,0.662-0.648,0.979-1.06
				c0.317-0.405,0.667-0.845,1.11-1.166c0.206-0.159,0.453-0.319,0.745-0.435c0.276-0.102,0.566-0.15,0.845-0.149
				c0.562-0.003,1.067,0.21,1.438,0.515c0.364,0.311,0.602,0.75,0.59,1.179c-0.006,0.437-0.271,0.728-0.472,0.87
				c-0.421,0.3-0.707,0.297-0.7,0.314l-0.04-0.093c-0.012-0.007,0.249-0.134,0.507-0.461c0.123-0.164,0.207-0.388,0.161-0.603
				c-0.042-0.217-0.227-0.441-0.499-0.59c-0.263-0.16-0.611-0.231-0.95-0.199c-0.171,0.018-0.34,0.066-0.502,0.144
				c-0.146,0.063-0.313,0.165-0.488,0.315c-0.339,0.279-0.67,0.604-1.026,0.979c-0.354,0.368-0.754,0.794-1.272,1.099
				c-0.533,0.326-1.092,0.408-1.632,0.498c-0.547,0.074-1.109,0.035-1.618-0.084c-1.001-0.263-1.814-0.75-2.526-0.951
				c-0.729-0.2-1.386-0.145-1.824-0.055c-0.443,0.092-0.675,0.205-0.675,0.205L25.697,75.505L25.697,75.505z"/>
		</g>
		<g id="g160">
			<path id="path162" inkscape:connector-curvature="0" fill="#FFBE99" d="M28.74,78.999c0,0,0.585-0.229,1.517-0.408
				c0.466-0.089,1.022-0.165,1.633-0.138c0.305,0.009,0.624,0.051,0.948,0.121c0.321,0.072,0.659,0.203,0.957,0.363
				c0.285,0.15,0.578,0.321,0.855,0.541c0.275,0.217,0.547,0.517,0.674,0.942c0.131,0.435-0.018,0.903-0.217,1.179
				c-0.083,0.121-0.079,0.106-0.157,0.197c-0.071,0.08-0.148,0.148-0.218,0.193c-0.143,0.104-0.294,0.17-0.435,0.215
				c-0.574,0.148-0.971,0.048-1.248-0.004c-0.274-0.055-0.43-0.1-0.43-0.1l-0.007-0.1c0,0,0.154-0.064,0.421-0.141
				c0.257-0.092,0.661-0.172,0.956-0.371c0.072-0.049,0.135-0.102,0.181-0.163c0.029-0.032,0.038-0.06,0.051-0.076
				c0.006-0.008,0.081-0.134,0.067-0.125c0.068-0.181,0.066-0.3,0.033-0.431c-0.055-0.283-0.475-0.744-0.951-1.072
				c-0.889-0.658-2.18-0.688-3.076-0.684c-0.918,0.024-1.527,0.152-1.527,0.152L28.74,78.999z"/>
		</g>
		<g id="g164">
			<path id="path166" inkscape:connector-curvature="0" fill="#FFBE99" d="M35.939,81.229c0,0,0.074,0.006,0.214-0.002
				c0.13-0.014,0.366-0.024,0.529-0.172c0.155-0.13,0.039-0.507-0.221-0.664c-0.269-0.203-0.724-0.188-1.154-0.576
				c-0.093-0.094-0.181-0.269-0.213-0.365c-0.048-0.146-0.074-0.311-0.025-0.486c0.121-0.354,0.394-0.507,0.599-0.669
				c0.396-0.28,0.937-0.733,1.695-0.651c0.411,0.037,0.762,0.467,0.803,0.821l0.016,0.068l0.008,0.088
				c0.001,0.042,0.01,0.06,0,0.141c-0.012,0.146-0.053,0.255-0.11,0.355c-0.119,0.204-0.304,0.341-0.492,0.422
				c-0.379,0.153-0.802,0.136-1.167-0.045c-0.388-0.209-0.573-0.472-0.793-0.729c-0.209-0.271-0.401-0.604-0.461-1.015
				c-0.061-0.415,0.08-0.853,0.298-1.158c0.112-0.164,0.212-0.286,0.367-0.426l0.171-0.151l0.249-0.171
				c0.326-0.194,0.677-0.299,1.032-0.34c0.712-0.067,1.378,0.157,1.894,0.522c0.536,0.32,0.888,1.005,0.986,1.455
				c0.145,0.502,0.116,1.121-0.163,1.506c-0.252,0.389-0.558,0.598-0.812,0.728c-0.512,0.261-0.822,0.312-0.822,0.312l-0.044-0.09
				c0,0,0.06-0.049,0.172-0.143c0.112-0.088,0.278-0.219,0.453-0.404c0.172-0.186,0.384-0.41,0.47-0.693
				c0.092-0.278,0.056-0.57-0.102-0.934c-0.169-0.422-0.338-0.654-0.709-0.902c-0.348-0.235-0.803-0.354-1.239-0.344
				c-0.217,0.014-0.436,0.08-0.628,0.17l-0.128,0.065l-0.173,0.133c-0.073,0.054-0.178,0.154-0.241,0.235
				c-0.3,0.333-0.271,0.732,0.044,1.199c0.152,0.219,0.345,0.473,0.501,0.551c0.176,0.104,0.415,0.123,0.598,0.061
				c0.09-0.033,0.158-0.086,0.193-0.139c0.019-0.025,0.028-0.062,0.033-0.064c0.01,0.01,0.005-0.047,0.005-0.08
				c0-0.004-0.003-0.069,0.001-0.022l-0.008-0.04c-0.041-0.229-0.125-0.336-0.303-0.379c-0.187-0.039-0.439,0.014-0.66,0.109
				c-0.206,0.08-0.441,0.252-0.668,0.381c-0.22,0.131-0.421,0.267-0.467,0.395c-0.057,0.114,0.01,0.357,0.107,0.485
				c0.233,0.278,0.711,0.351,1.037,0.61c0.17,0.133,0.283,0.319,0.319,0.496c0.051,0.172,0.004,0.395-0.131,0.498
				c-0.266,0.19-0.499,0.155-0.643,0.164c-0.147-0.003-0.227-0.017-0.226-0.017L35.939,81.229L35.939,81.229z"/>
		</g>
	</g>
	<g enable-background="new    ">
		<path fill="#FF8996" d="M23.818,50.409h-4.835v5.499h-1.845V43.323h1.845v5.396h4.835v-5.396h1.845v12.585h-1.845V50.409z"/>
		<path fill="#FF8996" d="M34.838,53.094h-4.623l-0.937,2.814h-1.956l4.431-12.585H33.3l4.431,12.585h-1.948L34.838,53.094z
			 M34.312,51.403l-1.764-5.506h-0.034l-1.764,5.506H34.312z"/>
		<path fill="#FF8996" d="M47.274,52.393c-0.268,1.166-0.778,2.062-1.53,2.688c-0.775,0.62-1.692,0.931-2.752,0.931
			c-0.958-0.023-1.758-0.265-2.398-0.725c-0.652-0.443-1.125-0.955-1.421-1.537c-0.089-0.189-0.17-0.371-0.242-0.543
			c-0.067-0.179-0.123-0.403-0.167-0.674c-0.084-0.506-0.125-1.479-0.125-2.917c0-1.462,0.042-2.44,0.125-2.935
			c0.089-0.495,0.226-0.896,0.41-1.2c0.295-0.581,0.769-1.099,1.421-1.554c0.641-0.46,1.44-0.696,2.399-0.708
			c1.176,0.012,2.134,0.371,2.876,1.077c0.741,0.713,1.209,1.595,1.404,2.646h-1.959c-0.15-0.508-0.424-0.94-0.82-1.298
			c-0.413-0.34-0.916-0.516-1.507-0.527c-0.436,0.012-0.81,0.101-1.122,0.268c-0.318,0.174-0.575,0.39-0.771,0.649
			c-0.24,0.271-0.399,0.62-0.477,1.047c-0.089,0.449-0.134,1.294-0.134,2.534c0,1.239,0.044,2.078,0.134,2.517
			c0.078,0.438,0.237,0.793,0.478,1.064c0.195,0.259,0.452,0.47,0.771,0.631c0.313,0.19,0.687,0.285,1.123,0.285
			c1.039,0,1.815-0.573,2.329-1.721H47.274z"/>
		<path fill="#FF8996" d="M48.884,43.323h1.845v6.482h0.036l5.02-6.482h2.191l-3.906,4.964l4.315,7.621h-2.192l-3.322-6.154
			l-2.142,2.322v3.832h-1.845V43.323z"/>
		<path fill="#FF8996" d="M60.019,43.323h1.739l5.521,8.946h0.033v-8.946h1.846v12.585h-1.748l-5.512-8.946h-0.034v8.946h-1.845
			V43.323z"/>
		<path fill="#FF8996" d="M80.333,52.393c-0.268,1.166-0.777,2.062-1.53,2.688c-0.775,0.62-1.692,0.931-2.752,0.931
			c-0.958-0.023-1.758-0.265-2.398-0.725c-0.652-0.443-1.125-0.955-1.421-1.537c-0.089-0.189-0.17-0.371-0.242-0.543
			c-0.066-0.179-0.123-0.403-0.167-0.674c-0.084-0.506-0.125-1.479-0.125-2.917c0-1.462,0.041-2.44,0.125-2.935
			c0.089-0.495,0.226-0.896,0.409-1.2c0.296-0.581,0.77-1.099,1.422-1.554c0.641-0.46,1.44-0.696,2.399-0.708
			c1.176,0.012,2.135,0.371,2.876,1.077c0.741,0.713,1.209,1.595,1.404,2.646h-1.959c-0.151-0.508-0.425-0.94-0.821-1.298
			c-0.413-0.34-0.915-0.516-1.507-0.527c-0.436,0.012-0.81,0.101-1.122,0.268c-0.318,0.174-0.575,0.39-0.771,0.649
			c-0.24,0.271-0.398,0.62-0.478,1.047c-0.089,0.449-0.134,1.294-0.134,2.534c0,1.239,0.045,2.078,0.135,2.517
			c0.078,0.438,0.237,0.793,0.477,1.064c0.196,0.259,0.453,0.47,0.771,0.631c0.312,0.19,0.687,0.285,1.122,0.285
			c1.039,0,1.815-0.573,2.329-1.721H80.333z"/>
	</g>
	<g id="g170" transform="translate(0.45449126,0)">
		<g id="g172">
			<g id="g174">
				<path id="path176" inkscape:connector-curvature="0" fill="#FFBE99" d="M69.85,27.746c0,0,0.999,0.052,2.484,0.33
					c1.479,0.27,3.467,0.868,5.17,2.086c0.852,0.598,1.623,1.359,2.146,2.218l0.097,0.161l0.022,0.04l0.032,0.062l0.009,0.02
					l0.034,0.08l0.132,0.314c0.087,0.21,0.184,0.389,0.219,0.669c0.036,0.256,0.115,0.5,0.095,0.739
					c-0.025,0.239-0.023,0.467-0.084,0.68c-0.078,0.211-0.147,0.415-0.25,0.586c-0.125,0.162-0.244,0.312-0.359,0.442
					c-0.143,0.101-0.276,0.195-0.399,0.282c-0.125,0.079-0.271,0.097-0.381,0.139c-0.224,0.087-0.418,0.062-0.54,0.067
					c-0.122-0.002-0.188-0.003-0.188-0.003l-0.006-0.1c0,0,0.059-0.024,0.166-0.07c0.103-0.055,0.269-0.074,0.424-0.216
					c0.177-0.101,0.328-0.285,0.494-0.478c0.055-0.115,0.111-0.238,0.172-0.367c0.039-0.136,0.043-0.29,0.08-0.432
					c0.006-0.312-0.026-0.648-0.143-0.968c-0.021-0.15-0.139-0.361-0.229-0.564l-0.146-0.309l-0.036-0.078l-0.01-0.02
					c0.039,0.079,0.005,0.012,0.011,0.025l-0.022-0.034l-0.088-0.135c-0.424-0.755-1.012-1.5-1.74-2.119
					c-1.469-1.24-3.352-1.953-4.764-2.378c-1.424-0.419-2.416-0.572-2.416-0.572L69.85,27.746L69.85,27.746z"/>
			</g>
			<g id="g178">
				<path id="path180" inkscape:connector-curvature="0" fill="#FFBE99" d="M75.693,37.856c0,0,0.413,0.164,1.169,0.33
					c0.376,0.079,0.842,0.17,1.371,0.167c0.532,0.032,1.127-0.078,1.676-0.36c0.604-0.322,1.131-0.744,1.467-1.371
					c0.325-0.62,0.354-1.405,0.234-2.201c-0.143-0.751-0.568-1.463-1.043-2.172c-0.47-0.708-1.083-1.327-1.699-1.924
					c-0.656-0.56-1.351-1.074-2.086-1.493c-0.732-0.425-1.494-0.762-2.242-1.062c-0.381-0.134-0.756-0.265-1.121-0.394
					c-0.367-0.13-0.746-0.192-1.102-0.304c-0.711-0.229-1.418-0.299-2.062-0.423c-0.645-0.11-1.248-0.145-1.781-0.211
					c-0.533-0.074-1.004-0.054-1.391-0.084c-0.775-0.03-1.227-0.065-1.227-0.065l-0.01-0.1c0,0,0.438-0.08,1.221-0.186
					c0.391-0.052,0.865-0.145,1.415-0.137c0.549,0.004,1.177-0.075,1.854-0.006c0.676,0.076,1.422,0.095,2.189,0.276
					c0.782,0.112,1.568,0.393,2.389,0.665c0.793,0.344,1.603,0.726,2.358,1.23c0.765,0.491,1.476,1.08,2.142,1.712
					c0.635,0.665,1.252,1.349,1.725,2.125c0.24,0.383,0.469,0.771,0.646,1.185c0.097,0.198,0.181,0.411,0.251,0.642
					c0.088,0.243,0.112,0.398,0.149,0.661c0.086,0.846,0.04,1.763-0.397,2.492c-0.418,0.716-1.125,1.182-1.707,1.45
					c-0.654,0.296-1.31,0.364-1.857,0.303c-0.557-0.029-1.022-0.149-1.401-0.25c-0.758-0.211-1.166-0.4-1.166-0.4L75.693,37.856z"/>
			</g>
			<g id="g182">
				<path id="path184" inkscape:connector-curvature="0" fill="#FFBE99" d="M58.561,31.883c0,0-0.234,0.094-0.623,0.304
					c-0.383,0.213-0.939,0.535-1.454,1.058c-0.251,0.262-0.487,0.583-0.591,0.948c-0.114,0.363-0.053,0.757,0.146,1.122l0.082,0.135
					l0.033,0.052l0.057,0.071c0.073,0.094,0.15,0.202,0.224,0.259c0.131,0.141,0.321,0.278,0.508,0.384
					c0.379,0.22,0.832,0.331,1.288,0.359c0.456,0.028,0.925-0.035,1.342-0.161c0.385-0.108,0.838-0.374,1.197-0.559
					c0.385-0.221,0.754-0.478,1.173-0.704c0.421-0.229,0.869-0.374,1.267-0.448c0.424-0.075,0.817-0.08,1.17,0.003
					c0.354,0.075,0.631,0.286,0.785,0.489c0.312,0.432,0.195,0.745,0.219,0.731l-0.101,0.008c-0.009,0.012-0.039-0.278-0.348-0.518
					c-0.304-0.235-0.886-0.278-1.525-0.013c-0.338,0.127-0.663,0.295-0.985,0.529c-0.326,0.233-0.689,0.54-1.129,0.802
					c-0.467,0.283-0.895,0.488-1.482,0.629c-0.557,0.108-1.118,0.125-1.673,0.037c-0.552-0.092-1.104-0.261-1.57-0.585
					c-0.235-0.163-0.442-0.333-0.632-0.565c-0.104-0.114-0.161-0.213-0.229-0.314l-0.052-0.076
					c-0.038-0.058-0.036-0.068-0.058-0.104l-0.094-0.179c-0.225-0.487-0.271-1.081-0.071-1.544c0.188-0.465,0.503-0.795,0.805-1.054
					c0.617-0.508,1.214-0.771,1.625-0.949c0.416-0.173,0.664-0.244,0.664-0.243L58.561,31.883z"/>
			</g>
			<g id="g186">
				<path id="path188" inkscape:connector-curvature="0" fill="#FFBE99" d="M72.12,23.563c-0.482,0.258-1.004,0.449-1.548,0.542
					c-0.269,0.072-0.549,0.057-0.823,0.084c-0.14-0.003-0.277-0.024-0.416-0.037c-0.14-0.019-0.281-0.014-0.414-0.068
					c-0.268-0.088-0.541-0.159-0.785-0.267l-0.756-0.301c-0.25-0.108-0.506-0.161-0.758-0.245c-0.246-0.081-0.523-0.128-0.753-0.158
					l0.128-0.045c-0.221,0.218-0.439,0.506-0.49,0.76c-0.078,0.229,0.219,0.45,0.246,0.332c0.146-0.14,0.242-0.521,0.195-0.754
					c-0.011-0.056-0.029-0.098-0.036-0.083c-0.069-0.055-0.141-0.115-0.192-0.121c-0.094-0.043-0.264-0.092-0.414-0.137
					c-0.625-0.137-1.344-0.183-1.865,0.049c-0.335,0.145-0.564,0.298-0.803,0.507c-0.112,0.099-0.207,0.212-0.27,0.325
					c-0.044,0.055-0.046,0.113-0.072,0.167c-0.015,0.028-0.006,0.054-0.012,0.08l-0.005,0.039l-0.004,0.019
					c0.008,0.071-0.013-0.091-0.009-0.071l0.002,0.008l0.004,0.016c0.004,0.015,0.011,0.057,0.014,0.049
					c-0.002-0.048-0.035-0.103-0.076-0.125c-0.023-0.032-0.06-0.02-0.035-0.025c0.016,0.001,0.082-0.006,0.143-0.026
					c0.125-0.035,0.266-0.101,0.391-0.179c0.25-0.134,0.494-0.412,0.487-0.504c-0.09-0.377-0.579-0.902-1.11-1.155
					c-0.55-0.273-1.136-0.259-1.732-0.073c-0.561,0.199-1.131,0.569-1.534,1.016c-0.197,0.204-0.373,0.511-0.365,0.605
					c0.034,0.041-0.077-0.119-0.036-0.081v0.003c0.02,0.005-0.173-0.039-0.088-0.02l0.01,0.001l0.016,0.001l0.064,0.007l0.131,0.014
					c0.095,0.016,0.178,0.019,0.19-0.014c0.034-0.019,0.065-0.03,0.103-0.034c0.047-0.015,0.113-0.058,0.17-0.083
					c0.123-0.046,0.229-0.141,0.342-0.225c0.221-0.173,0.395-0.406,0.504-0.618c0.034-0.101,0.088-0.211,0.066-0.26
					c0.041-0.018-0.045-0.25-0.078-0.395c-0.09-0.257-0.207-0.537-0.383-0.747c-0.328-0.438-0.847-0.719-1.467-0.799
					c-0.634-0.116-1.259-0.046-1.918,0.08c-0.641,0.141-1.277,0.34-1.859,0.656c-0.586,0.309-1.105,0.733-1.537,1.241
					c-0.434,0.51-0.739,1.127-0.942,1.79l-0.098-0.02c0.079-0.701,0.325-1.393,0.715-2.007c0.386-0.619,0.937-1.127,1.543-1.535
					c0.61-0.402,1.284-0.715,1.996-0.898c0.692-0.18,1.478-0.303,2.223-0.208c0.757,0.056,1.617,0.391,2.136,1.077
					c0.271,0.328,0.438,0.696,0.576,1.094c0.043,0.191,0.122,0.287,0.125,0.622c0.026,0.308-0.07,0.52-0.154,0.746
					c-0.201,0.408-0.48,0.725-0.809,0.979c-0.169,0.124-0.331,0.251-0.535,0.334c-0.104,0.045-0.188,0.095-0.306,0.132
					c-0.133,0.033-0.271,0.059-0.408,0.076c-0.153,0.026-0.243,0.013-0.323-0.001l-0.129-0.017l-0.063-0.009l-0.017-0.002
					l-0.009-0.001c0.079,0.019-0.116-0.026-0.103-0.024l-0.059-0.026c-0.076-0.036-0.152-0.077-0.223-0.122
					c-0.075-0.067-0.146-0.146-0.207-0.229c-0.104-0.183-0.139-0.387-0.12-0.543c0.097-0.605,0.394-0.873,0.655-1.174
					c0.561-0.558,1.204-0.949,1.964-1.189c0.728-0.211,1.623-0.198,2.321,0.192c0.35,0.189,0.666,0.426,0.925,0.726
					c0.129,0.139,0.257,0.306,0.364,0.521c0.065,0.106,0.097,0.193,0.119,0.272l0.039,0.124c0.037,0.138,0.02,0.181,0.021,0.276
					c-0.047,0.32-0.215,0.497-0.359,0.65c-0.152,0.152-0.316,0.265-0.49,0.363c-0.174,0.099-0.354,0.18-0.564,0.234
					c-0.107,0.026-0.216,0.051-0.373,0.037c-0.062,0-0.184-0.033-0.281-0.099c-0.07-0.054-0.135-0.14-0.166-0.219
					c-0.017-0.046-0.013-0.05-0.02-0.077c-0.025-0.377,0.066-0.52,0.179-0.73c0.112-0.188,0.253-0.339,0.403-0.466
					c0.285-0.248,0.66-0.458,0.97-0.579c0.779-0.3,1.527-0.189,2.241-0.022c0.18,0.062,0.35,0.1,0.564,0.223
					c0.113,0.054,0.172,0.11,0.237,0.166c0.14,0.119,0.167,0.263,0.188,0.373c0.029,0.446-0.043,0.821-0.391,1.177
					c-0.101,0.083-0.261,0.148-0.423,0.118c-0.069-0.016-0.175-0.063-0.207-0.09c-0.044-0.04-0.048-0.023-0.124-0.11
					c-0.164-0.182-0.234-0.452-0.172-0.667c0.115-0.426,0.373-0.694,0.646-0.954l0.059-0.056l0.068,0.011
					c0.306,0.048,0.563,0.108,0.83,0.204c0.26,0.097,0.535,0.169,0.777,0.286l0.743,0.331c0.247,0.121,0.5,0.193,0.742,0.286
					c0.12,0.057,0.255,0.056,0.383,0.079c0.131,0.016,0.261,0.042,0.392,0.051c0.265-0.017,0.532,0.01,0.793-0.05
					c0.528-0.068,1.049-0.235,1.528-0.468L72.12,23.563z"/>
			</g>
			<g id="g190">
				<path id="path192" inkscape:connector-curvature="0" fill="#FFBE99" d="M50.253,29.632c0,0-0.103-0.46-0.11-1.174
					c0.01-0.355,0.016-0.781,0.137-1.226c0.04-0.227,0.136-0.449,0.21-0.684c0.113-0.219,0.197-0.463,0.354-0.67
					c0.136-0.222,0.295-0.429,0.479-0.614c0.164-0.211,0.39-0.34,0.595-0.485c0.209-0.146,0.449-0.188,0.664-0.256
					c0.213-0.076,0.426-0.065,0.616-0.077c0.384-0.029,0.69,0.058,0.902,0.122c0.21,0.058,0.323,0.11,0.323,0.11l-0.002,0.1
					c0,0-0.115,0.064-0.309,0.142c-0.097,0.045-0.211,0.09-0.341,0.134c-0.132,0.032-0.267,0.118-0.414,0.176
					c-0.146,0.072-0.312,0.109-0.459,0.207c-0.144,0.1-0.327,0.138-0.472,0.25c-0.158,0.088-0.336,0.163-0.489,0.283
					c-0.172,0.099-0.317,0.238-0.456,0.389c-0.152,0.139-0.249,0.329-0.376,0.494c-0.093,0.188-0.209,0.362-0.274,0.556
					c-0.164,0.375-0.26,0.756-0.342,1.084c-0.138,0.666-0.137,1.129-0.137,1.129L50.253,29.632L50.253,29.632z"/>
			</g>
			<g id="g194">
				<path id="path196" inkscape:connector-curvature="0" fill="#FFBE99" d="M49.913,22.709c0,0,0.021-0.503,0.059-1.383
					c0.025-0.44,0.061-0.974,0.121-1.586c0.065-0.613,0.135-1.302,0.34-2.057c0.056-0.18,0.132-0.403,0.265-0.574
					c0.12-0.172,0.255-0.331,0.401-0.485c0.146-0.153,0.306-0.301,0.488-0.437c0.192-0.123,0.364-0.289,0.73-0.29
					c0.488,0.05,0.541,0.621,0.407,0.857c-0.116,0.269-0.29,0.451-0.47,0.622c-0.183,0.168-0.377,0.315-0.595,0.446
					c-0.11,0.065-0.221,0.126-0.362,0.178c-0.09,0.012-0.105,0.082-0.373,0.018c-0.225-0.146-0.15-0.154-0.188-0.174l-0.048-0.064
					c-0.556-0.743-1.162-1.518-1.7-2.387c-0.12-0.239-0.294-0.411-0.332-0.852c-0.008-0.24-0.022-0.507-0.004-0.782
					c0.026-0.276,0.045-0.572,0.252-0.904c0.105-0.163,0.293-0.322,0.514-0.382l0.156-0.026c0.051-0.001-0.004-0.012,0.135-0.004
					l0.047,0.005c0.001-0.006,0.149,0.031,0.222,0.071c0.084,0.043,0.111,0.074,0.166,0.116c0.312,0.322,0.361,0.614,0.436,0.904
					c0.055,0.289,0.069,0.576,0.047,0.867c-0.024,0.3-0.074,0.57-0.252,0.889c-0.135,0.249-0.281,0.468-0.433,0.681
					c-0.305,0.423-0.63,0.813-0.986,1.18c-0.178,0.184-0.363,0.361-0.571,0.532c-0.102,0.085-0.216,0.169-0.344,0.25
					c-0.064,0.041-0.151,0.081-0.227,0.119c-0.103,0.037-0.221,0.079-0.372,0.081c-0.358-0.032-0.439-0.128-0.587-0.202
					c-0.129-0.079-0.239-0.163-0.344-0.25c-0.208-0.176-0.39-0.363-0.556-0.587c-0.083-0.113-0.161-0.235-0.229-0.389
					c-0.059-0.154-0.145-0.347-0.073-0.657c0.038-0.149,0.139-0.305,0.253-0.392c0.08-0.056,0.06-0.055,0.219-0.127l0.078-0.025
					c0.042-0.018,0.249-0.054,0.34-0.045c0.088,0.009,0.187,0.016,0.258,0.041c0.604,0.188,0.922,0.515,1.248,0.842
					c0.156,0.187,0.296,0.308,0.433,0.639c0.028,0.083,0.057,0.215,0.081,0.332l0.052,0.299c0.121,0.761,0.159,1.453,0.215,2.067
					c0.051,0.613,0.083,1.149,0.092,1.592c0.011,0.443,0.023,0.791,0.013,1.03c-0.004,0.234-0.033,0.38-0.033,0.38l-0.097-0.026
					c0,0-0.002-0.105-0.046-0.341c-0.044-0.231-0.108-0.57-0.189-1.001c-0.086-0.431-0.191-0.954-0.311-1.554
					c-0.127-0.594-0.271-1.264-0.428-1.995l-0.063-0.26c-0.021-0.071-0.029-0.129-0.071-0.23c-0.011-0.034-0.157-0.209-0.276-0.316
					c-0.248-0.236-0.599-0.475-0.835-0.515c-0.031-0.01-0.043,0-0.062-0.005c-0.016,0.015,0.079-0.021,0.018-0.003l-0.077,0.031
					c0.112-0.047,0.043-0.018,0.081-0.039c0.025-0.02,0.069-0.075,0.077-0.119c0-0.159,0.03,0.067,0.147,0.18
					c0.107,0.139,0.248,0.28,0.396,0.4c0.074,0.06,0.152,0.114,0.223,0.156c0.051,0.044,0.184,0.063,0.062,0.051
					c-0.034-0.001-0.038,0-0.029,0.001l0.088-0.044c0.074-0.045,0.154-0.099,0.237-0.166c0.166-0.129,0.333-0.28,0.497-0.441
					c0.325-0.323,0.646-0.673,0.935-1.042c0.143-0.184,0.279-0.374,0.391-0.558c0.083-0.11,0.156-0.335,0.176-0.533
					c0.027-0.207,0.028-0.425,0-0.63c-0.023-0.196-0.108-0.417-0.152-0.46c0.004,0.006-0.012-0.012,0.015,0.005
					c0.014,0.019,0.11,0.015,0.046,0.009l-0.046-0.007c0.107,0.004,0.021,0.003,0.042,0.005c-0.009,0.002-0.021,0-0.03,0
					c-0.025,0.008-0.042,0.014-0.079,0.057c-0.073,0.091-0.129,0.31-0.151,0.527c-0.024,0.224-0.023,0.458-0.026,0.715
					c-0.02,0.064,0.106,0.325,0.215,0.516c0.475,0.831,1.042,1.614,1.589,2.398l0.054,0.079c-0.003,0.025,0.094,0.08-0.076-0.043
					c-0.151-0.03-0.05-0.003-0.031-0.025c0.079-0.025,0.177-0.071,0.269-0.121c0.184-0.102,0.359-0.225,0.517-0.358
					c0.154-0.132,0.295-0.286,0.358-0.425c0.068-0.135,0.01-0.197,0.013-0.188c-0.073-0.018-0.282,0.076-0.431,0.18
					c-0.16,0.106-0.312,0.234-0.453,0.367c-0.287,0.285-0.522,0.528-0.621,0.875c-0.227,0.691-0.333,1.38-0.428,1.979
					c-0.09,0.603-0.152,1.132-0.199,1.569c-0.081,0.875-0.127,1.374-0.127,1.374L49.913,22.709L49.913,22.709z"/>
			</g>
			<g id="g198">
				<path id="path200" inkscape:connector-curvature="0" fill="#FFBE99" d="M46.031,15.065c0,0-0.129-0.023-0.358-0.017
					c-0.218,0.003-0.578,0.056-0.902,0.318c-0.341,0.24-0.54,0.783-0.314,1.315c0.212,0.513,0.726,1.06,1.35,1.334
					c0.646,0.278,1.458,0.166,2.187-0.21c0.737-0.367,1.43-0.947,2.019-1.639c0.292-0.348,0.56-0.728,0.764-1.131
					c0.099-0.201,0.183-0.41,0.224-0.606c0.033-0.199,0.078-0.486,0.084-0.691c0.082-0.921-0.226-1.841-1.052-1.994
					c-0.097-0.027-0.202-0.04-0.307-0.05c-0.042-0.001-0.131-0.01-0.134-0.007l-0.189,0.008c-0.173,0.025-0.34,0.077-0.503,0.171
					c-0.309,0.197-0.532,0.538-0.642,0.93c-0.103,0.395-0.127,0.824-0.052,1.242c0.041,0.248,0.067,0.32,0.179,0.539
					c0.096,0.194,0.201,0.395,0.315,0.588c0.462,0.77,0.995,1.479,1.565,2.042c0.588,0.56,1.209,0.926,1.86,0.846
					c0.659-0.029,1.221-0.343,1.409-0.824c0.197-0.474,0.108-1.003-0.101-1.335c-0.206-0.346-0.512-0.496-0.725-0.542
					c-0.217-0.046-0.343-0.027-0.343-0.027l-0.016-0.099c0,0,0.125-0.045,0.38-0.037c0.25,0.003,0.648,0.136,0.961,0.52
					c0.305,0.369,0.546,0.997,0.332,1.699c-0.2,0.725-0.986,1.266-1.83,1.374c-0.391,0.09-0.936,0.025-1.354-0.153
					c-0.434-0.179-0.823-0.438-1.184-0.737c-0.722-0.597-1.324-1.35-1.842-2.195c-0.129-0.213-0.257-0.43-0.369-0.668
					c-0.114-0.209-0.233-0.602-0.25-0.84c-0.078-0.543-0.045-1.124,0.137-1.681c0.184-0.552,0.553-1.097,1.119-1.415
					c0.278-0.15,0.604-0.238,0.933-0.254l0.189,0.001c0.123,0.002,0.159,0.014,0.243,0.021c0.145,0.021,0.291,0.046,0.436,0.093
					c0.58,0.157,1.133,0.622,1.345,1.191c0.235,0.562,0.233,1.125,0.188,1.658c-0.026,0.29-0.067,0.492-0.126,0.776
					c-0.07,0.285-0.186,0.528-0.31,0.759c-0.255,0.458-0.562,0.855-0.892,1.221c-0.667,0.722-1.425,1.318-2.261,1.689
					c-0.82,0.375-1.792,0.471-2.539,0.101c-0.736-0.383-1.208-0.958-1.444-1.58c-0.236-0.637,0.048-1.295,0.45-1.539
					c0.387-0.277,0.768-0.309,1.012-0.301c0.244,0.008,0.364,0.037,0.364,0.037L46.031,15.065z"/>
			</g>
			<g id="g202">
				<path id="path204" inkscape:connector-curvature="0" fill="#FFBE99" d="M29.257,27.921c0,0-0.991,0.153-2.416,0.572
					c-1.412,0.425-3.294,1.138-4.763,2.378c-0.729,0.619-1.317,1.364-1.741,2.119l-0.089,0.136l-0.022,0.034
					c0.006-0.014-0.028,0.053,0.01-0.026l-0.009,0.02l-0.037,0.078l-0.145,0.309c-0.091,0.203-0.208,0.414-0.229,0.564
					c-0.115,0.32-0.148,0.657-0.143,0.968c0.039,0.143,0.042,0.296,0.081,0.432c0.06,0.129,0.117,0.252,0.171,0.368
					c0.167,0.192,0.319,0.376,0.495,0.478c0.156,0.141,0.322,0.16,0.424,0.215c0.108,0.045,0.166,0.07,0.166,0.07l-0.006,0.1
					c0,0-0.065,0.001-0.187,0.003c-0.122-0.005-0.316,0.021-0.541-0.067c-0.111-0.042-0.255-0.06-0.38-0.138
					c-0.124-0.087-0.258-0.182-0.401-0.282c-0.115-0.13-0.233-0.28-0.359-0.442c-0.103-0.171-0.171-0.375-0.25-0.586
					c-0.06-0.213-0.059-0.441-0.085-0.68c-0.021-0.238,0.059-0.483,0.095-0.739c0.035-0.28,0.132-0.46,0.219-0.67l0.132-0.314
					l0.033-0.08l0.008-0.02l0.033-0.063l0.024-0.04l0.096-0.161c0.523-0.859,1.294-1.621,2.145-2.218
					c1.705-1.218,3.691-1.816,5.17-2.086c1.486-0.279,2.485-0.332,2.485-0.331L29.257,27.921z"/>
			</g>
			<g id="g206">
				<path id="path208" inkscape:connector-curvature="0" fill="#FFBE99" d="M23.438,38.027c0,0-0.409,0.189-1.166,0.401
					c-0.378,0.101-0.846,0.222-1.401,0.25c-0.55,0.062-1.203-0.007-1.859-0.302c-0.583-0.268-1.288-0.733-1.708-1.45
					c-0.438-0.729-0.484-1.645-0.398-2.491c0.038-0.263,0.063-0.418,0.149-0.661c0.07-0.231,0.156-0.444,0.251-0.642
					c0.176-0.414,0.404-0.802,0.646-1.185c0.471-0.777,1.09-1.461,1.724-2.126c0.666-0.632,1.378-1.221,2.141-1.712
					c0.757-0.503,1.566-0.886,2.359-1.23c0.82-0.271,1.606-0.552,2.389-0.664c0.768-0.181,1.514-0.2,2.19-0.276
					c0.679-0.069,1.306,0.01,1.855,0.006c0.55-0.008,1.025,0.085,1.416,0.137c0.781,0.107,1.22,0.187,1.22,0.187l-0.009,0.1
					c0,0-0.45,0.036-1.226,0.065c-0.388,0.03-0.857,0.01-1.391,0.084c-0.534,0.066-1.137,0.101-1.783,0.211
					c-0.643,0.125-1.35,0.194-2.062,0.423c-0.355,0.112-0.734,0.174-1.101,0.304c-0.366,0.129-0.741,0.26-1.122,0.394
					c-0.748,0.299-1.509,0.636-2.242,1.061c-0.736,0.419-1.429,0.934-2.086,1.493c-0.617,0.598-1.23,1.217-1.7,1.925
					c-0.475,0.709-0.9,1.421-1.043,2.172c-0.118,0.796-0.09,1.582,0.236,2.201c0.335,0.627,0.864,1.048,1.466,1.371
					c0.548,0.281,1.144,0.391,1.676,0.359c0.53,0.003,0.996-0.088,1.372-0.167c0.755-0.166,1.169-0.33,1.169-0.33L23.438,38.027z"/>
			</g>
			<g id="g210">
				<path id="path212" inkscape:connector-curvature="0" fill="#FFBE99" d="M27.019,23.552c0.481,0.233,1,0.4,1.528,0.468
					c0.262,0.06,0.53,0.033,0.793,0.05c0.131-0.008,0.261-0.035,0.392-0.051c0.129-0.023,0.264-0.021,0.383-0.079
					c0.242-0.093,0.495-0.166,0.743-0.286l0.743-0.331c0.243-0.116,0.518-0.189,0.777-0.286c0.267-0.095,0.525-0.156,0.83-0.204
					l0.07-0.011l0.059,0.056c0.273,0.259,0.532,0.526,0.648,0.952c0.063,0.214-0.007,0.486-0.172,0.667
					c-0.076,0.088-0.08,0.07-0.124,0.111c-0.03,0.026-0.136,0.074-0.207,0.091c-0.161,0.03-0.322-0.033-0.423-0.117
					c-0.349-0.355-0.422-0.73-0.393-1.176c0.02-0.11,0.045-0.252,0.187-0.375c0.066-0.056,0.124-0.112,0.237-0.166
					c0.216-0.123,0.385-0.161,0.565-0.223c0.714-0.167,1.461-0.278,2.241,0.021c0.308,0.12,0.685,0.33,0.97,0.578
					c0.15,0.127,0.292,0.278,0.404,0.466c0.112,0.21,0.204,0.352,0.18,0.73c-0.006,0.025-0.005,0.034-0.017,0.073
					c-0.031,0.078-0.093,0.165-0.163,0.221c-0.103,0.07-0.22,0.102-0.285,0.103c-0.158,0.015-0.267-0.01-0.374-0.036
					c-0.211-0.054-0.391-0.135-0.565-0.234c-0.173-0.098-0.337-0.211-0.49-0.363c-0.146-0.153-0.313-0.33-0.362-0.649
					c0.002-0.096-0.016-0.137,0.021-0.278l0.041-0.124c0.022-0.079,0.052-0.165,0.117-0.271c0.108-0.216,0.236-0.383,0.365-0.522
					c0.258-0.3,0.576-0.537,0.925-0.727c0.699-0.39,1.594-0.403,2.322-0.193c0.759,0.24,1.405,0.631,1.964,1.189
					c0.263,0.301,0.559,0.569,0.655,1.173c0.019,0.156-0.015,0.359-0.119,0.543c-0.06,0.082-0.131,0.161-0.206,0.229
					c-0.071,0.047-0.146,0.086-0.223,0.123L41,24.721c0.077-0.017-0.122,0.03-0.104,0.025l-0.008,0.001l-0.016,0.002l-0.064,0.009
					l-0.129,0.018c-0.08,0.014-0.168,0.027-0.323,0.001c-0.137-0.018-0.275-0.043-0.408-0.076c-0.119-0.038-0.202-0.087-0.305-0.132
					c-0.205-0.083-0.368-0.21-0.536-0.334c-0.327-0.254-0.607-0.571-0.81-0.979c-0.083-0.227-0.181-0.439-0.153-0.747
					c0.002-0.336,0.081-0.43,0.123-0.622c0.139-0.398,0.305-0.767,0.577-1.095c0.518-0.686,1.379-1.021,2.135-1.077
					c0.746-0.095,1.531,0.028,2.223,0.208c0.711,0.183,1.386,0.497,1.997,0.898c0.606,0.407,1.157,0.916,1.542,1.535
					c0.39,0.614,0.635,1.306,0.715,2.007l-0.098,0.02c-0.203-0.663-0.508-1.28-0.942-1.79c-0.432-0.508-0.952-0.932-1.537-1.241
					c-0.582-0.315-1.22-0.515-1.861-0.655c-0.659-0.126-1.283-0.196-1.917-0.08c-0.621,0.08-1.137,0.36-1.466,0.799
					c-0.175,0.21-0.292,0.491-0.382,0.747c-0.035,0.144-0.12,0.378-0.078,0.396c-0.022,0.049,0.032,0.159,0.066,0.26
					c0.109,0.211,0.283,0.444,0.504,0.617c0.111,0.084,0.219,0.179,0.341,0.225c0.056,0.025,0.124,0.069,0.169,0.083
					c0.037,0.004,0.069,0.014,0.103,0.034c0.014,0.032,0.099,0.029,0.192,0.013l0.13-0.014l0.065-0.006l0.016-0.002h0.008
					c0.024-0.005-0.17,0.04-0.088,0.02l0.001-0.003c0.04-0.038-0.07,0.123-0.038,0.082c0.007-0.095-0.168-0.401-0.366-0.606
					c-0.405-0.446-0.974-0.816-1.535-1.015c-0.598-0.186-1.184-0.2-1.732,0.074c-0.533,0.253-1.022,0.779-1.111,1.155
					c-0.005,0.092,0.238,0.37,0.489,0.504c0.125,0.078,0.266,0.144,0.391,0.178c0.06,0.02,0.125,0.027,0.141,0.026
					c0.022,0.006-0.011-0.007-0.04,0.027c-0.04,0.024-0.072,0.08-0.073,0.126c0.003,0,0.01-0.037,0.014-0.053l0.004-0.016
					l0.002-0.008c0.003-0.02-0.018,0.143-0.01,0.072l-0.003-0.02l-0.005-0.039c-0.006-0.026,0.003-0.052-0.012-0.08
					c-0.027-0.054-0.029-0.112-0.073-0.167c-0.062-0.113-0.156-0.226-0.269-0.325c-0.239-0.208-0.468-0.361-0.803-0.506
					c-0.523-0.23-1.242-0.186-1.866-0.048c-0.152,0.044-0.321,0.093-0.413,0.136c-0.053,0.005-0.125,0.067-0.194,0.122
					c-0.002-0.018-0.025,0.026-0.035,0.083c-0.046,0.233,0.052,0.615,0.198,0.753c0.027,0.118,0.324-0.104,0.245-0.333
					c-0.05-0.254-0.271-0.542-0.492-0.76l0.128,0.045c-0.229,0.03-0.507,0.078-0.752,0.158c-0.252,0.084-0.507,0.137-0.759,0.245
					l-0.755,0.301c-0.245,0.107-0.518,0.178-0.786,0.266c-0.131,0.055-0.274,0.049-0.413,0.068
					c-0.139,0.012-0.277,0.033-0.416,0.036c-0.276-0.028-0.557-0.013-0.824-0.084c-0.544-0.093-1.064-0.285-1.548-0.542
					L27.019,23.552z"/>
			</g>
			<g id="g214">
				<path id="path216" inkscape:connector-curvature="0" fill="#FFBE99" d="M48.616,29.7c0,0,0-0.463-0.137-1.129
					c-0.083-0.328-0.178-0.709-0.342-1.084c-0.066-0.194-0.184-0.369-0.276-0.556c-0.127-0.165-0.224-0.354-0.376-0.494
					c-0.139-0.151-0.284-0.29-0.456-0.389c-0.153-0.12-0.331-0.195-0.489-0.283c-0.145-0.112-0.328-0.15-0.472-0.25
					c-0.146-0.098-0.315-0.135-0.459-0.207c-0.148-0.059-0.282-0.145-0.414-0.176c-0.129-0.044-0.245-0.089-0.341-0.134
					c-0.192-0.079-0.309-0.143-0.309-0.143l-0.002-0.1c0,0,0.114-0.052,0.325-0.109c0.211-0.065,0.519-0.151,0.902-0.122
					c0.19,0.011,0.404,0,0.618,0.077c0.214,0.067,0.455,0.11,0.663,0.256c0.206,0.145,0.431,0.274,0.595,0.485
					c0.186,0.186,0.344,0.393,0.479,0.614c0.156,0.207,0.24,0.451,0.354,0.67c0.074,0.235,0.171,0.457,0.21,0.684
					c0.121,0.445,0.128,0.871,0.138,1.226c-0.009,0.714-0.111,1.174-0.111,1.174L48.616,29.7z"/>
			</g>
			<g id="g218">
				<path id="path220" inkscape:connector-curvature="0" fill="#FFBE99" d="M40.606,31.687c0,0,0.248,0.07,0.664,0.243
					c0.412,0.178,1.008,0.441,1.625,0.949c0.301,0.259,0.617,0.589,0.804,1.054c0.2,0.463,0.151,1.057-0.074,1.544l-0.092,0.179
					c-0.021,0.036-0.021,0.046-0.058,0.104l-0.05,0.076c-0.068,0.101-0.125,0.2-0.23,0.314c-0.188,0.233-0.396,0.403-0.631,0.566
					c-0.467,0.323-1.021,0.493-1.571,0.584c-0.555,0.088-1.117,0.072-1.672-0.037c-0.589-0.142-1.015-0.347-1.482-0.629
					c-0.44-0.261-0.803-0.569-1.13-0.802c-0.323-0.234-0.647-0.402-0.985-0.528c-0.64-0.266-1.223-0.222-1.526,0.013
					c-0.308,0.24-0.339,0.53-0.348,0.517l-0.1-0.008c0.022,0.013-0.093-0.299,0.219-0.731c0.154-0.204,0.431-0.415,0.785-0.49
					c0.353-0.083,0.747-0.079,1.169-0.003c0.397,0.074,0.847,0.219,1.267,0.448c0.418,0.226,0.788,0.483,1.172,0.704
					c0.359,0.186,0.814,0.451,1.198,0.559c0.417,0.126,0.886,0.189,1.342,0.161c0.456-0.028,0.909-0.138,1.288-0.358
					c0.186-0.106,0.377-0.244,0.508-0.384c0.072-0.057,0.148-0.164,0.223-0.258l0.056-0.072C42.973,35.41,43,35.365,43.01,35.35
					l0.084-0.134c0.198-0.365,0.261-0.759,0.146-1.122c-0.102-0.366-0.339-0.687-0.589-0.949c-0.515-0.523-1.071-0.845-1.454-1.058
					c-0.389-0.21-0.624-0.304-0.624-0.304L40.606,31.687z"/>
			</g>
		</g>
		<g id="g222">
			<g id="g224">
				<path id="path226" inkscape:connector-curvature="0" fill="#FFBE99" d="M48.293,35.503c0,0,0.446,0.324,1.026,0.931
					c0.285,0.309,0.621,0.679,0.833,1.229c0.099,0.272,0.171,0.625,0.022,1.004c-0.076,0.198-0.318,0.772-0.953,0.724
					c-0.576-0.109-0.768-0.526-0.899-0.868c-0.052-0.183-0.086-0.375-0.065-0.566l0.002-0.036l0.001-0.018l0.019-0.083l0.013-0.047
					l0.026-0.094l0.052-0.187c0.08-0.153,0.16-0.307,0.252-0.445c0.089-0.129,0.171-0.213,0.26-0.313
					c0.167-0.198,0.35-0.342,0.514-0.484c0.344-0.263,0.646-0.453,0.888-0.551c0.226-0.112,0.396-0.141,0.388-0.141l0.045,0.09
					c0,0-0.073,0.116-0.205,0.318c-0.122,0.209-0.309,0.496-0.527,0.826c-0.098,0.171-0.229,0.343-0.333,0.528
					c-0.052,0.088-0.106,0.178-0.162,0.271c-0.03,0.075-0.076,0.139-0.124,0.207l-0.07,0.18l-0.035,0.091l-0.018,0.046l-0.002,0.006
					l-0.001,0.003c-0.004,0.016,0.03-0.132,0.015-0.068v0.007l-0.002,0.013c-0.015,0.07-0.022,0.147-0.021,0.226
					c0,0.159,0.123,0.303,0.108,0.299c-0.048,0.026,0.088,0.028,0.214-0.234c0.073-0.119,0.089-0.323,0.041-0.535
					c-0.104-0.429-0.339-0.847-0.553-1.181c-0.44-0.674-0.818-1.074-0.818-1.074L48.293,35.503z"/>
			</g>
			<g id="g228">
				<path id="path230" inkscape:connector-curvature="0" fill="#FFBE99" d="M50.723,35.927c0.006,0.003,0.035-0.027,0.144-0.045
					c0.108-0.019,0.271-0.012,0.448,0.088c0.165,0.102,0.377,0.287,0.354,0.665c0.004,0.18-0.199,0.414-0.283,0.461
					c-0.057,0.06-0.17,0.143-0.313,0.224c-0.133,0.063-0.274,0.123-0.437,0.145c-0.159,0.01-0.324-0.002-0.463-0.063
					c-0.276-0.123-0.419-0.338-0.504-0.504c-0.076-0.18-0.097-0.333-0.088-0.448c0-0.109,0.017-0.176,0.017-0.176l0.078-0.062
					c0,0,0.077,0.013,0.176,0.045c0.088,0.026,0.214,0.063,0.364,0.107c0.123,0.044,0.252,0.057,0.324,0.069
					c0.066,0.011,0.113,0.075,0.239,0.08c0.039,0.005,0.104,0.004,0.208-0.05c0.088-0.041,0.027,0.039,0.066,0.033
					c0.052,0.002,0.05-0.147,0.005-0.242c-0.095-0.212-0.324-0.227-0.324-0.227L50.723,35.927z"/>
			</g>
			<g id="g232">
				<path id="path234" inkscape:connector-curvature="0" fill="#FFBE99" d="M48.004,36.042c0,0-0.229,0.015-0.323,0.227
					c-0.045,0.095-0.047,0.244,0.004,0.242c0.039,0.006-0.021-0.073,0.067-0.033c0.104,0.054,0.17,0.055,0.208,0.05
					c0.125-0.005,0.173-0.069,0.24-0.08c0.071-0.012,0.201-0.024,0.323-0.069c0.151-0.044,0.277-0.081,0.365-0.107
					c0.099-0.033,0.176-0.045,0.176-0.045l0.078,0.062c0,0,0.018,0.066,0.017,0.176c0.008,0.116-0.012,0.269-0.088,0.448
					c-0.084,0.167-0.228,0.381-0.505,0.504c-0.138,0.061-0.303,0.073-0.463,0.063c-0.162-0.022-0.303-0.082-0.436-0.145
					c-0.146-0.081-0.258-0.164-0.314-0.224c-0.085-0.048-0.288-0.282-0.284-0.461c-0.024-0.378,0.188-0.563,0.353-0.665
					c0.178-0.1,0.34-0.107,0.448-0.088c0.109,0.019,0.138,0.049,0.144,0.045L48.004,36.042z"/>
			</g>
			<path id="path236" inkscape:connector-curvature="0" fill="none" stroke="#FFBE99" stroke-miterlimit="10" d="M46.025,35.774
				c-0.062,0.203,0.922-0.297,1.312-0.375c0.401-0.08,1.031-0.156,1.312,0.094c0.281,0.25,0.609,1,0.625,1.109s0.499-1.004,1-1.125
				c0.391-0.094,1.125-0.141,1.438-0.031c0.369,0.129,1.201,0.725,1.172,0.594c-0.03-0.141-0.577-2.359-0.672-2.781
				c-0.056-0.25-0.733,0.203-1.422-0.188c-0.474-0.269-0.844-0.484-1.375-0.484c-0.484,0-1.22,0.454-1.531,0.578
				c-0.234,0.094-1.219,0.281-1.25,0.141C46.574,33.03,46.307,34.86,46.025,35.774z"/>
			<g id="g238">
				<path id="path240" inkscape:connector-curvature="0" fill="#FFBE99" d="M46.275,33.636c0,0-0.08-0.001-0.232-0.031
					c-0.144-0.042-0.36-0.045-0.617-0.234c-0.126-0.101-0.218-0.284-0.216-0.497c-0.004-0.149-0.021-0.272,0.06-0.495
					c0.046-0.215,0.199-0.388,0.362-0.554c0.098-0.059,0.205-0.116,0.315-0.168c0.043-0.015,0.019-0.021,0.119-0.042l0.061-0.013
					l0.126-0.025c0.273-0.017,0.488,0.002,0.719,0.093c0.234,0.069,0.458,0.274,0.6,0.531c0.11,0.285,0.091,0.55,0.015,0.76
					l-0.001,0.005l-0.023,0.069v0.001l-0.004,0.005l-0.007,0.011l-0.015,0.022c-0.01,0.015-0.018,0.03-0.03,0.043l-0.068,0.081
					c-0.045,0.058-0.091,0.094-0.155,0.153c-0.168,0.129-0.31,0.241-0.444,0.255c-0.139,0.01-0.235,0.045-0.317,0.032
					C46.36,33.633,46.275,33.636,46.275,33.636L46.275,33.636z M46.275,33.537c0,0,0.078-0.021,0.2-0.075
					c0.064-0.021,0.111-0.105,0.155-0.172c0.05-0.067,0.02-0.174,0.026-0.215c0-0.042-0.012-0.134-0.004-0.197l0.006-0.107
					c0-0.019,0.005-0.035,0.008-0.053l0.004-0.026l0.002-0.014l0.001-0.006V32.67c0.02-0.061-0.027,0.081-0.022,0.066l-0.001-0.001
					c-0.02-0.033-0.026-0.057-0.022-0.082c-0.012-0.018-0.021-0.016-0.011-0.031c-0.009-0.009,0-0.055-0.068-0.114
					c-0.053-0.07-0.172-0.095-0.224-0.133c-0.031-0.005-0.08-0.002-0.119-0.004l-0.062-0.001c0.062-0.008,0,0.004,0.006,0.004
					c-0.04,0.012-0.083,0.019-0.134,0.023c-0.065,0.054-0.167,0.096-0.204,0.186c-0.074,0.05-0.094,0.232-0.145,0.361
					c-0.035,0.069-0.041,0.156-0.013,0.246c0.069,0.189,0.277,0.305,0.404,0.331C46.189,33.55,46.277,33.532,46.275,33.537z"/>
			</g>
			<g id="g242">
				<path id="path244" inkscape:connector-curvature="0" fill="#FFBE99" d="M52.52,33.474c-0.002-0.005,0.086,0.013,0.216-0.017
					c0.127-0.025,0.335-0.141,0.403-0.331c0.029-0.09,0.021-0.177-0.012-0.246c-0.052-0.128-0.071-0.311-0.146-0.361
					c-0.038-0.09-0.14-0.132-0.205-0.186c-0.05-0.004-0.094-0.011-0.134-0.023c0.006,0-0.057-0.013,0.006-0.004l-0.062,0.001
					c-0.039,0.001-0.088-0.001-0.119,0.004c-0.051,0.038-0.172,0.062-0.223,0.133c-0.068,0.059-0.061,0.105-0.068,0.114
					c0.009,0.015,0,0.013-0.012,0.031c0.004,0.025-0.004,0.049-0.022,0.082l-0.001,0.001c0.005,0.015-0.042-0.127-0.021-0.066v0.002
					l0.002,0.006l0.002,0.014l0.004,0.026c0.004,0.018,0.008,0.034,0.008,0.053l0.008,0.107c0.008,0.063-0.006,0.155-0.004,0.197
					c0.005,0.041-0.025,0.148,0.025,0.215c0.043,0.067,0.09,0.151,0.154,0.172C52.441,33.453,52.52,33.474,52.52,33.474
					L52.52,33.474z M52.52,33.574c0,0-0.084-0.003-0.246,0.005c-0.082,0.013-0.178-0.021-0.316-0.032
					c-0.135-0.014-0.274-0.126-0.443-0.255c-0.064-0.06-0.11-0.096-0.155-0.153l-0.067-0.081c-0.014-0.013-0.021-0.029-0.031-0.043
					l-0.014-0.022l-0.008-0.011l-0.004-0.005l-0.001-0.001l-0.022-0.069l-0.002-0.005c-0.076-0.21-0.095-0.475,0.016-0.76
					c0.145-0.257,0.365-0.462,0.601-0.531c0.23-0.09,0.446-0.109,0.72-0.093l0.127,0.025l0.061,0.013
					c0.1,0.022,0.075,0.027,0.119,0.042c0.109,0.052,0.216,0.109,0.314,0.168c0.162,0.166,0.314,0.339,0.361,0.554
					c0.08,0.223,0.062,0.346,0.061,0.495c0.002,0.213-0.09,0.396-0.217,0.497c-0.257,0.189-0.474,0.192-0.617,0.234
					C52.6,33.573,52.52,33.574,52.52,33.574z"/>
			</g>
			<g id="g246">
				<path id="path248" inkscape:connector-curvature="0" fill="#FFBE99" d="M49.244,32.274c0,0-0.271-0.126-0.467-0.511
					c-0.041-0.099-0.092-0.21-0.112-0.34c-0.004-0.133-0.052-0.28,0.004-0.437c0.036-0.158,0.076-0.327,0.194-0.463l0.079-0.107
					l0.041-0.052l0.01-0.013l0.005-0.006L49,30.341l0.126-0.087l0.019-0.011l0.019-0.011c-0.012,0.001,0.115-0.046,0.188-0.046
					c0.185-0.02,0.368,0.087,0.374,0.103c0.048,0.036,0.094,0.077,0.134,0.122l0.059,0.083c0.119,0.217,0.138,0.355,0.166,0.501
					c0.029,0.143,0.014,0.281,0.01,0.411c-0.019,0.259-0.091,0.497-0.192,0.683c-0.091,0.188-0.224,0.321-0.317,0.398
					c-0.105,0.074-0.168,0.101-0.168,0.101s-0.006-0.286-0.079-0.605c-0.035-0.162-0.075-0.341-0.121-0.525
					c-0.02-0.091-0.059-0.182-0.078-0.267c-0.017-0.082-0.065-0.175-0.064-0.164l0.012,0.008c0.018,0.024,0.042,0.046,0.069,0.062
					c-0.013-0.01,0.138,0.098,0.293,0.07c0.059,0,0.17-0.061,0.146-0.049l-0.02,0.009l-0.02,0.01h-0.001
					c0.055-0.038-0.125,0.086,0.123-0.085l-0.001,0.001l-0.001,0.002l-0.003,0.004l-0.013,0.018l-0.028,0.032
					c-0.047,0.036-0.089,0.08-0.121,0.136c-0.078,0.106-0.124,0.263-0.168,0.421C49.276,31.981,49.244,32.274,49.244,32.274
					L49.244,32.274z"/>
			</g>
		</g>
	</g>
</g>
</svg>
